<svg data-v-423bf9ae="" xmlns="http://www.w3.org/2000/svg" viewBox="0 0 229.92443312028468 60" class="font"><!----><!----><!----><g data-v-423bf9ae="" id="f6752ed4-a00d-4e40-84bf-7e66307e2925" fill="white" transform="matrix(5.0377834398576615,0,0,5.0377834398576615,-0.9067986750917214,-14.609571979190527)"><path d="M5.98 4.55C5.59 3.86 4.70 3.43 3.78 3.43C1.76 3.42 0.18 4.66 0.18 7.04C0.18 9.46 1.69 10.72 3.74 10.71C4.51 10.70 5.59 10.30 5.98 9.49L6.06 10.50L7.67 10.50L7.67 3.60L6.03 3.60ZM3.93 4.96C6.62 4.96 6.62 9.14 3.93 9.14C2.80 9.14 1.89 8.36 1.89 7.04C1.89 5.73 2.80 4.96 3.93 4.96ZM9.11 3.60L9.11 10.50L10.82 10.50L10.82 6.86C10.82 5.59 11.65 5.11 12.54 5.11C13.10 5.11 13.43 5.26 13.78 5.56L14.55 4.07C14.17 3.70 13.48 3.42 12.77 3.42C12.07 3.42 11.35 3.54 10.82 4.40L10.70 3.60ZM19.92 3.77C19.45 3.44 18.89 3.37 18.34 3.37C16.41 3.37 14.84 4.72 14.84 6.87C14.84 9.03 16.18 10.35 18.34 10.35C19.19 10.35 20.09 10.78 20.09 11.73C20.09 12.68 19.32 13.22 18.34 13.22C17.36 13.22 16.53 12.63 16.53 11.73L14.84 11.73C14.84 13.59 16.34 14.81 18.34 14.81C20.34 14.81 21.80 13.64 21.80 11.73C21.80 10.85 21.52 10.02 20.37 9.45C21.50 8.93 21.83 7.73 21.83 6.87C21.83 6.12 21.63 5.43 21.10 4.83L21.87 3.85L20.61 2.90ZM18.34 4.93C19.32 4.93 20.13 5.68 20.13 6.87C20.13 8.06 19.32 8.79 18.34 8.79C17.35 8.79 16.53 8.08 16.53 6.87C16.53 5.67 17.35 4.93 18.34 4.93ZM28.13 3.60L26.87 6.62L26.15 8.53L25.49 6.58L24.44 3.60L22.46 3.60L25.21 10.39L23.93 13.38L25.80 13.38L30.02 3.60ZM34.16 3.46C31.96 3.46 30.59 5.08 30.59 7.06C30.59 9.04 31.93 10.65 34.17 10.65C36.41 10.65 37.77 9.04 37.77 7.06C37.77 5.08 36.36 3.46 34.16 3.46ZM34.17 5.01C35.32 5.01 36.05 6.02 36.05 7.06C36.05 8.11 35.42 9.09 34.17 9.09C32.93 9.09 32.30 8.11 32.30 7.06C32.30 6.02 32.94 5.01 34.17 5.01ZM38.99 3.60L38.99 7.22C38.99 9.37 40.19 10.61 41.85 10.61C42.81 10.61 43.47 10.28 44.18 9.58L44.30 10.51L45.82 10.51L45.82 3.60L44.13 3.60L44.13 7.13C44.13 8.18 43.41 9.06 42.36 9.06C41.27 9.06 40.70 8.26 40.70 7.21L40.70 3.60Z"></path></g><!----><!----></svg>