<svg xmlns="http://www.w3.org/2000/svg" viewBox="0 0 500 500"><g id="freepik--background-complete--inject-65"><path d="M452.37,304.22l-13.12.28-6.66.11c-2.23.05-4.47,0-6.7.06h-.44v-.45L425.39,293v-.5h.5l13.24.06c4.42,0,8.83.11,13.24.16h.28V293c0,1.9-.08,3.79-.13,5.66Zm0,0-.14-5.65c-.05-1.86-.11-3.7-.13-5.54l.27.28c-4.41.05-8.82.16-13.24.16l-13.24.06.5-.5-.05,11.19-.45-.44c2.18,0,4.36,0,6.55.05L439,304Z" style="fill:#ebebeb"></path><path d="M437.6,318.33l-13.12.28-6.67.11c-2.22,0-4.46,0-6.69.06h-.44v-.45l-.05-11.19v-.5h.5l13.24.07c4.41,0,8.83.11,13.24.16h.28v.27c0,1.9-.08,3.79-.13,5.66Zm0,0-.14-5.65c0-1.86-.11-3.7-.13-5.54l.27.28c-4.41.05-8.83.16-13.24.16l-13.24.06.5-.5-.05,11.19-.45-.44c2.18,0,4.36,0,6.55.05l6.57.12Z" style="fill:#ebebeb"></path><path d="M467.14,318.33l-13.12.28-6.66.11c-2.23,0-4.47,0-6.7.06h-.44v-.45l-.06-11.19v-.5h.5l13.24.07c4.42,0,8.83.11,13.24.16h.28v.27c0,1.9-.09,3.79-.13,5.66Zm0,0-.14-5.65c0-1.86-.11-3.7-.13-5.54l.27.28c-4.41.05-8.82.16-13.24.16l-13.24.06.5-.5-.05,11.19-.45-.44c2.19,0,4.36,0,6.55.05l6.58.12Z" style="fill:#ebebeb"></path><path d="M304.79,171.07l-13.12.28-6.66.11c-2.23,0-4.47,0-6.7,0h-.44v-.45l-.06-11.19v-.5h.5l13.24.06c4.42,0,8.83.11,13.24.16h.28v.27c0,1.9-.09,3.78-.14,5.65Zm0,0-.14-5.66c0-1.86-.11-3.7-.13-5.53l.27.27c-4.41,0-8.82.16-13.24.16l-13.24.07.5-.5-.05,11.19-.45-.45c2.18,0,4.36,0,6.55.06l6.58.11Z" style="fill:#ebebeb"></path><path d="M290,185.18l-13.12.28-6.67.11c-2.22,0-4.46,0-6.69.05h-.44v-.45L263,174v-.5h.5l13.24.06c4.41,0,8.83.11,13.24.16h.28V174c0,1.9-.08,3.78-.13,5.65Zm0,0-.14-5.66c-.05-1.86-.11-3.7-.13-5.53l.27.27c-4.41.05-8.83.16-13.24.16l-13.24.07.5-.5L264,185.18l-.45-.45c2.18,0,4.36,0,6.55.06l6.57.11Z" style="fill:#ebebeb"></path><path d="M319.56,185.18l-13.12.28-6.66.11c-2.23,0-4.46,0-6.7.05h-.44v-.45L292.58,174v-.5h.5l13.24.06c4.42,0,8.83.11,13.24.16h.28V174c0,1.9-.09,3.78-.13,5.65Zm0,0-.14-5.66c0-1.86-.11-3.7-.13-5.53l.27.27c-4.41.05-8.82.16-13.24.16l-13.24.07.5-.5-.05,11.19-.45-.45c2.19,0,4.36,0,6.55.06l6.58.11Z" style="fill:#ebebeb"></path><path d="M88.88,245.11l-13.12.28-6.67.11c-2.22,0-4.46,0-6.69.05H62v-.45l-.05-11.19v-.5h.5l13.24.06c4.41,0,8.83.11,13.24.16h.28v.27c0,1.9-.08,3.78-.13,5.65Zm0,0-.14-5.66c0-1.86-.11-3.7-.13-5.53l.27.27c-4.41.05-8.83.16-13.24.16l-13.24.07.5-.5,0,11.19-.45-.45c2.18,0,4.36,0,6.55.06l6.57.11Z" style="fill:#ebebeb"></path><path d="M450.84,62.38l-13.12.28-6.67.11c-2.22,0-4.46,0-6.69.06h-.44v-.45l-.05-11.19v-.5h.5l13.24.06c4.41,0,8.83.12,13.24.17h.28v.27c0,1.9-.08,3.79-.13,5.65Zm0,0-.14-5.65c-.05-1.87-.11-3.71-.13-5.54l.27.27c-4.41,0-8.83.16-13.24.17l-13.24.06.5-.5-.05,11.19-.45-.45c2.18,0,4.36,0,6.55.06l6.57.11Z" style="fill:#ebebeb"></path><path d="M465.61,76.49l-13.12.28-6.66.11c-2.23.05-4.47,0-6.7.05h-.44v-.45l-.06-11.19v-.5h.5l13.24.06c4.42,0,8.83.12,13.24.17h.28v.27c0,1.9-.09,3.79-.14,5.65Zm0,0-.14-5.65c0-1.87-.11-3.71-.13-5.54l.27.27c-4.41.05-8.82.16-13.24.17l-13.24.06.5-.5-.05,11.19-.45-.45c2.18,0,4.36,0,6.55.06l6.58.11Z" style="fill:#ebebeb"></path><path d="M59.34,62.39l-13.13.28-6.66.11c-2.22,0-4.46,0-6.69.06h-.45v-.45l0-11.19v-.5h.51l13.24.07c4.41,0,8.82.11,13.24.16h.27v.27c0,1.9-.09,3.79-.13,5.66Zm0,0-.15-5.65c0-1.87-.11-3.71-.13-5.54l.28.27c-4.42.06-8.83.16-13.24.17l-13.24.06.5-.5L33.3,62.39,32.86,62c2.18,0,4.35,0,6.54,0l6.58.11Z" style="fill:#ebebeb"></path><rect x="134.01" width="1" height="48.51" style="fill:#c7c7c7"></rect><polygon points="159.03 72.15 157.06 76.49 111.95 76.49 109.98 72.15 129.19 58.86 139.83 58.86 159.03 72.15" style="fill:#ebebeb"></polygon><polygon points="141.16 46.05 139.83 58.86 129.19 58.86 127.86 46.05 141.16 46.05" style="fill:#dbdbdb"></polygon><polygon points="159.03 72.15 157.06 76.49 111.95 76.49 109.98 72.15 159.03 72.15" style="fill:#dbdbdb"></polygon><rect x="211" width="1" height="48.51" style="fill:#c7c7c7"></rect><polygon points="236.03 72.15 234.06 76.49 188.94 76.49 186.98 72.15 206.18 58.86 216.82 58.86 236.03 72.15" style="fill:#ebebeb"></polygon><polygon points="218.16 46.05 216.82 58.86 206.18 58.86 204.85 46.05 218.16 46.05" style="fill:#dbdbdb"></polygon><polygon points="236.03 72.15 234.06 76.49 188.94 76.49 186.97 72.15 236.03 72.15" style="fill:#dbdbdb"></polygon><rect x="288" width="1" height="48.51" style="fill:#c7c7c7"></rect><polygon points="313.02 72.15 311.05 76.49 265.94 76.49 263.97 72.15 283.18 58.86 293.82 58.86 313.02 72.15" style="fill:#ebebeb"></polygon><polygon points="295.15 46.05 293.82 58.86 283.18 58.86 281.85 46.05 295.15 46.05" style="fill:#dbdbdb"></polygon><polygon points="313.02 72.15 311.05 76.49 265.94 76.49 263.97 72.15 313.02 72.15" style="fill:#dbdbdb"></polygon><rect x="364.99" width="1" height="48.51" style="fill:#c7c7c7"></rect><polygon points="390.02 72.15 388.05 76.49 342.94 76.49 340.97 72.15 360.17 58.86 370.81 58.86 390.02 72.15" style="fill:#ebebeb"></polygon><polygon points="372.15 46.05 370.81 58.86 360.17 58.86 358.84 46.05 372.15 46.05" style="fill:#dbdbdb"></polygon><polygon points="390.02 72.15 388.05 76.49 342.93 76.49 340.97 72.15 390.02 72.15" style="fill:#dbdbdb"></polygon><rect x="345.56" y="92.64" width="97.29" height="8.59" style="fill:#dbdbdb"></rect><polygon points="437.2 261.02 394.2 281.02 351.2 261.02 351.2 101.23 437.2 101.23 437.2 261.02" style="fill:#ebebeb"></polygon><polygon points="428.83 253.41 394.2 269.51 359.58 253.41 359.58 101.23 428.83 101.23 428.83 253.41" style="fill:#dbdbdb"></polygon><polygon points="363.53 101.24 363.53 255.25 359.58 253.41 359.58 101.24 363.53 101.24" style="fill:#fff"></polygon><polygon points="371.69 101.24 371.69 259.05 367.74 257.21 367.74 101.24 371.69 101.24" style="fill:#fff"></polygon><polygon points="379.85 101.24 379.85 262.84 375.9 261 375.9 101.24 379.85 101.24" style="fill:#fff"></polygon><polygon points="388.02 101.24 388.02 266.64 384.06 264.8 384.06 101.24 388.02 101.24" style="fill:#fff"></polygon><polygon points="396.18 101.24 396.18 268.6 394.2 269.52 392.22 268.6 392.22 101.24 396.18 101.24" style="fill:#fff"></polygon><polygon points="404.34 101.24 404.34 264.8 400.38 266.64 400.38 101.24 404.34 101.24" style="fill:#fff"></polygon><polygon points="412.5 101.24 412.5 261 408.55 262.84 408.55 101.24 412.5 101.24" style="fill:#fff"></polygon><polygon points="420.66 101.24 420.66 257.21 416.71 259.05 416.71 101.24 420.66 101.24" style="fill:#fff"></polygon><polygon points="428.82 101.24 428.82 253.41 424.87 255.25 424.87 101.24 428.82 101.24" style="fill:#fff"></polygon><rect x="359.58" y="100.85" width="40.76" height="63.85" style="fill:#dbdbdb"></rect><polygon points="370.32 107.1 372.13 110.77 376.18 111.36 373.25 114.21 373.94 118.24 370.32 116.34 366.7 118.24 367.39 114.21 364.46 111.36 368.51 110.77 370.32 107.1" style="fill:#fff"></polygon><polygon points="388.77 145.89 390.58 149.56 394.63 150.15 391.7 153 392.39 157.03 388.77 155.13 385.15 157.03 385.84 153 382.91 150.15 386.96 149.56 388.77 145.89" style="fill:#fff"></polygon><rect x="57.15" y="92.64" width="97.29" height="8.59" style="fill:#dbdbdb"></rect><polygon points="148.8 261.02 105.8 281.02 62.8 261.02 62.8 101.23 148.8 101.23 148.8 261.02" style="fill:#ebebeb"></polygon><polygon points="140.42 253.41 105.8 269.51 71.17 253.41 71.17 101.23 140.42 101.23 140.42 253.41" style="fill:#dbdbdb"></polygon><polygon points="75.13 101.24 75.13 255.25 71.18 253.41 71.18 101.24 75.13 101.24" style="fill:#fff"></polygon><polygon points="83.29 101.24 83.29 259.05 79.34 257.21 79.34 101.24 83.29 101.24" style="fill:#fff"></polygon><polygon points="91.45 101.24 91.45 262.84 87.5 261 87.5 101.24 91.45 101.24" style="fill:#fff"></polygon><polygon points="99.62 101.24 99.62 266.64 95.66 264.8 95.66 101.24 99.62 101.24" style="fill:#fff"></polygon><polygon points="107.78 101.24 107.78 268.6 105.8 269.52 103.82 268.6 103.82 101.24 107.78 101.24" style="fill:#fff"></polygon><polygon points="115.94 101.24 115.94 264.8 111.98 266.64 111.98 101.24 115.94 101.24" style="fill:#fff"></polygon><polygon points="124.1 101.24 124.1 261 120.15 262.84 120.15 101.24 124.1 101.24" style="fill:#fff"></polygon><polygon points="132.26 101.24 132.26 257.21 128.31 259.05 128.31 101.24 132.26 101.24" style="fill:#fff"></polygon><polygon points="140.42 101.24 140.42 253.41 136.47 255.25 136.47 101.24 140.42 101.24" style="fill:#fff"></polygon><rect x="71.17" y="100.85" width="40.76" height="63.85" style="fill:#dbdbdb"></rect><polygon points="81.91 107.1 83.72 110.77 87.77 111.36 84.84 114.21 85.53 118.24 81.91 116.34 78.29 118.24 78.98 114.21 76.06 111.36 80.1 110.77 81.91 107.1" style="fill:#fff"></polygon><polygon points="100.36 145.89 102.17 149.56 106.22 150.15 103.29 153 103.98 157.03 100.36 155.13 96.74 157.03 97.44 153 94.51 150.15 98.55 149.56 100.36 145.89" style="fill:#fff"></polygon></g><g id="freepik--Shadow--inject-65"><ellipse cx="250" cy="445.33" rx="208.42" ry="24.17" style="fill:#ebebeb"></ellipse></g><g id="freepik--Floor--inject-65"><polygon points="36.7 388.04 90.02 387.79 143.35 387.71 250 387.54 356.65 387.7 409.98 387.79 463.31 388.04 409.98 388.28 356.65 388.37 250 388.54 143.35 388.37 90.02 388.28 36.7 388.04" style="fill:#263238"></polygon></g><g id="freepik--Plant--inject-65"><path d="M247.63,248.88s-19.53-2.73-15-26.31C232.66,222.57,254.49,227.47,247.63,248.88Z" style="fill:#C53F51"></path><path d="M247.63,248.88s-19.53-2.73-15-26.31C232.66,222.57,254.49,227.47,247.63,248.88Z" style="opacity:0.1"></path><path d="M246.64,244a37.18,37.18,0,0,0-1.33-3.51c0-.15,0-.3-.05-.45,0-.32,0-.65-.08-1-.05-.71-.1-1.41-.14-2.11-.08-1.41-.17-2.82-.19-4.23a.06.06,0,0,0-.12,0c0,1.41,0,2.82,0,4.23,0,.71.07,1.41.11,2.12,0,.15,0,.31,0,.46a41.83,41.83,0,0,0-3.92-6.69c-.67-.94-1.38-1.84-2.14-2.71s-1.6-1.74-2.38-2.62c-.05-.06-.14,0-.09.08a34.74,34.74,0,0,1,3.77,5c.59.9,1.15,1.82,1.69,2.76l-.19-.08L241,235l-1.6-.6-3.14-1.17c-.06,0-.11.09,0,.11,1,.42,2.06.85,3.09,1.3l1.51.65.77.31a1.94,1.94,0,0,0,.51.18c.4.71.79,1.42,1.15,2.15a49.56,49.56,0,0,1,2.38,5.62c0,.14.1.27.14.41a10.21,10.21,0,0,0-1.6-.77c-.67-.32-1.34-.62-2-.93-1.37-.63-2.73-1.26-4-2a.06.06,0,1,0-.06.1c1.34.73,2.66,1.51,4,2.24.68.37,1.35.72,2,1.06a6.43,6.43,0,0,0,1.83.73,22.42,22.42,0,0,1,1.28,5.54c.22,2.67.2,5.35.26,8,0,0,.07,0,.07,0,.2-2.43.3-4.88.32-7.31A21.06,21.06,0,0,0,246.64,244Z" style="fill:#263238"></path><path d="M243.64,230.1a23,23,0,0,0-.2,4.15,0,0,0,0,0,.06,0c.08-1.38.09-2.75.25-4.13C243.76,230.05,243.64,230,243.64,230.1Z" style="fill:#263238"></path><path d="M238.05,231.28a15.82,15.82,0,0,1-2.51-1.24c-.06,0-.12.07-.06.11a9.57,9.57,0,0,0,2.54,1.21S238.1,231.3,238.05,231.28Z" style="fill:#263238"></path><path d="M248.25,286.32c0-2.16-.05-4.32-.08-6.48,0-7.17-.1-14.33-.23-21.5q-.15-8.53-.39-17.07a.09.09,0,0,0-.05-.07l0-4.66s0-.06-.09-.06-.09,0-.09.06l0,4.67s0,0,0,.07c-.28,10.12-.54,20.25-.6,30.38,0,2.06,0,4.12,0,6.18q-.1,9.9-.08,19.81c0,1.05,0,2.11,0,3.16,0,6,.06,12.08.06,18.12,0,.33.37.49.75.51s.9-.16.9-.53c0-6.67.05-13.33.05-20C248.27,294.72,248.29,290.52,248.25,286.32Z" style="fill:#263238"></path><path d="M240.1,279.76s-9.4-7-18.31-2.26-10.32,22.84-10.32,22.84,13.09,1.87,21.34-6C240.76,286.8,240.1,279.76,240.1,279.76Z" style="fill:#C53F51"></path><path d="M242.66,280.19a11.31,11.31,0,0,0-5.44-.71,7.59,7.59,0,0,0-1.16-.11l-1.32-.1-2.74-.2c-1.85-.13-3.71-.25-5.56-.43-.07,0-.08.11,0,.11,1.83.24,3.65.5,5.49.68.94.1,1.88.2,2.83.26l.69.07q-.42.09-.84.21a22,22,0,0,0-4.25,1.73c-.74.13-1.48.34-2.2.51-1.17.27-2.32.57-3.48.88-2.28.59-4.54,1.27-6.8,1.92a.06.06,0,0,0,0,.12c2.26-.56,4.54-1.07,6.81-1.6l3.3-.8.86-.2a27.76,27.76,0,0,0-6.68,5.81,37,37,0,0,0-4.64,7.32c0,.07.07.13.1.06a35.69,35.69,0,0,1,5.62-7.37l-.12.38c-.18.55-.35,1.1-.52,1.66-.35,1.1-.7,2.21-1,3.32,0,.08.09.1.11,0,.4-1.07.77-2.15,1.15-3.23l.56-1.59c.1-.27.19-.55.28-.82l.09-.25a34.25,34.25,0,0,1,3.33-2.84,25.19,25.19,0,0,1,5-2.86l-.09.48c-.1.43-.19.86-.28,1.28-.18.89-.36,1.79-.53,2.68-.36,1.81-.57,3.66-.92,5.47a.06.06,0,0,0,.12,0c.42-1.82,1-3.62,1.37-5.46.21-.91.41-1.83.6-2.75.09-.43.18-.86.26-1.29.05-.24.11-.48.14-.72l.51-.21a14.87,14.87,0,0,1,7.81-1.07,7.68,7.68,0,0,1,5.66,4.53c.08.21.41.08.36-.13A7.26,7.26,0,0,0,242.66,280.19Z" style="fill:#263238"></path><path d="M228.28,287.93c-.27,1.19-.53,2.38-.8,3.57a26,26,0,0,0-.65,3.48s.06,0,.07,0a26.09,26.09,0,0,0,.8-3.5l.69-3.53C228.41,287.89,228.29,287.86,228.28,287.93Z" style="fill:#263238"></path><path d="M219.19,291c-1.2.61-2.36,1.29-3.61,1.79a.06.06,0,1,0,0,.11,36.94,36.94,0,0,0,3.59-1.86S219.22,290.94,219.19,291Z" style="fill:#263238"></path><path d="M242.21,267s-11.48.73-16.82-6.84-4.15-18.39-4.15-18.39,12.06,1.47,16.85,6.91S242.21,267,242.21,267Z" style="fill:#C53F51"></path><path d="M247.6,278.31c-.4-1.23-.89-2.44-1.36-3.65s-.92-2.31-1.42-3.44a70.58,70.58,0,0,0-3.45-6.77q-1.22-2.08-2.57-4.08c0-.2-.06-.41-.09-.61-.05-.36-.1-.71-.16-1.07-.11-.73-.24-1.45-.36-2.18-.26-1.58-.59-3.16-.84-4.74,0-.08-.13-.08-.12,0,.23,1.56.39,3.14.61,4.71.1.77.2,1.54.32,2.31,0,.28.09.56.13.83a82,82,0,0,0-5.68-7.36c-.27-.32-.56-.63-.84-.94l-.1-.27c-.09-.21-.17-.43-.25-.65-.17-.46-.34-.91-.5-1.37-.32-.9-.61-1.81-.86-2.73a.06.06,0,1,0-.11,0c.23.94.48,1.89.75,2.82.14.45.28.89.44,1.33a2,2,0,0,1,.08.22c-1.46-1.6-3-3.14-4.54-4.66a.06.06,0,1,0-.08.08,82.66,82.66,0,0,1,8.13,10c-.28-.09-.57-.16-.85-.22-.88-.17-1.77-.29-2.67-.41-1.87-.23-3.73-.47-5.6-.76-.07,0-.1.1,0,.11,1.77.35,3.54.75,5.3,1.16.84.19,1.68.35,2.51.52a17.26,17.26,0,0,1,2,.57c.19.27.38.53.56.8.84,1.22,1.65,2.48,2.44,3.74l-1.17-.23q-1.32-.25-2.67-.48c-1.75-.29-3.5-.59-5.23-1a.06.06,0,0,0,0,.12c1.76.41,3.5.89,5.24,1.36.84.22,1.69.42,2.54.61l1.27.28a3.79,3.79,0,0,0,.52.09q2.52,4.08,4.71,8.34c.64,1.25,1.26,2.51,1.85,3.78s1.14,2.64,1.71,4C247.27,278.7,247.69,278.6,247.6,278.31Z" style="fill:#263238"></path><path d="M235.85,251.92c-.22-1.1-.45-2.19-.7-3.28,0-.08-.13,0-.11,0,.22,1.08.42,2.16.62,3.24a32.2,32.2,0,0,0,.65,3.22s0,0,0,0A23.14,23.14,0,0,0,235.85,251.92Z" style="fill:#263238"></path><path d="M229.15,251.6c-.53-.27-1.1-.48-1.65-.7l-.87-.34-.45-.18a2.06,2.06,0,0,1-.48-.21c-.09-.06-.14.09-.06.1a2.1,2.1,0,0,1,.49.2l.44.2.84.37a14.49,14.49,0,0,0,1.69.67C229.17,251.73,229.21,251.63,229.15,251.6Z" style="fill:#263238"></path><path d="M254,258s7-13,17.52-15,17,8.87,17,8.87-7.71,9.84-17.42,11.56S254,258,254,258Z" style="fill:#C53F51"></path><path d="M278.57,248.78a28.44,28.44,0,0,0-8.29.09l.47-.25,2.35-1.21c1.62-.84,3.26-1.74,5-2.42a.06.06,0,1,0-.05-.11c-1.65.77-3.37,1.42-5,2.18-.83.38-1.64.78-2.45,1.21a16.84,16.84,0,0,0-1.61.87,28.83,28.83,0,0,0-6.72,2.23l1.32-1.44c1-1.08,2-2.21,3-3.2.06,0,0-.13-.09-.08-1.1,1-2.27,1.94-3.35,3-.52.51-1,1-1.5,1.57-.24.27-.48.55-.71.84a27.89,27.89,0,0,0-14.18,19.14c0,.07.09.11.12,0a31.89,31.89,0,0,1,7.77-13.15,30.51,30.51,0,0,1,14.16-8.2,31.26,31.26,0,0,1,9.78-.89A.1.1,0,0,0,278.57,248.78Z" style="fill:#263238"></path><path d="M288.53,251.83s-7.71,9.85-17.42,11.56c-7.4,1.31-13.49-2.55-16-4.45l-.53-.87s5-4.22,14.47-6.65S288.53,251.83,288.53,251.83Z" style="opacity:0.1"></path><path d="M272.43,244.15a25.75,25.75,0,0,0-2.35,1.55,15,15,0,0,0-2,1.86.06.06,0,0,0,.09.09c.7-.61,1.41-1.22,2.14-1.8a21.93,21.93,0,0,1,2.22-1.6A.06.06,0,1,0,272.43,244.15Z" style="fill:#263238"></path><path d="M278.23,246.34c-.39.17-.79.31-1.18.47l-1.18.49c-.08,0,0,.17,0,.14l1.18-.48,1.18-.5A.06.06,0,0,0,278.23,246.34Z" style="fill:#263238"></path><path d="M252.58,274.28s1.85,12.88,11.54,17.39,21.48,0,21.48,0S281,263.81,252.58,274.28Z" style="fill:#C53F51"></path><path d="M278.93,283.29c-.89-.1-1.78-.25-2.66-.42l-1.3-.24-.68-.14c-.27-.24-.52-.49-.79-.72a39,39,0,0,0-5.92-4.3,34.89,34.89,0,0,0-3.55-1.82h.18l3.19.14c2.13.09,4.25.14,6.37.28a.06.06,0,1,0,0-.12c-2.13-.14-4.25-.38-6.38-.56l-3.1-.28L262.7,275l-.41,0c-.55-.21-1.11-.4-1.67-.58a15.16,15.16,0,0,0-8.2-.45c-2.44.63-4.87,2.22-5.5,4.79,0,.09.12.15.15.06.91-2.15,3.29-3.23,5.44-3.67a12.94,12.94,0,0,1,4.39-.09,10.5,10.5,0,0,0,.49,1.95l.8,2.72c.55,1.81,1.16,3.6,1.69,5.41,0,.07.13,0,.12,0-.45-1.8-.83-3.63-1.27-5.44-.21-.89-.44-1.77-.66-2.66a16.51,16.51,0,0,0-.48-1.83,23.47,23.47,0,0,1,2.51.59,37.3,37.3,0,0,1,4.39,1.61c.14.92.34,1.83.55,2.73.27,1.14.56,2.26.92,3.38a.06.06,0,0,0,.11,0c0-.07,0-.14,0-.21h0c-.22-1.05-.45-2.1-.67-3.16-.18-.84-.35-1.7-.53-2.54,1.2.54,2.38,1.13,3.53,1.79,0,.26.09.53.12.77.07.44.15.88.23,1.32.19,1,.38,2,.62,3a45.58,45.58,0,0,0,1.67,5.6.06.06,0,0,0,0,.08l.05.06c0,.05.11,0,.1-.06-.45-1.91-1-3.8-1.38-5.72-.21-.95-.42-1.91-.61-2.87-.1-.48-.18-1-.27-1.44,0-.13-.05-.28-.07-.43a40.45,40.45,0,0,1,3.77,2.51,41.77,41.77,0,0,1,5.77,5.27c.07.08.21,0,.14-.11a36.41,36.41,0,0,0-2.31-2.82c-.48-.52-1-1-1.5-1.52l.16,0c.45.08.91.14,1.36.21.9.12,1.79.2,2.69.31C279,283.41,279,283.3,278.93,283.29Z" style="fill:#263238"></path><path d="M272.13,287.66h0l-.06-.33c0-.14-.1-.28-.12-.42h0c-.2-.87-.37-1.73-.52-2.6,0-.06-.11,0-.11,0a10.55,10.55,0,0,0,.74,3.37,0,0,0,0,0,.07,0Z" style="fill:#263238"></path><path d="M264,287.45s0-.05-.06-.06c-.27-1.14-.53-2.28-.76-3.42-.13-.61-.25-1.21-.37-1.82l-.18-1a2.59,2.59,0,0,0-.21-.84.06.06,0,0,0-.11,0,5.64,5.64,0,0,0,.25,1.72c.12.63.24,1.26.38,1.88.28,1.27.59,2.54,1,3.79,0,.07.14.05.13,0Z" style="fill:#263238"></path><path d="M278.05,279.58c-1.77-.24-3.54-.5-5.31-.71-.07,0-.1.1,0,.11,1.77.26,3.54.48,5.31.72C278.09,279.71,278.12,279.59,278.05,279.58Z" style="fill:#263238"></path><path d="M247.62,244.09s-5.93-26,22-36.52C269.62,207.57,277.36,241.79,247.62,244.09Z" style="fill:#C53F51"></path><path d="M253.64,229.34l.3-.18,1.58-.88,3.24-1.81c2.13-1.2,4.24-2.44,6.38-3.6a.06.06,0,1,0-.06-.1c-2.15,1.17-4.34,2.26-6.5,3.4l-3.2,1.7-1.31.69c.93-1.77,1.93-3.5,3-5.17,1.46-2.23,3.06-4.35,4.73-6.42.07-.1-.05-.22-.14-.13a43.88,43.88,0,0,0-6.46,7.91,2.44,2.44,0,0,1,0-.27c0-.65.05-1.29.06-1.94,0-1.27,0-2.54,0-3.81,0-.07-.11-.07-.12,0,0,1.25-.2,2.49-.27,3.74,0,.62-.06,1.24-.08,1.87,0,.34,0,.72,0,1.09-.58.91-1.13,1.84-1.65,2.78a50.39,50.39,0,0,0-2.5,5.24c0-.65-.06-1.3-.1-1.94-.08-1.43-.26-2.84-.32-4.27,0-.07-.12-.07-.12,0,0,1.42,0,2.84,0,4.27,0,.71,0,1.42.09,2.13,0,.26,0,.53.05.79a47.11,47.11,0,0,0-2.11,7.15,76.64,76.64,0,0,0-1,7.85s0,0,0,0a41.7,41.7,0,0,1,1.48-7c.35-1.23.71-2.45,1.11-3.66,1.16-.55,2.27-1.23,3.39-1.85l3.51-1.92c2.33-1.28,4.65-2.58,7.06-3.71.07,0,0-.13-.07-.1-2.43,1.1-4.88,2.15-7.27,3.35-1.2.6-2.37,1.24-3.53,1.89-1,.55-2,1.1-2.89,1.72.27-.8.55-1.61.86-2.41C251.62,233.58,252.58,231.43,253.64,229.34Z" style="fill:#263238"></path><path d="M251.29,223.4a.06.06,0,0,0-.12,0c.1,1.49.15,3,.31,4.45a.07.07,0,0,0,.13,0C251.56,226.36,251.4,224.88,251.29,223.4Z" style="fill:#263238"></path><path d="M264.68,228.36c-1.75.71-3.51,1.38-5.25,2.1-.05,0,0,.1,0,.08,1.77-.66,3.51-1.38,5.26-2.06A.06.06,0,0,0,264.68,228.36Z" style="fill:#263238"></path><path d="M267.33,216.38a47.28,47.28,0,0,0-5,2.66.08.08,0,0,0,.08.13c1.62-.95,3.27-1.86,4.95-2.69C267.47,216.44,267.4,216.34,267.33,216.38Z" style="fill:#263238"></path><rect x="226.64" y="300.3" width="40.28" height="42.45" style="fill:#37474f"></rect><rect x="223.86" y="315.32" width="2.06" height="72.72" style="fill:#263238"></rect><rect x="267.41" y="315.32" width="2.06" height="72.72" style="fill:#263238"></rect><rect x="246.73" y="315.32" width="2.06" height="72.72" style="fill:#263238"></rect><rect x="224.89" y="340.03" width="43.54" height="5.88" style="fill:#263238"></rect></g><g id="freepik--character-2--inject-65"><path d="M306.11,449.58c2.16.7,63.87-.1,66.2-1.63.9-.56,1.3-9.56,1.49-20.45v-.34c0-2.24.07-4.55.07-6.89,0-.33,0-.65,0-1,.09-15.71-.16-32-.16-32l-41.28.41,1.24,31.71.05,1.26.25,6.56,0,.68s-23.48,10.87-25.87,12.82S303.94,448.89,306.11,449.58Z" style="fill: rgb(235, 148, 129);"></path><path d="M324.65,432.13c.16-.05.25-.09.26-.14Z" style="fill:#C53F51"></path><path d="M306.11,449.58c2.16.69,63.87-.1,66.21-1.63.79-.5,1.2-7.66,1.41-16.9-11.31,2.36-55.13,11.23-56.33,7.48-.47-1.47,3.28-4,5.65-5.46-6.48,3.09-13.65,6.62-14.92,7.66C305.77,442.67,303.94,448.89,306.11,449.58Z" style="fill:#263238"></path><path d="M344.87,449.48c13.89-.33,26.42-.86,27.45-1.53.79-.5,1.2-7.66,1.41-16.9-1.6.33-3.87.81-6.57,1.35Z" style="opacity:0.1"></path><path d="M386.39,209.52s-9.27,104.28-10.78,112.24c-.35,1.81-.56,11.67-.71,24.33-.32,27.65-.13,77.5-.13,77.5h-43.5s1.29-86.38,3.22-102.28,14.24-111.79,14.24-111.79Z" style="fill:#37474f"></path><path d="M333.24,416c6.79-.14,4.84-.19,11.63-.26,3.32,0,25.15-.22,28.25.29a.07.07,0,0,1,0,.14c-3.1.51-24.93.32-28.25.29-6.79-.06-4.84-.12-11.63-.26A.1.1,0,0,1,333.24,416Z" style="fill:#263238"></path><path d="M366.51,366.63q.08-9.47.14-18.93c0-6.11,0-12.22.33-18.33.59-12.36,3.09-24.51,4.88-36.74s3.27-24.5,4.62-36.78c1.51-13.78,2.84-27.58,4.26-41.38,0-.09.16-.09.15,0-2.05,24.62-4.34,49.24-7.75,73.72q-1.27,9.14-2.78,18.23c-1,6.14-2,12.28-2.51,18.49s-.55,12.17-.61,18.27q-.11,9.45-.19,18.91c-.13,14-.27,35.57-.41,49.57a.21.21,0,0,1-.42,0C366.32,399.17,366.41,379.12,366.51,366.63Z" style="fill:#263238"></path><path d="M395.56,209.52S377.12,313.8,375.61,321.76c-.35,1.81-.56,11.67-.71,24.33v0L354.16,209.52Z" style="fill:#263238"></path><path d="M358.53,449.27c2.21.51,63.63-5.54,65.82-7.26.84-.64.48-9.64-.26-20.5l0-.34c-.15-2.24-5.95-40.09-5.95-40.09l-38.58,5.74,4.86,37.81.08.67s-22.47,12.84-24.68,15S356.31,448.77,358.53,449.27Z" style="fill: rgb(235, 148, 129);"></path><path d="M358.53,449.27c2.21.52,63.63-5.54,65.82-7.26.72-.54.57-7.2,0-15.88-9.49,2.57-55.23,14.77-56.69,11-.3-.8.65-2,2-3.18-4.72,2.82-9,5.45-9.87,6.32C357.6,442.41,356.31,448.77,358.53,449.27Z" style="fill:#263238"></path><path d="M381.92,424.71l43.92-6.15s-13.17-89.83-13.39-95.69c-.33-8.72-4.51-44.68-8-73.8,0,0,6.65-15.77-5.8-39.58H348.69s3.35,22.66,9.08,37a66.31,66.31,0,0,1,11.1,5.07s5,64.92,5.16,73C374.39,340.62,381.92,424.71,381.92,424.71Z" style="fill:#37474f"></path><path d="M382.88,416.34c6.7-1.08,4.76-.87,11.48-1.87,3.28-.49,24.88-3.71,28-3.63.07,0,.09.12,0,.14-3,.94-24.65,3.77-27.94,4.2-6.74.88-4.81.55-11.55,1.35A.1.1,0,1,1,382.88,416.34Z" style="fill:#263238"></path><path d="M355.87,245.53a82.11,82.11,0,0,1,13,6.06.15.15,0,0,1-.12.27c-4.38-1.88-8.85-3.68-13.12-5.8A.29.29,0,0,1,355.87,245.53Z" style="fill:#263238"></path><path d="M362,238.3c-.43-2.61-.78-5.23-1-7.86a72.71,72.71,0,0,1,.16-14.75.13.13,0,0,1,.26,0,134.37,134.37,0,0,0,1.19,20.35c.49,3.24,2.12,8.13-1.27,8.63s-5.69-7.67-6.11-9.91a74.19,74.19,0,0,1-.73-19.29c0-.16.28-.19.27,0,0,5.2.3,9.78.74,14.64.2,2.25,2,14.72,5.93,13.81.65-.15,1-.8,1.09-1.79a15.68,15.68,0,0,0-.52-3.82" style="fill:#263238"></path><path d="M361.31,244.24a19.74,19.74,0,0,1,.88,2.59,5.74,5.74,0,0,1,.37,2.12.15.15,0,0,1-.27.06,7.54,7.54,0,0,1-.91-2.07c-.3-.8-.61-1.59-.89-2.4A.44.44,0,0,1,361.31,244.24Z" style="fill:#263238"></path><path d="M357.92,109.26c-6.68,1.17-10,9.57-11.52,16.88s-.66,13.19-5.7,17c0,0,4.15,7.61,20.17,8.83,13.29,1,20.81-1.83,20.81-1.83a74.86,74.86,0,0,0,2.13-16.49c0-9-2.33-18.24-8.44-22.45C365.17,104.14,357.92,109.26,357.92,109.26Z" style="fill:#263238"></path><path d="M357.92,109.26a10.4,10.4,0,0,0-4.36,2.16,13.81,13.81,0,0,0-3.23,3.59,30.54,30.54,0,0,0-3.57,9c-.84,3.17-1.36,6.44-2.15,9.67a23.8,23.8,0,0,1-1.6,4.76,8,8,0,0,1-3.34,3.66,8.21,8.21,0,0,0,2.9-3.86,24.41,24.41,0,0,0,1.3-4.72c.6-3.23,1.1-6.52,1.92-9.76a27.46,27.46,0,0,1,3.89-9.24,14.94,14.94,0,0,1,3.58-3.56A10,10,0,0,1,357.92,109.26Z" style="fill:#263238"></path><path d="M371.09,108.81a18.32,18.32,0,0,1,8.76,7.08A27.31,27.31,0,0,1,384,126.78a45.55,45.55,0,0,1,.15,11.72c-.4,3.87-1,7.71-1.71,11.52l.53-5.8c.17-1.93.34-3.85.45-5.78a47.93,47.93,0,0,0-.37-11.49,27.62,27.62,0,0,0-3.83-10.62,21,21,0,0,0-3.57-4.34A17.3,17.3,0,0,0,371.09,108.81Z" style="fill:#263238"></path><path d="M364.28,160c-5,5.62-29.53,29.56-40.14,29.23-7.3-.22-32.48-7.42-45.59-13.15-3.46-1.51,9.66-27,14.51-25,6.13,2.54,31.07,11.27,35.53,12.21,4.27.89,13.35-5.21,29-11.85C368,147.07,370.21,153.41,364.28,160Z" style="fill: rgb(235, 148, 129);"></path><path d="M281,177c-3.27-1.1-20.65-8.09-24.31-10.77S243,155.08,244.77,152.07s4.88-.77,4.88-.77-3.64-4.23-1.59-7.1,6.78.78,6.78.78-3.42-4.63-1.18-7.34,6.4,1.75,6.4,1.75-3.33-4.08-.54-5.54c3.36-1.75,8.65,6.47,12.91,9.11,1,.61,20.48,10.79,20.48,10.79Z" style="fill: rgb(235, 148, 129);"></path><path d="M259.7,139c3.9,6,6.65,8,13.07,11,.13.06.07.26-.07.21-6.55-2.34-10.36-4.3-13.31-11C259.25,138.86,259.51,138.73,259.7,139Z" style="fill:#263238"></path><path d="M254.54,144.49c4.6,5.91,7.57,8.07,14.06,11.68.09.05,0,.21-.08.17-6.67-3-10.42-5.06-14.24-11.57C254.1,144.48,254.33,144.22,254.54,144.49Z" style="fill:#263238"></path><path d="M250,151.48c4.87,5.4,8,7.9,14.77,10.6a.13.13,0,0,1-.08.25c-7.16-2.08-11.11-5.17-14.84-10.69C249.59,151.26,249.68,151.14,250,151.48Z" style="fill:#263238"></path><path d="M297,157.53s-3.11-8.45-5.29-11.86-15-13.13-17.26-10.48c-2.91,3.42,3.38,10.49,6.92,13.55,0,0-6.75,7.9-3.33,13.95S297,157.53,297,157.53Z" style="fill: rgb(235, 148, 129);"></path><path d="M274,136.39c-.41,5,4.49,8.75,7.7,12a.41.41,0,0,1-.09.67c-2.61,3.51-5.27,9.21-3.81,13.58a.1.1,0,0,1-.19.08c-2.2-4.47-.05-10.29,3.05-13.94-3.34-3.25-8.09-7.2-6.71-12.37C274,136.36,274,136.36,274,136.39Z" style="fill:#263238"></path><path d="M295.43,151.25l-14.6,28.1s28.71,10.93,43.66,10.76c11.29-.13,29.74-20,39-27.75s7-15.92-3.09-12.78-30.58,13-31.51,13.06S295.43,151.25,295.43,151.25Z" style="fill:#C53F51"></path><path d="M295.43,151.25l-14.6,28.1s28.71,10.93,43.66,10.76c11.29-.13,29.74-20,39-27.75s7-15.92-3.09-12.78-30.58,13-31.51,13.06S295.43,151.25,295.43,151.25Z" style="opacity:0.1"></path><path d="M289.12,179.07c1.35-3.19,2.95-6.3,4.49-9.4s3.17-6.12,4.82-9.13c1-1.75,2-3.47,2.92-5.22,0-.06.13,0,.1.05-1.59,3.09-3.06,6.24-4.62,9.34s-3.14,6.13-4.74,9.18c-.92,1.76-1.83,3.54-2.83,5.26C289.22,179.22,289.09,179.16,289.12,179.07Z" style="fill:#263238"></path><path d="M369.29,153.85c-.34,2.44-2.2,5.51-5.79,8.51-9.27,7.75-27.72,27.62-39,27.75a72.64,72.64,0,0,1-16-2.25Z" style="opacity:0.1"></path><path d="M349.36,194l-.7,15.73,49.89,0s-7-41.5-20.72-55.8c-6.86-7.15-14.73-6.45-19.65-1.26-1.24,1.32-13.26,18.32-14.7,26C342.22,185.43,349.36,194,349.36,194Z" style="fill:#ebebeb"></path><path d="M362.26,155.31l-2.47,10.14c-.81,3.38-1.58,6.77-2.28,10.17s-1.48,6.82-.59,10.12a25.35,25.35,0,0,0,4.38,9.16l.1.12v.14c.05,2.33,0,4.65,0,7s0,4.66-.1,7c-.18-2.32-.34-4.65-.47-7s-.26-4.65-.33-7l.09.26A26.12,26.12,0,0,1,356,186a14.18,14.18,0,0,1-.25-5.35c.24-1.75.57-3.47.94-5.17.72-3.42,1.65-6.78,2.58-10.14S361.18,158.62,362.26,155.31Z" style="fill:#263238"></path><path d="M355.76,168.91a.87.87,0,0,0,.75.92.79.79,0,0,0,.81-.8.86.86,0,0,0-.75-.92A.79.79,0,0,0,355.76,168.91Z" style="fill:#263238"></path><path d="M353.41,178.79a.86.86,0,0,0,.75.91.79.79,0,0,0,.81-.8.86.86,0,0,0-.75-.91A.78.78,0,0,0,353.41,178.79Z" style="fill:#263238"></path><path d="M354.11,188.49a.86.86,0,0,0,.75.91.79.79,0,0,0,.81-.8.86.86,0,0,0-.75-.91A.78.78,0,0,0,354.11,188.49Z" style="fill:#263238"></path><path d="M357.74,196.15a.86.86,0,0,0,.75.92.79.79,0,0,0,.81-.8.87.87,0,0,0-.75-.92A.79.79,0,0,0,357.74,196.15Z" style="fill:#263238"></path><path d="M357.73,205a.86.86,0,0,0,.75.91.79.79,0,0,0,.81-.8.86.86,0,0,0-.75-.91A.78.78,0,0,0,357.73,205Z" style="fill:#263238"></path><path d="M370.3,149S368,179.48,368,183.9s5.74,45.84,5.74,45.84l33.86-1.2s-17.41-54.43-23.1-65.49C378.17,150.76,370.3,149,370.3,149Z" style="fill:#C53F51"></path><path d="M370.3,149S368,179.48,368,183.9s5.74,45.84,5.74,45.84l33.86-1.2s-17.41-54.43-23.1-65.49C378.17,150.76,370.3,149,370.3,149Z" style="opacity:0.1"></path><path d="M358.93,151.49c.28-.23-7,21-7.26,30.36s0,47.26,0,47.26l-9.23-2.65,6.4-32.32s-6.55-7.77-5.82-15S357.11,153,358.93,151.49Z" style="fill:#C53F51"></path><path d="M358.93,151.49c.28-.23-7,21-7.26,30.36s0,47.26,0,47.26l-9.23-2.65,6.4-32.32s-6.55-7.77-5.82-15S357.11,153,358.93,151.49Z" style="opacity:0.1"></path><path d="M347,191.52a21.48,21.48,0,0,1-3.24-7.74,13.74,13.74,0,0,1-.22-5,21.46,21.46,0,0,1,1.44-4.41c1.31-3.23,2.84-6.36,4.43-9.47a0,0,0,0,0-.07,0A66.88,66.88,0,0,0,346,171c.32-1.13.7-2.23,1.12-3.33,0,0,0-.05-.06,0a22.33,22.33,0,0,0-1.43,4.12c-.23.48-.46,1-.67,1.44-1.25,2.74-2.49,5.52-2.21,8.6a22.22,22.22,0,0,0,2.46,8.19,43.59,43.59,0,0,0,3.16,4.24c-.16.8-1.86,10.79-2.46,14.5,0,.1.13.14.15,0,.73-3.18,1.48-6.35,2.11-9.55A40.18,40.18,0,0,0,349,194C349,193.85,347.38,192.14,347,191.52Z" style="fill:#263238"></path><path d="M380.79,155.05c18.8,16.68,42.06,50.06,38.43,57.95-4,8.79-29.73-12.23-29.05-13.53.58-1.1-9.93-23.2-17.58-39.36S376.14,150.92,380.79,155.05Z" style="fill: rgb(235, 148, 129);"></path><path d="M418.56,214c-4.89,4.92-15.73,4.14-43.22,4.73-3.8.08-11.6-26.61-7.54-26.9,5.11-.38,25-.72,26.48-.56C406.59,192.58,421.87,210.63,418.56,214Z" style="fill: rgb(235, 148, 129);"></path><path d="M380.42,193.12s-10-3.65-15.9-3.94a37.77,37.77,0,0,0-17.62,3.91c-5.91,2.91-18.21,14-15.63,18.12,2.34,3.71,14.33-8.29,14.33-8.29s-14.24,10.21-10.6,14.16,16.76-10.76,16.76-10.76-14.4,10.82-10,14.3c3.33,2.63,16-10,16-10s-12.32,9.39-9,12.24c3.65,3.15,16.05-7.8,16.05-7.8,9.61,5.84,16.57,4.69,21.42,3.28C387.35,218,380.42,193.12,380.42,193.12Z" style="fill: rgb(235, 148, 129);"></path><path d="M350.31,199.08c-1.72,1.14-3.47,2.28-5.08,3.56s-3.17,2.64-4.65,4.07a34.73,34.73,0,0,0-5.24,6.12c3-3.77,8.65-8.47,10.26-9.76s3.15-2.65,4.76-3.93A0,0,0,1,0,350.31,199.08Z" style="fill:#263238"></path><path d="M355.06,204.8c-2.13,1.55-4.3,3-6.36,4.66s-3.86,3.36-5.79,5.14c-.15.13,0,.17.13,0,2-1.7,4-3.11,6-4.78s4-3.42,6.05-5C355.13,204.83,355.09,204.78,355.06,204.8Z" style="fill:#263238"></path><path d="M360,209a59.23,59.23,0,0,0-9.18,7.85c-.14.15,0,.17.18,0,3-2.67,5.34-4.79,9.08-7.78C360.16,209.06,360.1,208.94,360,209Z" style="fill:#263238"></path><path d="M376.06,191.2l10.4,28.38s28.9,1.54,33.14-5.49-20.37-44.67-37.5-58.3-12.25-1.17-9.59,5.37,13.8,29.71,13.8,29.71Z" style="fill:#C53F51"></path><path d="M376.06,191.2l10.4,28.38s28.9,1.54,33.14-5.49-20.37-44.67-37.5-58.3-12.25-1.17-9.59,5.37,13.8,29.71,13.8,29.71Z" style="opacity:0.1"></path><path d="M384,192.83c1.49,3.2,2.73,6.53,4,9.81s2.45,6.57,3.59,9.88c.66,1.92,1.27,3.85,1.94,5.76,0,.06-.09.1-.11,0-1.24-3.3-2.61-6.57-3.88-9.86s-2.47-6.55-3.67-9.84c-.7-1.91-1.42-3.8-2-5.73A.08.08,0,0,1,384,192.83Z" style="fill:#263238"></path><path d="M369.72,150c-.3,1-5.47,7-10,6.48-1.46-.18-.84-8.2-.84-8.2l-.09-.6-1.25-8.44,10.21-5.54,1.47-.73s.19,2.34.4,5.24l0,.41c0,.17,0,.32,0,.48,0,.43.07.87.09,1.31s.05.67.06,1,0,.7,0,1.05A53.11,53.11,0,0,1,369.72,150Z" style="fill: rgb(235, 148, 129);"></path><path d="M369.66,138.17a17.14,17.14,0,0,1-10.83,9.47l-1.25-8.44,10.21-5.54,1.47-.73S369.45,135.27,369.66,138.17Z" style="fill:#263238"></path><path d="M346,126.52c-1.85,14.85,6.84,17.64,10,18,2.91.36,12.85,1.22,16.23-13.37s-2.95-20.13-9.55-21.3S347.85,111.67,346,126.52Z" style="fill: rgb(235, 148, 129);"></path><path d="M370.94,131.06c-3.43-.37-2.78-5.76-2.78-5.76s-3.84-.81-3.4-7.11a9.57,9.57,0,0,1-7.67,3.73C356,122,360,119.5,360,119.5s-4.95,3.53-13.08,1c-.57-.17,1.15-9.72,8-12s13.09,1.06,16.65,5.64c0,0,4.84,3.82,4.85,8.4S372.27,131.2,370.94,131.06Z" style="fill:#263238"></path><path d="M368.45,131.06s3.44-4.55,5.52-3.31-.64,7.92-3.16,8.75a2.51,2.51,0,0,1-3.33-1.48Z" style="fill: rgb(235, 148, 129);"></path><path d="M373.14,129.65s.05,0,0,.06a6.44,6.44,0,0,0-3.45,3.88,1.39,1.39,0,0,1,2.1-.3c.05,0,0,.1-.05.09a1.54,1.54,0,0,0-1.73.48,7.07,7.07,0,0,0-.87,1.35c-.09.15-.37.06-.3-.12v0C368.9,132.83,370.75,129.78,373.14,129.65Z" style="fill:#263238"></path><path d="M348.39,123.94a9.28,9.28,0,0,0,1.05-.08,1.64,1.64,0,0,0,1-.28.53.53,0,0,0,.09-.65,1.33,1.33,0,0,0-1.26-.49A2,2,0,0,0,348,123,.58.58,0,0,0,348.39,123.94Z" style="fill:#263238"></path><path d="M358.25,125.5a9,9,0,0,1-1,0,1.72,1.72,0,0,1-1.07-.19.55.55,0,0,1-.14-.64,1.34,1.34,0,0,1,1.22-.59,1.94,1.94,0,0,1,1.35.41A.58.58,0,0,1,358.25,125.5Z" style="fill:#263238"></path><path d="M355.87,127.49s.08.06.07.1c-.19,1-.24,2.21.63,2.69,0,0,0,.07,0,.06C355.45,130,355.53,128.42,355.87,127.49Z" style="fill:#263238"></path><path d="M357,126.57c1.65.13,1.27,3.43-.26,3.31S355.56,126.46,357,126.57Z" style="fill:#263238"></path><path d="M357.58,126.82c.26.22.51.58.85.66s.74-.22,1.05-.53c0,0,0,0,0,0-.07.63-.39,1.25-1.08,1.27s-1-.6-1.09-1.25C357.35,126.89,357.47,126.73,357.58,126.82Z" style="fill:#263238"></path><path d="M350.25,126.34s-.09,0-.09.09c-.08,1-.34,2.19-1.31,2.43,0,0,0,0,0,0C350,128.88,350.34,127.33,350.25,126.34Z" style="fill:#263238"></path><path d="M349.45,125.17c-1.64-.3-2.12,3-.61,3.27S350.82,125.43,349.45,125.17Z" style="fill:#263238"></path><path d="M348.73,125.29c-.29.14-.59.41-.9.39s-.58-.43-.76-.8c0,0-.05,0-.06,0-.11.62,0,1.31.59,1.52s1-.29,1.26-.89C348.91,125.42,348.85,125.23,348.73,125.29Z" style="fill:#263238"></path><path d="M356.16,136.94c-.23.25-.46.6-.83.65a2.68,2.68,0,0,1-1.12-.2s-.07,0,0,.06a1.37,1.37,0,0,0,1.33.48,1.09,1.09,0,0,0,.76-1C356.27,136.92,356.19,136.9,356.16,136.94Z" style="fill:#263238"></path><path d="M351.06,131.88s-.44,1.56-.55,2.31a15.81,15.81,0,0,1,4.24,1.24c.32.16.35-.12,0-.4a6.41,6.41,0,0,0-3.52-1.4c0-.22.73-2.39.61-2.42a6.94,6.94,0,0,0-1.76.15c.84-3.27,2-5.85,2.74-9.12a.1.1,0,0,0-.19-.08,49.08,49.08,0,0,0-3.4,9.73C349.12,132.31,350.75,132,351.06,131.88Z" style="fill:#263238"></path><path d="M352.23,134.5s.79,1.53,1.9,1.86c1.27.37,1.58-.78.23-1.63A3.91,3.91,0,0,0,352.23,134.5Z" style="fill:#263238"></path><path d="M354.12,136.35a2.71,2.71,0,0,1-1.21-.86c.33-.37,1-.73,2.3.2C355.35,136.22,354.93,136.59,354.12,136.35Z" style="fill:#ff99ba"></path><path d="M358.81,149.43l3.08,6.69,8.05-9.05,2.54,2.65s-7.62,14.13-7.7,13.51l-3.1-5.74-3.86,4.29-.18-10.29Z" style="fill:#ebebeb"></path><path d="M357.44,156.7c0-1.7,0-3.41.12-5.11,0-.06.09-.09.11,0,.42,1.62.28,8.12.37,9.67v0c.16-.18,3.59-3.79,3.63-3.73.65.9,2.93,5.08,3.09,5.47,1.2-2.25,5.84-10.42,7.29-12.56a.06.06,0,0,1,.1.06c-1,2.36-7.17,13.35-7.27,13.33a66.71,66.71,0,0,1-3.25-6.08,45.2,45.2,0,0,1-4,4.57A51.92,51.92,0,0,1,357.44,156.7Z" style="fill:#263238"></path></g><g id="freepik--character-1--inject-65"><path d="M198.18,443.92c-2.31.72-67.81-.68-70.27-2.31-.94-.61-1.29-10.17-1.39-21.72,0-2.5,0-5.06,0-7.69,0-3.1,0-6.23.07-9.28.17-13.68.58-25.72.58-25.72l42.65.79-.5,25.72-.18,9.28-.37,7.68s24.84,11.76,27.35,13.84S200.48,443.22,198.18,443.92Z" style="fill:#f7a9a0"></path><path d="M198.18,443.92c-2.31.72-67.81-.68-70.27-2.31-.94-.61-1.29-10.17-1.39-21.72,0-2.5,0-5.06,0-7.69,0-3.1,0-6.23.07-9.28l42.73.79-.18,9.28-.37,7.68s24.84,11.76,27.35,13.84S200.48,443.22,198.18,443.92Z" style="fill:#fff"></path><path d="M198.37,444c-1.5.46-29.4,0-49.71-.75-4.69-.19-9-.4-12.46-.61-4.77-.31-8-.63-8.49-1-1.14-.77-1.43-14.79-1.42-29.57l42.86.79-.37,7.72s25,11.82,27.5,13.91S200.68,443.3,198.37,444Z" style="fill:#37474f"></path><path d="M197.49,441.37c-11-.51-55.6-1.51-66.54-1.17-.09,0-.09.06,0,.07,10.92.74,55.49,1.38,66.53,1.28C197.71,441.55,197.72,441.38,197.49,441.37Z" style="fill:#263238"></path><path d="M170.39,418.22c-4.32-.9-9.65-.35-13,2.68-.13.11,0,.3.18.26a61.5,61.5,0,0,1,12.83-2.39A.28.28,0,0,0,170.39,418.22Z" style="fill:#263238"></path><path d="M173.49,420.18c-4.33-.9-9.66-.35-13,2.67-.13.12,0,.31.18.27a60.62,60.62,0,0,1,12.83-2.39A.28.28,0,0,0,173.49,420.18Z" style="fill:#263238"></path><path d="M176.59,422.14c-4.33-.91-9.66-.35-13.05,2.67-.13.12,0,.3.18.26a60.82,60.82,0,0,1,12.84-2.38A.28.28,0,0,0,176.59,422.14Z" style="fill:#263238"></path><path d="M179.68,424.1c-4.33-.91-9.65-.36-13,2.67-.13.12,0,.3.18.26a61.38,61.38,0,0,1,12.83-2.39A.27.27,0,0,0,179.68,424.1Z" style="fill:#263238"></path><path d="M164.85,443.79c-5.51-.14-11.09-.32-16.19-.52-4.7-.18-9-.39-12.46-.61-4.77-.3-8-.62-8.49-1-1-.66-1.35-11.5-1.4-24.11C136,424.08,155.13,437.14,164.85,443.79Z" style="fill:#263238"></path><path d="M173,420.14l-48.66.05S127,310.66,126.45,308.1C125.19,302,97.52,205.43,97.52,205.43l38.42.66,10.34.23s1.65,16.08,2.11,17.79c6.43,23.43,19,63.43,21.52,78.27C174.34,328.08,173,420.14,173,420.14Z" style="fill:#263238"></path><path d="M171.39,412c-7.59-.19-34.48-1-44.6-.24a.08.08,0,0,0,0,.15c3.46.56,37,.4,44.6.3A.11.11,0,1,0,171.39,412Z" style="fill:#37474f"></path><path d="M130.26,305.68c-1.45-5.92-12.29-42.81-15.6-54.46s-6.43-23.36-9.29-35.12c-.36-1.49-.73-3-1.13-4.46,0-.13-.21-.07-.19.05,1.1,5.92,2.54,11.8,3.94,17.66s2.87,11.7,4.44,17.52q4.71,17.55,10.28,34.84c1.85,5.75,4.91,17.54,6.54,23.36s-1,101.2-.86,102.75a.35.35,0,0,0,.69,0C129.29,396.57,131.7,311.53,130.26,305.68Z" style="fill:#37474f"></path><path d="M136,206.09s-9.4,102.5-9.5,102c-1.21-5.89-27.23-96.71-28.86-102.39-.06-.18-.08-.27-.08-.27Z" style="fill:#37474f"></path><path d="M147.71,449.54c-2.31.72-67.81-.69-70.27-2.31-.94-.61-1.29-10.17-1.39-21.72,0-2.5,0-5.07,0-7.69,0-3.1,0-6.24.06-9.29.17-13.68.58-25.72.58-25.72l42.65.79-.5,25.72-.18,9.28-.37,7.69s24.84,11.76,27.35,13.84S150,448.83,147.71,449.54Z" style="fill:#f7a9a0"></path><path d="M147.71,449.54c-2.31.72-67.81-.69-70.27-2.31-.94-.61-1.29-10.17-1.39-21.72,0-2.5,0-5.07,0-7.69,0-3.1,0-6.24.06-9.29l42.73.79-.18,9.28-.37,7.69s24.84,11.76,27.35,13.84S150,448.83,147.71,449.54Z" style="fill:#fff"></path><path d="M147.9,449.64c-1.5.46-29.4.05-49.71-.75-4.69-.19-9-.4-12.46-.61-4.77-.31-8-.63-8.49-1-1.14-.76-1.43-14.78-1.42-29.57l42.86.79-.37,7.73s25,11.82,27.5,13.91S150.21,448.91,147.9,449.64Z" style="fill:#37474f"></path><path d="M147,447c-11-.51-55.59-1.52-66.54-1.18-.09,0-.09.06,0,.07,10.92.74,55.49,1.39,66.53,1.29C147.24,447.17,147.25,447,147,447Z" style="fill:#263238"></path><path d="M119.92,423.84c-4.32-.91-9.65-.35-13,2.67-.13.12,0,.3.18.26a60.82,60.82,0,0,1,12.84-2.38A.28.28,0,0,0,119.92,423.84Z" style="fill:#263238"></path><path d="M123,425.79c-4.33-.9-9.66-.35-13,2.68-.13.12,0,.3.18.26A61.26,61.26,0,0,1,123,426.34.28.28,0,0,0,123,425.79Z" style="fill:#263238"></path><path d="M126.12,427.75c-4.33-.9-9.66-.35-13.05,2.68-.13.11,0,.3.18.26a61.47,61.47,0,0,1,12.84-2.39A.28.28,0,0,0,126.12,427.75Z" style="fill:#263238"></path><path d="M129.21,429.71c-4.33-.9-9.65-.35-13,2.67-.13.12,0,.3.18.26a60.72,60.72,0,0,1,12.83-2.38A.28.28,0,0,0,129.21,429.71Z" style="fill:#263238"></path><path d="M128.16,414c-1.65-2.39-4.85-1.4-6.7.09a23.22,23.22,0,0,0-6.91,9.81c0,.09,0,.14.1.16,0,.33.3.68.67.55,3.62-1.25,7.64-2.14,10.76-4.46C127.91,418.75,129.73,416.22,128.16,414Zm-7.74,7.6c-1.77.65-3.55,1.22-5.29,1.95a67.13,67.13,0,0,1,4.16-5.64,25.82,25.82,0,0,1,2.35-2.44c1.32-1.15,6.49-3.54,5.63,1.21C126.79,419.26,122.52,420.77,120.42,421.56Z" style="fill:#263238"></path><path d="M103.54,422.49c3.54,1.6,7.66,1.61,11.46,2.06.4.05.6-.36.54-.69a.11.11,0,0,0,.06-.17,23.15,23.15,0,0,0-8.84-8.11c-2.12-1.06-5.46-1.34-6.57,1.35S101.47,421.55,103.54,422.49Zm-1.9-3.14c-1.86-4.46,3.7-3.22,5.23-2.38a24.37,24.37,0,0,1,2.83,1.88,69.79,69.79,0,0,1,5.26,4.62c-1.85-.34-3.71-.51-5.58-.78C107.16,422.37,102.67,421.8,101.64,419.35Z" style="fill:#263238"></path><path d="M121.15,425.1l-47.22-.87S87.19,253.92,85.54,244.9c-2.7-14.77.27-28.25,4.2-39.63l48.52.85s.67,12.93-4.22,20.55c0,0-4.36,2.65-6.48,3.82Z" style="fill:#263238"></path><path d="M119.85,416.72c-7.16-.32-5.1-.33-12.26-.57-3.51-.12-26.54-.87-29.83-.4-.07,0-.08.13,0,.14,3.26.62,26.3,1,29.81,1,7.17.1,5.11,0,12.28,0A.11.11,0,0,0,119.85,416.72Z" style="fill:#37474f"></path><path d="M137,224.66a88.24,88.24,0,0,0-13.08,7.42.15.15,0,0,0,.16.26c4.42-2.34,8.94-4.61,13.22-7.18C137.59,225,137.3,224.5,137,224.66Z" style="fill:#37474f"></path><path d="M131.1,223.88a21.44,21.44,0,0,0-.67,2.71,5.82,5.82,0,0,0-.18,2.19.16.16,0,0,0,.29,0,7.53,7.53,0,0,0,.76-2.18c.23-.84.48-1.68.7-2.52C132.14,223.55,131.28,223.34,131.1,223.88Z" style="fill:#37474f"></path><path d="M130.77,219.44c.14-.76.28-1.53.43-2.29s.37-1.58.47-2.38c0-.12.22-.08.19,0-.13.76-.16,1.56-.24,2.33s-.16,1.56-.25,2.33c-.18,1.45-.45,2.91-.76,4.33a5,5,0,0,0,2.13-.84,4.08,4.08,0,0,0,1.17-2.19c.24-.87.45-1.76.71-2.63a17.41,17.41,0,0,0,.72-2.93c0-.13.22-.09.2,0a31.16,31.16,0,0,1-1.29,6.18,3.42,3.42,0,0,1-1.19,2,6.85,6.85,0,0,1-2.59.71c-.1,0-.26,0-.25-.13C130.34,222.52,130.5,221,130.77,219.44Z" style="fill:#37474f"></path><path d="M93,244.45c-.27-3.39-.76-6.76-1.07-10.14-.61-6.81.47-13.5,1.6-20.23.27-1.56-.46-.77-.48-.64a79.44,79.44,0,0,0-1.84,18.33c.18,6,1.13,11.87,1.11,17.85s-.6,12.1-1.1,18.13-1,12.13-1.51,18.2c-2,24.38-3.92,48.77-5.86,73.16-.54,6.81-1,13.62-1.57,20.43s-1.33,24-1.72,31c0,.6.86.57.92,0,1.26-12.22,2.28-34.68,3.29-46.93s1.93-24.26,2.9-36.4,1.92-24.26,2.87-36.39c.47-6.07.92-12.13,1.39-18.2s1-12.09,1.22-18.15A89.65,89.65,0,0,0,93,244.45Z" style="fill:#37474f"></path><path d="M109.89,214c0-.07-.14-.1-.18,0a7.81,7.81,0,0,0-.49,2.47,17,17,0,0,1-.67,2.66,10.62,10.62,0,0,1-2.85,4.6c-3,2.65-6.84,3.58-10.6,4.43-.14,0-.09.22,0,.23a16.73,16.73,0,0,0,6.54-.9,13.71,13.71,0,0,0,5.09-2.72,9.38,9.38,0,0,0,2.8-4.87,16.52,16.52,0,0,0,.37-3c0-.48,0-1,0-1.45A4,4,0,0,0,109.89,214Z" style="fill:#37474f"></path><path d="M126.83,152.71c6.91,10,23.88,36,37.44,35,11.6-.78,35.12-8.77,39.89-11,8.86-4.22-5-29.46-10.39-27.51-8.65,3.1-20.59,11.55-29.72,12.82-3.73.52-11.77-6.25-29.41-16.74C125.13,139.64,122.23,146.06,126.83,152.71Z" style="fill:#f7a9a0"></path><path d="M203.57,141.4c4.74-.89,10.11-2.29,15.09-1.42s8.11,8.12,7.81,10-4,13.38-9,12.6-.57-9.36-.6-10.43,0-2.42-1-2.47-18.68,5.2-18.68,5.2Z" style="fill:#f7a9a0"></path><path d="M203.78,142.14c.28,0,14.49-3.15,19.47-2.28s8.11,8.12,7.81,10-4,13.37-9,12.6-.57-9.36-.6-10.43,0-2.42-1-2.47-18.68,5.2-18.68,5.2Z" style="fill:#f7a9a0"></path><path d="M220.45,161.57a6.06,6.06,0,0,1-.37-3.08,10.45,10.45,0,0,1,.68-3.17,16.14,16.14,0,0,0,1-2.65,5.48,5.48,0,0,0-.28-2.75c-.28-.76-1-.64-1.71-.51a24.57,24.57,0,0,0-2.91.8c-1,.33-2,.67-3.08,1a25.19,25.19,0,0,0-3.15,1.14c-.07,0,0,.16,0,.14a26.05,26.05,0,0,0,2.72-.74c1-.3,2-.59,3.06-.86s1.9-.57,2.86-.82a3,3,0,0,1,1.38-.18c.37.14.41,1.11.45,1.43a4.82,4.82,0,0,1-.6,2.67,14.75,14.75,0,0,0-.94,2.66,7.29,7.29,0,0,0-.2,2.63,10.27,10.27,0,0,0,.86,2.34C220.33,161.75,220.51,161.67,220.45,161.57Z" style="fill:#263238"></path><path d="M185.88,152.78S201.7,142.32,205,140.26c6.57-4.12,32.48-10.28,35.93-10.11s3.59,7.32-14.07,12c-9.31,2.46-11.64,7.2-11.9,10s1.57,8.35,6.24,8.95,8.75-5.72,13.14-5.8.35,7.3-3.37,11.36a28.91,28.91,0,0,1-14,7.81c-4.26.89-17.55,4.31-17.55,4.31Z" style="fill:#f7a9a0"></path><path d="M227.45,158.7c-2,1.09-4.22,2.53-6.54,2.26s-3.7-2.07-4.5-4.18a9,9,0,0,1-.22-6.63,10.92,10.92,0,0,1,4-4.72,26.6,26.6,0,0,1,6.95-3.21c.11,0,.05-.19-.07-.16-2.29.62-9.37,2.31-11.62,8a9.17,9.17,0,0,0,.28,6.76c.74,2,2,4,4.19,4.56,2.71.65,5.43-1.21,7.66-2.57C227.68,158.73,227.56,158.65,227.45,158.7Z" style="fill:#263238"></path><path d="M184.72,152.14l11,30.87S171,190.9,160,188.67s-26-23.23-32.62-33.65c-7.19-11.37-1.52-16.15,10.34-8.81s24.93,15.15,26.08,15.15S184.72,152.14,184.72,152.14Z" style="fill:#37474f"></path><path d="M179.33,155.48a34.62,34.62,0,0,0,1,3.72c.35,1.23.68,2.47,1,3.7.71,2.37,1.48,4.72,2.27,7.06A146.72,146.72,0,0,0,189,183.84c0,.1.2,0,.16-.07-1.52-4.79-3.27-9.51-4.91-14.27-.8-2.34-1.59-4.69-2.39-7-.4-1.17-.83-2.33-1.22-3.5a35.93,35.93,0,0,0-1.2-3.54C179.41,155.37,179.32,155.42,179.33,155.48Z" style="fill:#263238"></path><path d="M166.81,189a28,28,0,0,1-6.86-.35c-11-2.22-26-23.22-32.62-33.64-4.23-6.7-4-11.11-.69-12.09C135.93,153.32,154.57,174.34,166.81,189Z" style="fill:#263238"></path><path d="M146.72,215.72c-.94,1-60.21-.35-60.51-.73-.81-1,14.93-62.21,28.51-72.6,2.91-2.23,13.89-1.62,15.39-1,1.69.7,6.33,9,8.37,15.71C142.57,170.55,147.53,214.86,146.72,215.72Z" style="fill:#ebebeb"></path><polygon points="125.05 155.46 127.92 150.66 131.37 154.62 130.41 158.45 126.89 158.81 125.05 155.46" style="fill:#C53F51"></polygon><polygon points="126.89 158.81 124.27 198.16 131.34 211.36 135.52 196.79 130.41 158.45 126.89 158.81" style="fill:#C53F51"></polygon><path d="M152.1,229.2s-7.81-.15-18.25-.4c-.8-3.68-2.54-12.67-2.69-12.67-.11.2-2.74,9-3.58,12.53-10.14-.25-21.62-.55-30.66-.86s-15.79-.62-16.15-.89,4.4-12.5,4.92-14.3c4-14.25,11.09-42.51,16.77-53.09a97.54,97.54,0,0,1,8.71-13.75c.34-.41.64-.8.93-1.15l2.09-2.51,17,33.07c0-.65,1.26-31.06,1.26-31.06.89,1.24,6.06,8.91,9.36,24.54,3.36,15.89,5.68,37.8,6.92,48.76C148.77,217.42,152.09,229,152.1,229.2Z" style="fill:#37474f"></path><path d="M131.23,175.18c.2,3.41.29,6.82.37,10.24s.09,6.82.1,10.24,0,6.82-.14,10.23l-.14,5.12c-.09,1.71-.14,3.42-.26,5.12-.11-1.7-.15-3.41-.23-5.12l-.13-5.12c-.09-3.41-.1-6.82-.1-10.24s0-6.82.13-10.23S131,178.59,131.23,175.18Z" style="fill:#263238"></path><path d="M129.43,187.26a1.71,1.71,0,1,1-1.76-1.66A1.71,1.71,0,0,1,129.43,187.26Z" style="fill:#263238"></path><path d="M129.13,196.91a1.71,1.71,0,1,1-1.76-1.65A1.7,1.7,0,0,1,129.13,196.91Z" style="fill:#263238"></path><path d="M128.83,206.57a1.71,1.71,0,1,1-1.76-1.65A1.7,1.7,0,0,1,128.83,206.57Z" style="fill:#263238"></path><path d="M110.08,145.09c-15,9.73-45.94,34.47-42.2,43.87,6.16,15.47,27.71,34.68,34.75,39.77,3,2.19,23.68-18.34,21.18-21.48-3-3.76-26.89-22.15-26-24.42.54-1.28,7.44-11.16,15-24.31C121.65,143.26,117.23,140.45,110.08,145.09Z" style="fill:#f7a9a0"></path><path d="M112.05,201.24s11.4.55,18.83,1.26c4.15.4,11.2,1.72,14.11,3.4,4.36,2.53,21,15.86,17.83,19.95-2.85,3.71-15.67-9.55-15.67-9.55s14.12,12.24,9.87,16.08-16.74-13.08-16.74-13.08,14.22,12.9,9.22,16.16c-3.79,2.47-16-12.21-16-12.21s12.15,11.17,8.37,13.88c-4.18,3-16.27-9.86-16.27-9.86-10.77,5.25-18,3.34-23.06,1.37C101.35,228.17,112.05,201.24,112.05,201.24Z" style="fill:#f7a9a0"></path><path d="M142.54,211.75c1.71,1.38,3.45,2.76,5,4.29s3.11,3.11,4.55,4.77a38.51,38.51,0,0,1,5,7c-2.78-4.29-8.36-9.84-9.94-11.36s-3.08-3.13-4.66-4.65C142.44,211.77,142.5,211.72,142.54,211.75Z" style="fill:#263238"></path><path d="M136.93,217.36c2.1,1.86,4.27,3.62,6.29,5.57s3.76,3.95,5.64,6c.15.16,0,.19-.14,0-2-2-3.92-3.69-5.91-5.67s-3.89-4-5.93-5.91C136.85,217.38,136.89,217.34,136.93,217.36Z" style="fill:#263238"></path><path d="M131.24,221.32a62.29,62.29,0,0,1,9,9.24c.14.17,0,.18-.19,0-2.92-3.13-5.2-5.61-8.88-9.15C131.09,221.38,131.17,221.26,131.24,221.32Z" style="fill:#263238"></path><path d="M116.26,199.17,97.39,226.7S65.4,196.09,67,186.47s23.58-29.3,40.09-40.14,10.62,4.51,7.55,10.29-15.32,25.15-15.32,25.15Z" style="fill:#37474f"></path><path d="M111.42,197.36a32.11,32.11,0,0,0-2.32,2.75c-.77.93-1.54,1.84-2.29,2.78-1.45,1.81-2.84,3.65-4.21,5.51a135.73,135.73,0,0,0-7.82,11.53c0,.08.09.16.14.09,2.88-3.73,5.57-7.6,8.35-11.4L107.4,203c.68-.94,1.35-1.89,2-2.81s1.49-1.82,2.08-2.81C111.55,197.36,111.47,197.32,111.42,197.36Z" style="fill:#263238"></path><path d="M116.64,199c-1.9-2.07-17.07-17.27-17.06-17.28,3-4.39,5.76-9,8.46-13.61.37-.44.74-.89,1.1-1.34.62-.78,1.19-1.6,1.82-2.38,0,0,0,0,0,0-.66.74-1.36,1.46-2,2.23l0,0q1.29-2.21,2.54-4.42c0-.07-.07-.14-.12-.08-4.24,6.32-12.42,19.49-12.28,19.68,1.5,1.94,15.33,15.58,17.09,17.35,0,0-.5.83-.4.84A4.41,4.41,0,0,0,116.64,199Z" style="fill:#263238"></path><path d="M129.65,151.15c-3.36,1.28-9.93-2.88-12.85-6.86-.2-.28-.16-3.44-.3-7.29-.09-2.33-.25-4.93-.56-7.29-.07-.48,15.27,1.63,15.27,1.63a38.19,38.19,0,0,0-.22,9.25,5.5,5.5,0,0,0,.23.95l.05.16C131.81,143.5,132.89,149.91,129.65,151.15Z" style="fill:#f7a9a0"></path><path d="M116.86,129.65c1.21,3.9,5,13.21,12.9,12.33a8.91,8.91,0,0,0,1.5-.28.62.62,0,0,0,0-.16,5.5,5.5,0,0,1-.23-.95,38.26,38.26,0,0,1,.22-9.26S120.15,129.81,116.86,129.65Z" style="fill:#263238"></path><path d="M113.66,110.75c-1.64,5.29,1.07,20.59,4.82,24,5.43,5,14.37,5.49,18.6-1.05,4.1-6.34.21-26.22-4-29.34C126.93,99.78,116.09,103,113.66,110.75Z" style="fill:#f7a9a0"></path><path d="M128.47,120.25s-.07.06-.06.11c.21,1,.28,2.23-.6,2.74,0,0,0,.06,0,.05C128.94,122.79,128.83,121.19,128.47,120.25Z" style="fill:#263238"></path><path d="M127.36,119.33c-1.68.16-1.23,3.51.32,3.36S128.77,119.2,127.36,119.33Z" style="fill:#263238"></path><path d="M134.29,119.63s.09,0,.1.08c.1,1,.4,2.22,1.38,2.44,0,0,0,.06,0,.06C134.6,122.2,134.23,120.64,134.29,119.63Z" style="fill:#263238"></path><path d="M135.08,118.42c1.65-.34,2.22,3,.69,3.31S133.69,118.72,135.08,118.42Z" style="fill:#263238"></path><path d="M125.74,117.59a10.71,10.71,0,0,0,1.38.12,2.22,2.22,0,0,0,1.44-.14.71.71,0,0,0,.25-.83,1.75,1.75,0,0,0-1.55-.91,2.62,2.62,0,0,0-1.83.4A.76.76,0,0,0,125.74,117.59Z" style="fill:#a6a6a6"></path><path d="M136.44,116.08a12.5,12.5,0,0,1-1.37-.17,2.25,2.25,0,0,1-1.38-.44.72.72,0,0,1-.07-.87,1.77,1.77,0,0,1,1.71-.56,2.55,2.55,0,0,1,1.7.78A.76.76,0,0,1,136.44,116.08Z" style="fill:#a6a6a6"></path><path d="M128.3,130.43c.28.21.57.51.95.49a2.62,2.62,0,0,0,1.08-.4,0,0,0,0,1,.06,0,1.42,1.42,0,0,1-1.25.74,1.12,1.12,0,0,1-.94-.81C128.18,130.43,128.26,130.4,128.3,130.43Z" style="fill:#263238"></path><path d="M133.45,125.29s.31,1.59.35,2.35a15.63,15.63,0,0,0-4.32.89c-.33.13-.34-.15,0-.39a6.38,6.38,0,0,1,3.62-1.12c0-.21-.53-2.44-.41-2.45a6.62,6.62,0,0,1,1.73.28c-.56-3.32-1.65-6.54-2.15-9.86a.1.1,0,0,1,.19-.06,54.88,54.88,0,0,1,2.78,10.53C135.34,125.88,133.76,125.41,133.45,125.29Z" style="fill:#263238"></path><path d="M132.07,127.81a4.17,4.17,0,0,1-2,1.7c-1.3.26-1.51-.9-.11-1.65A4,4,0,0,1,132.07,127.81Z" style="fill:#263238"></path><path d="M130,129.5a2.6,2.6,0,0,0,1.28-.76c-.29-.39-.94-.81-2.3,0C128.82,129.28,129.21,129.67,130,129.5Z" style="fill:#ff99ba"></path><g style="opacity:0.2"><path d="M128.8,112.81a11.35,11.35,0,0,0,1.65-.12c.55-.11,1.07-.32,1.62-.41a9,9,0,0,1,3.14.2c.09,0,.09.07,0,.06a7.81,7.81,0,0,0-3.3,0,9.84,9.84,0,0,1-2.69.45,9.91,9.91,0,0,0-5.89,1.52s0,0,0,0A9.82,9.82,0,0,1,128.8,112.81Z"></path><path d="M128.55,111.36a10.15,10.15,0,0,0,1.56-.12c.52-.1,1-.3,1.54-.38a8.38,8.38,0,0,1,3,.18c.08,0,.08.07,0,.06a7.46,7.46,0,0,0-3.12,0,9.27,9.27,0,0,1-2.55.43,9.37,9.37,0,0,0-5.59,1.45s0,0,0,0A9.35,9.35,0,0,1,128.55,111.36Z"></path></g><path d="M136.14,109.6c-.55-1.44-1.69-2.67-3-2.62s-1.94,1.83-4,2.09-4-.76-5.51-.67a5.56,5.56,0,0,0-5.35,4.08c-.94,3.42.12,5.11-.73,8.54-.77,3-2,3.78-3.27,3.84-1.17-5.3-1.84-12.21-.94-15.1,2.43-7.82,13.53-10,19.7-5.38C134.18,105.18,135.24,107.1,136.14,109.6Z" style="fill:#a6a6a6"></path><path d="M136.24,109.86v0l0-.13Z" style="fill:#c7c7c7"></path><path d="M126.89,125.47a4.45,4.45,0,1,1,4.23-5.61h0a4.46,4.46,0,0,1-3.14,5.46A4.09,4.09,0,0,1,126.89,125.47Zm-.13-8.31a4,4,0,0,0-1,.14,3.83,3.83,0,1,0,1-.14Z" style="fill:#455a64"></path><path d="M137,124.08c-1.7,0-3.28-1.7-3.58-4a5.37,5.37,0,0,1,.52-3.21,3,3,0,0,1,2.18-1.64,2.92,2.92,0,0,1,2.53,1,5.3,5.3,0,0,1,1.34,3c.32,2.43-.89,4.61-2.7,4.85Zm-.57-8.28-.23,0a2.37,2.37,0,0,0-1.73,1.33A4.73,4.73,0,0,0,134,120c.28,2.11,1.71,3.67,3.2,3.47s2.47-2.07,2.19-4.18a4.64,4.64,0,0,0-1.18-2.63A2.44,2.44,0,0,0,136.44,115.8Z" style="fill:#455a64"></path><path d="M131,120.39l-.44-.4c.59-.65,2-1.61,3.27-.6l-.37.46C132.39,118.94,131.09,120.33,131,120.39Z" style="fill:#455a64"></path><path d="M111.52,124.12l-.56-.2c.09-.26,1-2.56,2.25-3s9.21-.66,9.55-.67l0,.59c-2.29.08-8.47.37-9.4.65S111.75,123.49,111.52,124.12Z" style="fill:#455a64"></path><path d="M117.81,123.5s-3.53-4.89-5.76-3.62.48,8.39,3.13,9.33a2.68,2.68,0,0,0,3.57-1.49Z" style="fill:#f7a9a0"></path><path d="M112.88,121.9a0,0,0,0,0,0,.07c1.86.72,2.86,2.42,3.57,4.18a1.49,1.49,0,0,0-2.22-.37s0,.11.05.1a1.65,1.65,0,0,1,1.82.55,7.43,7.43,0,0,1,.89,1.45c.09.17.39.07.32-.11v0C117.29,125.37,115.41,122.1,112.88,121.9Z" style="fill:#263238"></path><path d="M131,140.71l-3.55,8.82-11-11.17-3.1,3.58s10.71,17.74,10.78,16.94l3.64-7.6,5.24,5.29-.41-13.28Z" style="fill:#ebebeb"></path><path d="M133.23,150c-.14-2.19-.23-4.4-.47-6.58,0-.08-.13-.11-.15,0-.44,2.12.15,10.49.14,12.5l0,0c-.22-.23-4.87-4.66-4.91-4.59-.79,1.21-3.46,6.74-3.65,7.25-1.69-2.82-8.88-13.93-10.89-16.6,0-.08-.17,0-.13.08,1.5,3,10.79,17.64,10.92,17.6a86.2,86.2,0,0,0,3.81-8c.78,1,5.47,6,5.49,5.64A69.59,69.59,0,0,0,133.23,150Z" style="fill:#263238"></path></g><g id="freepik--Lecterns--inject-65"><rect x="64.57" y="214.44" width="136.59" height="14.08" style="fill:#455a64"></rect><polygon points="200.81 454.94 65.92 454.94 74.92 228.52 190.81 228.52 200.81 454.94" style="fill:#455a64"></polygon><polygon points="183.65 426.13 83.08 426.13 89.8 257.33 176.19 257.33 183.65 426.13" style="fill:#263238"></polygon><polygon points="183.65 426.13 87.5 426.13 93.91 261 176.52 261 183.65 426.13" style="fill:#37474f"></polygon><polygon points="191.27 239.24 74.37 242.26 74.92 228.53 190.8 228.53 191.27 239.24" style="fill:#37474f"></polygon><rect x="164.93" y="211.18" width="18.5" height="3.26" style="fill:#263238"></rect><polygon points="173.69 212.15 169.63 180.55 159.07 167.55 159.85 166.92 170.59 180.14 174.68 212.03 173.69 212.15" style="fill:#263238"></polygon><path d="M156.8,164.92c1.69-1.63,5.57,2.13,3.73,3.89S155.28,166.38,156.8,164.92Z" style="fill:#263238"></path><rect x="298.84" y="214.44" width="136.59" height="14.08" transform="translate(734.27 442.97) rotate(180)" style="fill:#455a64"></rect><polygon points="299.19 454.94 434.08 454.94 425.08 228.52 309.19 228.52 299.19 454.94" style="fill:#455a64"></polygon><polygon points="316.36 426.13 416.92 426.13 410.2 257.33 323.81 257.33 316.36 426.13" style="fill:#263238"></polygon><polygon points="320.32 426.13 416.92 426.13 410.47 260.63 327.48 260.63 320.32 426.13" style="fill:#37474f"></polygon><polygon points="308.73 239.24 425.63 242.26 425.08 228.53 309.2 228.53 308.73 239.24" style="fill:#37474f"></polygon><rect x="316.57" y="211.18" width="18.5" height="3.26" transform="translate(651.63 425.63) rotate(180)" style="fill:#263238"></rect><polygon points="326.31 212.15 325.32 212.03 329.41 180.14 340.15 166.92 340.93 167.55 330.37 180.55 326.31 212.15" style="fill:#263238"></polygon><path d="M343.2,164.92c-1.69-1.63-5.57,2.13-3.73,3.89S344.72,166.38,343.2,164.92Z" style="fill:#263238"></path></g><g id="freepik--speech-bubbles--inject-65"><path d="M333.31,113.28a11.2,11.2,0,0,0,1.91-6.18c0-7.83-8.6-14.18-19.2-14.18s-19.19,6.35-19.19,14.18,8.59,14.18,19.19,14.18a23.12,23.12,0,0,0,13.25-3.92l6.61,1.68Z" style="fill:#fffefd"></path><path d="M333.31,113.28a11.41,11.41,0,0,0,1.79-5.85,11.08,11.08,0,0,0-1.63-5.83,17.39,17.39,0,0,0-9.68-7.09,25.65,25.65,0,0,0-12.12-.76A20.06,20.06,0,0,0,300.92,99a12.51,12.51,0,0,0-3.12,5,10.09,10.09,0,0,0-.08,5.86,12.27,12.27,0,0,0,3,5.09,17.72,17.72,0,0,0,4.91,3.52,22.08,22.08,0,0,0,5.79,1.89,25.45,25.45,0,0,0,6.1.43,22.45,22.45,0,0,0,11.56-3.7l.09-.06.1,0,6.59,1.78-.14.17Zm0,0L336,119l.11.23-.25-.06-6.64-1.58.19,0a22.92,22.92,0,0,1-11.79,4,24.61,24.61,0,0,1-12.32-2.25,18.78,18.78,0,0,1-5.19-3.66,13.31,13.31,0,0,1-3.3-5.47,11.06,11.06,0,0,1,.05-6.42,13.25,13.25,0,0,1,3.4-5.42,20.92,20.92,0,0,1,11.27-5.49,26.7,26.7,0,0,1,6.31-.3A26.12,26.12,0,0,1,324,93.85a20.23,20.23,0,0,1,5.6,2.88,15.17,15.17,0,0,1,4.23,4.65,11.31,11.31,0,0,1,1.5,6.06A11.16,11.16,0,0,1,333.31,113.28Z" style="fill:#263238"></path><path d="M309.12,107.1a2,2,0,1,1-2-2A2,2,0,0,1,309.12,107.1Z" style="fill:#263238"></path><circle cx="316.03" cy="107.1" r="1.99" style="fill:#263238"></circle><path d="M326.91,107.1a2,2,0,1,1-2-2A2,2,0,0,1,326.91,107.1Z" style="fill:#263238"></path><path d="M148,109.55a11.13,11.13,0,0,1-1.92-6.18c0-7.83,8.6-14.18,19.2-14.18s19.2,6.35,19.2,14.18-8.59,14.18-19.2,14.18A23.07,23.07,0,0,1,152,113.63l-6.61,1.68Z" style="fill:#fffefd"></path><path d="M148,109.55a11.16,11.16,0,0,1-2-5.84,11.39,11.39,0,0,1,1.49-6.06A15.33,15.33,0,0,1,151.68,93a20,20,0,0,1,5.6-2.88,26.12,26.12,0,0,1,6.18-1.27,26.59,26.59,0,0,1,6.3.3A20.91,20.91,0,0,1,181,94.64a13.36,13.36,0,0,1,3.4,5.42,11.06,11.06,0,0,1,.05,6.42,13.22,13.22,0,0,1-3.31,5.47,18.59,18.59,0,0,1-5.18,3.66,24.65,24.65,0,0,1-12.33,2.25,22.92,22.92,0,0,1-11.78-4l.19,0-6.64,1.58-.25.06.11-.23Zm0,0-2.46,5.81-.14-.17,6.58-1.78.1,0,.09.06a22.48,22.48,0,0,0,11.57,3.7,25.45,25.45,0,0,0,6.1-.43,22.2,22.2,0,0,0,5.79-1.89,17.72,17.72,0,0,0,4.91-3.52,12.38,12.38,0,0,0,3-5.09,10.17,10.17,0,0,0-.09-5.86,12.29,12.29,0,0,0-3.12-5A20,20,0,0,0,169.61,90a25.62,25.62,0,0,0-12.11.76,17.39,17.39,0,0,0-9.68,7.09,10.9,10.9,0,0,0-1.63,5.83A11.32,11.32,0,0,0,148,109.55Z" style="fill:#263238"></path><circle cx="174.16" cy="103.37" r="1.99" style="fill:#263238"></circle><path d="M163.27,103.37a2,2,0,1,0,2-2A2,2,0,0,0,163.27,103.37Z" style="fill:#263238"></path><path d="M154.38,103.37a2,2,0,1,0,2-2A2,2,0,0,0,154.38,103.37Z" style="fill:#263238"></path></g></svg>