<svg xmlns="http://www.w3.org/2000/svg" viewBox="0 0 750 500"><g id="freepik--background-complete--inject-75"><path d="M99.11,325.06,86,325.33l-6.66.12c-2.22,0-4.46,0-6.69.05h-.44v-.44l-.05-11.19v-.51h.5l13.24.06c4.41,0,8.83.11,13.24.16h.28v.27c0,1.89-.08,3.78-.13,5.65Zm0,0L99,319.4c0-1.86-.11-3.7-.13-5.53l.27.27c-4.41.05-8.83.16-13.24.16l-13.24.06.5-.49-.06,11.19-.44-.45c2.18,0,4.36,0,6.54.05l6.58.12Z" style="fill:#ebebeb"></path><path d="M84.34,339.17l-13.13.27-6.66.12c-2.22,0-4.46,0-6.69.05h-.45v-.44l0-11.19v-.51h.5l13.24.06c4.41,0,8.82.11,13.24.16h.27V328c0,1.89-.08,3.78-.13,5.65Zm0,0-.14-5.66c0-1.86-.12-3.7-.13-5.53l.27.27c-4.42.05-8.83.16-13.24.16l-13.24.06.5-.49-.06,11.19-.44-.45c2.18,0,4.36,0,6.54,0l6.58.12Z" style="fill:#ebebeb"></path><path d="M627.72,180.84l-13.12.27-6.66.12c-2.23,0-4.47,0-6.7.05h-.44v-.44l-.06-11.19v-.51h.5l13.24.06c4.42,0,8.83.11,13.24.16H628v.27c0,1.89-.09,3.78-.14,5.65Zm0,0-.14-5.66c0-1.86-.11-3.7-.13-5.53l.27.27c-4.41.05-8.82.16-13.24.16l-13.24.07.5-.5,0,11.19-.45-.45c2.18,0,4.36,0,6.55.05l6.58.12Z" style="fill:#ebebeb"></path><path d="M613,195l-13.12.27-6.66.12c-2.23,0-4.47,0-6.7,0H586V195l0-11.19v-.51h.5l13.24.06c4.41,0,8.83.11,13.24.16h.28v.27c0,1.89-.08,3.78-.13,5.65Zm0,0-.14-5.66c0-1.86-.11-3.7-.13-5.53l.27.27c-4.41.05-8.83.16-13.24.16l-13.24.07.5-.5L586.92,195l-.45-.45c2.18,0,4.36,0,6.55.05l6.58.12Z" style="fill:#ebebeb"></path><path d="M598.24,180.84l-13.13.27-6.66.12c-2.22,0-4.46,0-6.69.05h-.45v-.44l0-11.19v-.51h.51l13.24.06c4.41,0,8.82.11,13.24.16h.27v.27c0,1.89-.09,3.78-.13,5.65Zm0,0-.14-5.66c-.05-1.86-.12-3.7-.14-5.53l.28.27c-4.42.05-8.83.16-13.24.16l-13.24.07.5-.5-.06,11.19-.44-.45c2.18,0,4.35,0,6.54.05l6.58.12Z" style="fill:#ebebeb"></path><path d="M692.14,339.17l-13.12.27-6.66.12c-2.23,0-4.47,0-6.7.05h-.44v-.44L665.16,328v-.51h.5l13.24.06c4.42,0,8.83.11,13.24.16h.28V328c0,1.89-.09,3.78-.14,5.65Zm0,0-.14-5.66c0-1.86-.11-3.7-.13-5.53l.27.27c-4.41.05-8.82.16-13.24.16l-13.24.06.5-.49,0,11.19-.45-.45c2.18,0,4.36,0,6.55,0l6.58.12Z" style="fill:#ebebeb"></path><path d="M677.37,65.49l-13.12.27-6.67.12c-2.22,0-4.46,0-6.69.05h-.44v-.45l-.05-11.19v-.51h.5l13.24.06c4.41,0,8.83.11,13.24.16h.28v.27c0,1.9-.08,3.78-.13,5.65Zm0,0-.14-5.66c-.05-1.86-.11-3.7-.13-5.53l.27.27c-4.41,0-8.83.16-13.24.16l-13.24.07.5-.5,0,11.19-.45-.45c2.18,0,4.36,0,6.55.06l6.58.11Z" style="fill:#ebebeb"></path><path d="M692.14,79.6,679,79.87l-6.66.12c-2.23,0-4.47,0-6.7.05h-.44V79.6l-.06-11.19V67.9h.5L678.9,68c4.42,0,8.83.11,13.24.16h.28v.27c0,1.9-.09,3.78-.14,5.65Zm0,0L692,73.94c0-1.86-.11-3.7-.13-5.53l.27.27c-4.41,0-8.82.16-13.24.16l-13.24.07.5-.5,0,11.19-.45-.45c2.18,0,4.36,0,6.55.06l6.58.11Z" style="fill:#ebebeb"></path><path d="M169.55,144l-13.13.28-6.66.11c-2.22.05-4.46,0-6.69.06h-.44V144l-.05-11.19v-.5h.5l13.24.06c4.41,0,8.83.12,13.24.17h.27v.27c0,1.9-.08,3.79-.13,5.66Zm0,0-.14-5.65c0-1.87-.11-3.71-.13-5.54l.27.27c-4.41.06-8.83.16-13.24.17l-13.24.06.5-.5L143.51,144l-.44-.44c2.18,0,4.36,0,6.54,0l6.58.11Z" style="fill:#ebebeb"></path><path d="M184.32,158.1l-13.12.28-6.66.11c-2.23,0-4.47,0-6.7.06h-.44v-.45l0-11.19v-.5h.5l13.24.06c4.41,0,8.83.12,13.24.17h.28v.27c0,1.9-.08,3.79-.13,5.65Zm0,0-.14-5.65c-.05-1.87-.11-3.71-.13-5.54l.27.27c-4.41.06-8.83.16-13.24.17l-13.24.06.5-.5-.05,11.19-.45-.44c2.18,0,4.36,0,6.55.05l6.58.11Z" style="fill:#ebebeb"></path><path d="M99.11,65.49,86,65.76l-6.66.12c-2.22,0-4.46,0-6.69.05h-.44v-.45L72.13,54.3v-.51h.5l13.24.06c4.41,0,8.83.11,13.24.16h.28v.27c0,1.9-.08,3.78-.13,5.65Zm0,0L99,59.83c0-1.86-.11-3.7-.13-5.53l.27.27c-4.41,0-8.83.16-13.24.16l-13.24.07.5-.5-.06,11.19L72.63,65c2.18,0,4.36,0,6.54.06l6.58.11Z" style="fill:#ebebeb"></path><rect x="65.71" y="81.74" width="69.48" height="89.48" style="fill:#fff"></rect><path d="M63.14,79.17v94.62h74.62V79.17Zm72.05,92.05H65.71V81.74h69.48Z" style="fill:#ebebeb"></path><rect x="137.76" y="79.17" width="2.11" height="94.63" style="fill:#dbdbdb"></rect><circle cx="99.21" cy="117.41" r="21.73" style="fill:#dbdbdb"></circle><circle cx="99.21" cy="117.41" r="7.31" style="fill:#ebebeb"></circle><g style="opacity:0.5"><path d="M115,128.76A19.54,19.54,0,0,1,81.15,125a20,20,0,0,1-.6-13.56,19.71,19.71,0,0,1,14.8-13.19,19.93,19.93,0,0,1,6.89-.12,19.46,19.46,0,0,1,11.81,6.62,19.72,19.72,0,0,1,4.64,12.69A19.61,19.61,0,0,0,114,104.8a19.19,19.19,0,0,0-11.74-6.53,19,19,0,0,0-13.15,2.66,19.39,19.39,0,0,0-8.27,10.56,19.32,19.32,0,0,0,9.7,23.22,19.48,19.48,0,0,0,24.55-6Z" style="fill:#fff"></path><path d="M101.36,130.51a13.33,13.33,0,0,1-14.53-18.17A13.32,13.32,0,0,1,110,109.55a13.17,13.17,0,0,1,2.5,8.89,13.39,13.39,0,0,1-3.89,8.35,13.32,13.32,0,0,0,3.77-8.36,13.12,13.12,0,0,0-2.51-8.78,13.49,13.49,0,0,0-3.35-3.22,13.3,13.3,0,0,0-13.31-.72,13.15,13.15,0,0,0-6.51,15.83,13.29,13.29,0,0,0,14.67,9Z" style="fill:#fff"></path><path d="M111.53,105.08a17.4,17.4,0,0,1-9.64,29.62A17.38,17.38,0,0,1,89.65,132a17.74,17.74,0,0,0,12.21,2.56,17.37,17.37,0,0,0,6-2.1,18,18,0,0,0,4.8-4.11,17.38,17.38,0,0,0,3.88-11.81A17.7,17.7,0,0,0,111.53,105.08Z" style="fill:#fff"></path><path d="M86.89,129.73a18.77,18.77,0,0,1-3-3.88,17.08,17.08,0,0,1-1.75-4.58,16.76,16.76,0,0,1-.42-4.89,16.24,16.24,0,0,1,1-4.82A15.63,15.63,0,0,1,85,107.21c.25-.32.47-.66.74-1l.83-.91a14.27,14.27,0,0,1,1.82-1.65,16.94,16.94,0,0,1,9-3.59,17.64,17.64,0,0,0-8.91,3.72,14.62,14.62,0,0,0-1.78,1.65l-.81.91c-.27.31-.49.65-.73,1a18.23,18.23,0,0,0-1.29,2.06,20.81,20.81,0,0,0-.94,2.24,16.48,16.48,0,0,0-1,4.75,16.84,16.84,0,0,0,.38,4.85A17.89,17.89,0,0,0,86.89,129.73Z" style="fill:#fff"></path><path d="M85.88,110a15.29,15.29,0,0,1,27,.48,15.25,15.25,0,0,1,1.18,10.78,15.31,15.31,0,0,1-16.81,11.35,15.24,15.24,0,0,1-9.54-5.09A15.43,15.43,0,0,1,84,117.41a15.37,15.37,0,0,0,3.86,10,15,15,0,0,0,9.47,5,15.1,15.1,0,0,0,16.55-11.24,15.06,15.06,0,0,0-1.13-10.63A15.21,15.21,0,0,0,85.88,110Z" style="fill:#fff"></path><circle cx="99.21" cy="117.41" r="1.12" style="fill:#fff"></circle></g><rect x="89.4" y="148.83" width="19.62" height="1.83" style="fill:#ebebeb"></rect><rect x="86.08" y="189.08" width="69.48" height="89.48" style="fill:#fff"></rect><path d="M83.51,186.51v94.62h74.62V186.51Zm72.05,92.05H86.08V189.08h69.48Z" style="fill:#ebebeb"></path><rect x="158.13" y="186.5" width="2.11" height="94.63" style="fill:#dbdbdb"></rect><circle cx="119.58" cy="224.74" r="21.73" style="fill:#dbdbdb"></circle><circle cx="119.58" cy="224.74" r="7.31" transform="translate(-126.63 289.49) rotate(-76.72)" style="fill:#ebebeb"></circle><g style="opacity:0.5"><path d="M135.41,236.1a19.54,19.54,0,0,1-33.89-3.79,20,20,0,0,1-.6-13.56,19.71,19.71,0,0,1,14.8-13.19,19.93,19.93,0,0,1,6.89-.12,19.4,19.4,0,0,1,11.81,6.61,19.76,19.76,0,0,1,4.64,12.69,19.65,19.65,0,0,0-4.74-12.61,19.18,19.18,0,0,0-11.74-6.52,19.53,19.53,0,0,0-6.82.13,19.53,19.53,0,0,0-14.6,13.08,19.33,19.33,0,0,0,9.7,23.23,19.48,19.48,0,0,0,24.55-6Z" style="fill:#fff"></path><path d="M121.73,237.84a13.22,13.22,0,0,1-14.82-8.91A13.36,13.36,0,0,1,127,213.61a13.65,13.65,0,0,1,3.38,3.27,13.18,13.18,0,0,1,2.5,8.9,13.39,13.39,0,0,1-3.89,8.35,13.37,13.37,0,0,0,3.77-8.36,13.15,13.15,0,0,0-2.51-8.79,13,13,0,0,0-7.61-5,13.2,13.2,0,0,0-9.05,1.11,13.15,13.15,0,0,0-6.51,15.83,13.27,13.27,0,0,0,14.67,9Z" style="fill:#fff"></path><path d="M131.9,212.42a17.47,17.47,0,0,1,1.29,23.4A18,18,0,0,1,128.3,240a17.56,17.56,0,0,1-6,2.08A17.38,17.38,0,0,1,110,239.32a17.68,17.68,0,0,0,12.21,2.55,17.36,17.36,0,0,0,6-2.09,18,18,0,0,0,4.8-4.11,17.38,17.38,0,0,0,3.88-11.81A17.7,17.7,0,0,0,131.9,212.42Z" style="fill:#fff"></path><path d="M107.26,237.07a18.77,18.77,0,0,1-3-3.88,17.08,17.08,0,0,1-1.75-4.58,16.76,16.76,0,0,1-.42-4.89,16.18,16.18,0,0,1,1-4.82,15.27,15.27,0,0,1,2.29-4.35c.25-.32.48-.67.74-1l.83-.91a14.34,14.34,0,0,1,1.82-1.66,17,17,0,0,1,9-3.59,17.81,17.81,0,0,0-8.91,3.72,14.71,14.71,0,0,0-1.78,1.66l-.81.91c-.27.31-.49.65-.73,1a17.75,17.75,0,0,0-1.28,2.07,18.35,18.35,0,0,0-1,2.24,16.41,16.41,0,0,0-1,4.75,16.74,16.74,0,0,0,.38,4.84A17.88,17.88,0,0,0,107.26,237.07Z" style="fill:#fff"></path><path d="M106.25,217.33a15.28,15.28,0,0,1,27,.49,15.25,15.25,0,0,1,1.18,10.78,15.29,15.29,0,0,1-16.81,11.34,15.14,15.14,0,0,1-9.54-5.09,15.39,15.39,0,0,1-3.77-10.11,15.33,15.33,0,0,0,3.86,10,15.09,15.09,0,0,0,9.47,5,15.12,15.12,0,0,0,16.55-11.25,15,15,0,0,0-1.13-10.62,15.17,15.17,0,0,0-18.59-7.48A15.42,15.42,0,0,0,106.25,217.33Z" style="fill:#fff"></path><path d="M120.7,224.74a1.12,1.12,0,1,1-1.12-1.12A1.12,1.12,0,0,1,120.7,224.74Z" style="fill:#fff"></path></g><rect x="109.77" y="256.17" width="19.62" height="1.83" style="fill:#ebebeb"></rect></g><g id="freepik--Shadow--inject-75"><ellipse cx="375" cy="443.46" rx="260.58" ry="23.19" style="fill:#ebebeb"></ellipse></g><g id="freepik--Plant--inject-75"><path d="M635.7,243.23a49.87,49.87,0,0,1-1,19.16,53.56,53.56,0,0,1-2.93,8.46c-1.53,3.51-3.12,6.93-2.74,10.77.37.24-.9.2-.94-.17-10.25-5.83-23.39-6.9-31.27-16.44-3.74-4.52-5.62-10.25-6.52-16-1-6.24-1.24-13.14.37-19.29,1.36-5.2,4.4-10.21,9.28-12.76,5-2.62,11.65-2.4,16.95-.75C628.39,219.8,634.08,232.15,635.7,243.23Z" style="fill:#A13242"></path><path d="M641,319.09c-1.4-4.66-2.79-9.32-4.23-14-2.81-9.11-5.74-18.19-9-27.15q-2.91-8.06-6.14-16a98.22,98.22,0,0,1,1.23-9.91c.86-4,2.1-7.81,3.26-11.7.07-.23-.32-.36-.41-.13-2.31,5.35-5.31,12.21-5.38,18.55-2.51-6-5.18-11.84-8.06-17.63a76,76,0,0,1,.45-14.68.17.17,0,0,0-.34-.07,52,52,0,0,0-1,13c-2.21-4.35-4.53-8.64-7-12.87-.22-.38-.75,0-.55.38,3.85,7.42,7.42,15,10.77,22.66a49.21,49.21,0,0,0-16.06-9.31c-.26-.09-.45.28-.19.39a58.43,58.43,0,0,1,17.38,11.51q3.62,8.41,6.89,17c-6.42-6.28-15.19-10.42-23.68-12.64-.29-.07-.36.37-.09.45,9.83,3,17.46,8.53,24.93,15.22.86,2.31,1.72,4.62,2.55,6.94q4.75,13.17,9,26.5,2.07,6.39,4.07,12.79c1.43,4.6,2.55,9.45,4.42,13.89.18.42.94.33.84-.18C643.85,327.71,642.25,323.38,641,319.09Z" style="fill:#263238"></path><path d="M624,234.26a25.58,25.58,0,0,0-3.69,9.2c0,.08.12.13.15,0a78.18,78.18,0,0,1,4-9C624.57,234.18,624.14,234,624,234.26Z" style="fill:#263238"></path><path d="M605.68,255.61a26.77,26.77,0,0,0-9.2-3.09c-.08,0-.13.11,0,.14,1.47.62,3,1,4.52,1.62s3,1.28,4.49,1.81A.27.27,0,0,0,605.68,255.61Z" style="fill:#263238"></path><path d="M600.53,229.93a17.75,17.75,0,0,0-3-1.83.16.16,0,0,0-.17.26,17.57,17.57,0,0,0,2.92,1.89C600.51,230.36,600.72,230.05,600.53,229.93Z" style="fill:#263238"></path><path d="M670.25,278c-7.38,2.19-14.8,4.21-22.18,6.38-.64.19-13.12-23.72-8.61-36,4.17-11.41,13.71-19.94,25.09-23.81,5.27-1.79,11.75-3.29,17.31-2.07,4.95,1.1,8.45,5.15,10.06,9.81,2.19,6.32,1.46,13.87.27,20.33-1.11,6-3.3,11.89-7.26,16.6S676,276.33,670.25,278Z" style="fill:#A13242"></path><path d="M681,255.31a98.39,98.39,0,0,1-14.47,5.7,60.76,60.76,0,0,0-9.66,3.5c3.11-6.95,6.53-13.75,10.16-20.5,4.77-1.38,9.79-3.53,13.38-6.9a.21.21,0,0,0-.27-.31c-3.93,2.78-8.27,4.44-12.62,6.32,1-1.81,2-3.62,3-5.43.28-.5-.42-1-.75-.51a155.17,155.17,0,0,0-10.49,17.61,80.56,80.56,0,0,1-.76-16.14.11.11,0,1,0-.21,0,53.56,53.56,0,0,0,.18,17.73c-2.59,5.16-4.95,10.46-7.07,15.82-.84-3.22-1.93-6.39-2.66-9.64a44.13,44.13,0,0,1-1.06-14.21c0-.14-.2-.15-.22,0a50.14,50.14,0,0,0,3.1,26.08q-1.86,4.83-3.49,9.71a193.48,193.48,0,0,0-9.8,51.21.32.32,0,0,0,.63,0,253.07,253.07,0,0,1,11-50.61c2.14-6.43,4.6-12.68,7.3-18.81,4.36-1.29,8.71-3,13-4.52s8.46-3.12,12-5.87C681.25,255.46,681.1,255.24,681,255.31Z" style="fill:#263238"></path><path d="M687.83,248.37c-4.51,1.6-8.79,3.85-13.3,5.48-.21.08-.09.41.12.37,4.77-1,9.51-2.46,13.35-5.59C688.15,248.51,688,248.31,687.83,248.37Z" style="fill:#263238"></path><path d="M651,238.63c.06-.24-.29-.38-.37-.13-1.23,4.16-2.09,8.58-.88,12.83a.16.16,0,0,0,.32,0C650.25,247,650,242.85,651,238.63Z" style="fill:#263238"></path><path d="M669.62,229a11,11,0,0,0-2,7.07c0,.16.26.25.3.07.55-2.38,1.47-4.55,2.2-6.86A.31.31,0,0,0,669.62,229Z" style="fill:#263238"></path><path d="M582.46,288.58c2.16,6.87,7.3,16.36,15.44,16.44,5.28.05,10.6-.58,15.89-.65,5.67-.09,11.34-.08,17,.26.46,0-.68-17-14.3-25.24-3.81-2.32-8.48-3.05-12.81-4a59.29,59.29,0,0,0-15.13-1.58c-3.13.13-5.73.79-6.84,4C580.54,281.16,581.42,285.32,582.46,288.58Z" style="fill:#A13242"></path><path d="M588.32,280c3.3.85,6.64,1.83,10,2.88a34.69,34.69,0,0,0-2.74-2.68c-1.43-1.18-3-2.13-4.53-3.17-.12-.08,0-.33.12-.27a18.71,18.71,0,0,1,8,6.39c4.14,1.34,8.24,2.81,12.18,4.43a45.47,45.47,0,0,1,7.8,4.11,31.06,31.06,0,0,0-2.82-4.91c-1.8-2.34-4.25-3.65-6.62-5.31a.21.21,0,0,1,.22-.36,19.38,19.38,0,0,1,10.62,11.51,45.48,45.48,0,0,1,7.72,7c9,10.23,16.11,23.85,16.13,37.74,0,.33-.53.43-.59.08-2.56-13.8-8-26.19-17.19-36.9-.64-.76-1.3-1.47-2-2.17a61.46,61.46,0,0,0-7.44-.55c-2.9,0-5.78.43-8.66.66-4.76.39-10,.44-14.3-1.95-.19-.1-.06-.43.15-.36,9.56,3.48,19.59-.93,29.17,1.14a44.8,44.8,0,0,0-14.13-9.11l-.88-.35c-6.14.74-12.61,2.33-18.59.34a.15.15,0,0,1,.08-.28c5.77,1.44,11.31-.37,17-.66-6.21-2.42-12.53-4.34-18.75-6.74C587.76,280.32,587.75,279.84,588.32,280Z" style="fill:#263238"></path><path d="M585.61,286a80.93,80.93,0,0,0,8.93.67c.07,0,.09.11,0,.13a18.49,18.49,0,0,1-9-.58A.11.11,0,1,1,585.61,286Z" style="fill:#263238"></path><path d="M605.78,280.14a14.58,14.58,0,0,1,4.42,3.07c.15.14-.06.42-.23.29-.75-.54-1.52-1.06-2.3-1.56a21.66,21.66,0,0,1-2.15-1.36A.27.27,0,0,1,605.78,280.14Z" style="fill:#263238"></path><path d="M653.86,302.25c-.1.22.23.44.35.2h0a.33.33,0,0,0,.22.13,136.46,136.46,0,0,0,16.63,2.91c4.51.4,9.7.65,13.64-2,5.34-3.54,8.85-13,6-19-3.41-7.14-13.71-3.27-18.87-.73A37.93,37.93,0,0,0,653.86,302.25Z" style="fill:#A13242"></path><path d="M649.87,305.55A53.41,53.41,0,0,1,659.8,298a34,34,0,0,1,10.07-10.27c.2-.13.37.18.19.32a45.08,45.08,0,0,0-8.49,8.92A94,94,0,0,1,674,291.3a16.53,16.53,0,0,1,6.7-6.71s.12.05.07.09a27.54,27.54,0,0,0-6,6.34c2.53-.94,5.09-1.82,7.65-2.67.23-.07.31.28.09.36-4.55,1.78-9.2,3.65-13.71,5.82a52.89,52.89,0,0,0,16.61,0,.12.12,0,1,1,.06.23,32.71,32.71,0,0,1-17.61.27,80.21,80.21,0,0,0-8.36,4.68,20.91,20.91,0,0,1,6.75.55,51.63,51.63,0,0,0,11.87,1.34c.15,0,.19.24,0,.27-6.89,1.19-13.4-1.94-20.22-1.13a52.79,52.79,0,0,0-7.11,5.8,53.34,53.34,0,0,0-10.36,14.63c-2.88,5.85-4.43,12-6.76,18.08a.22.22,0,0,1-.42-.11C635.26,327.18,641.19,314,649.87,305.55Z" style="fill:#263238"></path><path d="M670.63,289.22a7.9,7.9,0,0,1,1.77-2.14,6.84,6.84,0,0,1,2-1.52c.07,0,.11.06.06.11-.56.64-1.35,1.11-2,1.72s-1.13,1.34-1.75,1.95C670.71,289.43,670.58,289.32,670.63,289.22Z" style="fill:#263238"></path><path d="M682,292.91c1-.25,2.1-.23,3.14-.45a27.19,27.19,0,0,0,3-.91c.13,0,.21.16.09.23a10.07,10.07,0,0,1-6.27,1.45A.17.17,0,0,1,682,292.91Z" style="fill:#263238"></path><polygon points="621.5 324.41 622.4 334.67 625.47 369.32 652.61 369.32 656.44 334.67 657.57 324.41 621.5 324.41" style="fill:#455a64"></polygon><polygon points="621.5 324.41 622.4 334.67 656.44 334.67 657.57 324.41 621.5 324.41" style="fill:#263238"></polygon><rect x="618.81" y="321.61" width="41.45" height="8.33" transform="translate(1279.07 651.55) rotate(180)" style="fill:#455a64"></rect></g><g id="freepik--Floor--inject-75"><polygon points="54.95 369.32 134.97 369.08 214.98 368.99 375 368.82 535.02 368.99 615.03 369.08 695.05 369.32 615.03 369.57 535.02 369.66 375 369.82 214.98 369.65 134.97 369.57 54.95 369.32" style="fill:#263238"></polygon></g><g id="freepik--Window--inject-75"><rect x="204.65" y="83.95" width="340.69" height="180.26" style="fill:#fff"></rect><path d="M200.65,80V268.21H549.34V80ZM545.34,264.21H204.65V84H545.34Z" style="fill:#ebebeb"></path><rect x="373" y="84.99" width="4" height="181.21" style="fill:#ebebeb"></rect><rect x="197.03" y="88.04" width="355.95" height="5.57" style="fill:#ebebeb"></rect><rect x="197.03" y="94.3" width="355.95" height="5.57" style="fill:#ebebeb"></rect><rect x="197.03" y="100.57" width="355.95" height="5.57" style="fill:#ebebeb"></rect><rect x="197.03" y="106.83" width="355.95" height="5.57" style="fill:#ebebeb"></rect><rect x="197.03" y="113.1" width="355.95" height="5.57" style="fill:#ebebeb"></rect><rect x="197.03" y="119.37" width="355.95" height="5.57" style="fill:#ebebeb"></rect><rect x="540.09" y="86.91" width="1" height="98.39" style="fill:#263238"></rect><polygon points="542.37 189.95 538.82 189.95 539.71 184.85 541.48 184.85 542.37 189.95" style="fill:#263238"></polygon><rect x="543.7" y="86.91" width="1" height="145.73" style="fill:#263238"></rect><polygon points="545.97 236.39 542.42 236.39 543.31 231.29 545.08 231.29 545.97 236.39" style="fill:#263238"></polygon><rect x="190.82" y="79.17" width="368.36" height="11.65" style="fill:#a6a6a6"></rect></g><g id="freepik--character-2--inject-75"><polygon points="510.8 331.1 508.32 345.98 491.5 436.79 488.8 436.79 501.02 345.98 502.83 331.1 510.8 331.1" style="fill:#dbdbdb"></polygon><polygon points="502.83 331.1 510.8 331.1 508.32 345.98 501.02 345.98 502.83 331.1" style="fill:#c7c7c7"></polygon><polygon points="563.6 436.79 560.89 436.79 544.08 345.98 541.6 331.1 549.57 331.1 551.38 345.98 563.6 436.79" style="fill:#dbdbdb"></polygon><polygon points="549.57 331.1 551.38 345.98 544.08 345.98 541.6 331.1 549.57 331.1" style="fill:#c7c7c7"></polygon><polygon points="614.04 436.79 611.33 436.79 594.51 345.98 592.03 331.1 600 331.1 601.81 345.98 614.04 436.79" style="fill:#dbdbdb"></polygon><polygon points="601.81 345.98 594.51 345.98 592.03 331.1 600 331.1 601.81 345.98" style="fill:#c7c7c7"></polygon><polygon points="609.74 338.09 486.53 338.09 486.53 325.11 532.65 325.11 548.15 234.92 605.04 234.92 609.74 338.09" style="fill:#dbdbdb"></polygon><polygon points="609.74 338.09 603.02 338.09 598.65 234.92 605.04 234.92 609.74 338.09" style="fill:#c7c7c7"></polygon><path d="M412.05,417.56c2.27,1.33,72.15,15.93,75.16,14.81,1.15-.42,3.87-10.48,6.81-22.72.64-2.64,1.28-5.37,1.92-8.15,4.14-18,8.11-37.28,8.11-37.28l-46.71-9.91-6.83,37.55L449,400.1s-29.25,6.38-32.43,8S409.78,416.23,412.05,417.56Z" style="fill:#f7a9a0"></path><path d="M412.06,417.56c2.26,1.33,72.14,15.93,75.16,14.81,1.14-.42,3.86-10.47,6.8-22.72.64-2.64,1.28-5.37,1.92-8.15.15-.65.3-1.3.44-1.95L450.68,391l-.17.89L449,400.1s-29.26,6.38-32.43,8S409.78,416.24,412.06,417.56Z" style="fill:#ebebeb"></path><path d="M411.66,417.57c2.3,1.34,73,16,76,14.87,1.16-.42,3.9-10.58,6.85-22.95l.09-.39-45.49-10-.15.77s-29.56,6.47-32.77,8.09S409.36,416.24,411.66,417.57Z" style="fill:#A13242"></path><path d="M413,415c12,2.18,60.07,12.11,71.74,15.17.09,0,.08.09,0,.08C472.84,428.34,424.83,418,413,415.19,412.74,415.14,412.78,415,413,415Z" style="fill:#263238"></path><path d="M444,398.2c4.87.1,10.45,2,13.34,6.09.11.16-.11.31-.26.24a66.9,66.9,0,0,0-13.19-5.73A.31.31,0,0,1,444,398.2Z" style="fill:#263238"></path><path d="M440.22,399.54c4.87.1,10.45,2,13.34,6.08.12.16-.11.32-.25.24a67.24,67.24,0,0,0-13.2-5.73A.3.3,0,0,1,440.22,399.54Z" style="fill:#263238"></path><path d="M436.41,400.87c4.87.1,10.46,2,13.35,6.09.11.16-.12.31-.26.23a67.72,67.72,0,0,0-13.19-5.72A.31.31,0,0,1,436.41,400.87Z" style="fill:#263238"></path><path d="M440.77,393.83c2.78,3.26,6.87,5.21,10.45,7.45a.6.6,0,0,0,.86-.44.12.12,0,0,0,.14-.14,25.55,25.55,0,0,0-5-12.23c-1.62-2-4.81-3.9-7.18-1.74S439.14,391.92,440.77,393.83Zm-.42-4c.24-5.3,5.21-1.46,6.34.1a29.39,29.39,0,0,1,1.93,3.19c1.22,2.29,2.09,4.7,3.07,7.08-1.69-1.21-3.47-2.26-5.2-3.4C444.43,395.42,440.22,392.74,440.35,389.81Z" style="fill:#263238"></path><path d="M469.35,396.81c-.52-3.15-4.18-3.67-6.72-3.06a25.39,25.39,0,0,0-11.49,6.51.13.13,0,0,0,0,.2.59.59,0,0,0,.41.87c4.19.46,8.62,1.46,12.82.62C466.85,401.46,469.85,399.8,469.35,396.81Zm-11.29,3.91c-2.06-.17-4.11-.45-6.18-.54a75.13,75.13,0,0,1,6.79-3.66,29.55,29.55,0,0,1,3.5-1.32c1.85-.52,8.13-.47,5,3.85C465.49,401.43,460.53,400.93,458.06,400.72Z" style="fill:#263238"></path><path d="M475,453.37c2.53.7,73.83-3,76.46-4.84.57-.4-.09-10-.89-18.6-.6-6.41-16.18-50.88-16.18-50.88l-47.7,2.32,19.59,45.71S479.66,440.69,477,443,472.51,452.67,475,453.37Z" style="fill:#f7a9a0"></path><path d="M475.05,453.37c2.53.71,73.81-3,76.44-4.83.58-.41-.07-10-.89-18.61-.2-2.12-2-8.35-4.36-15.76l-43.8,3.88,3.88,9S479.66,440.7,477,443,472.51,452.67,475.05,453.37Z" style="fill:#ebebeb"></path><path d="M474.14,454c2.57.7,74.63-3.54,77.27-5.44.91-.63.3-7.73-.6-19.18-.11-1.28-1.37-5.94-1.38-6.07l-43.92,3.13.07.78S478.72,441.19,476,443.58,471.58,453.33,474.14,454Z" style="fill:#A13242"></path><path d="M474.79,451.18c12.13-1,61.15-3.95,73.22-4,.1,0,.1.07,0,.08-12,1.26-61,3.81-73.2,4.15C474.55,451.39,474.54,451.2,474.79,451.18Z" style="fill:#263238"></path><path d="M500.34,426.89c4.73-1.17,10.62-.78,14.47,2.41.15.12,0,.33-.18.29a67.08,67.08,0,0,0-14.23-2.09A.31.31,0,0,1,500.34,426.89Z" style="fill:#263238"></path><path d="M497,429.17c4.72-1.17,10.61-.78,14.47,2.41.15.12,0,.33-.19.29a66.89,66.89,0,0,0-14.23-2.09A.31.31,0,0,1,497,429.17Z" style="fill:#263238"></path><path d="M493.69,431.45c4.73-1.17,10.62-.78,14.47,2.41.15.12,0,.33-.19.29a67.54,67.54,0,0,0-14.23-2.1A.3.3,0,0,1,493.69,431.45Z" style="fill:#263238"></path><path d="M496.06,423.52c3.53,2.43,8,3.24,12,4.47.42.13.72-.28.72-.64a.13.13,0,0,0,.1-.18,25.56,25.56,0,0,0-8-10.5c-2.09-1.56-5.66-2.52-7.38.18C491.88,419.4,494,422.1,496.06,423.52Zm-1.44-3.77c-1.15-5.19,4.64-2.77,6.14-1.56a28.59,28.59,0,0,1,2.69,2.59,75.64,75.64,0,0,1,4.81,6c-1.94-.73-3.93-1.28-5.9-1.93C500,424.1,495.25,422.61,494.62,419.75Z" style="fill:#263238"></path><path d="M524.44,419c-1.33-2.91-5-2.46-7.29-1.21a25.56,25.56,0,0,0-9.4,9.27.13.13,0,0,0,.08.2c-.06.36.18.8.61.73,4.17-.65,8.7-.83,12.54-2.74C523.23,424.09,525.7,421.71,524.44,419Zm-9.88,6.71c-2,.37-4.09.64-6.12,1.09a75.91,75.91,0,0,1,5.61-5.3,25.81,25.81,0,0,1,3-2.18c1.65-1,7.73-2.58,5.86,2.4C521.91,424.42,517,425.23,514.56,425.67Z" style="fill:#263238"></path><path d="M585.72,312.3c-14.21,15.83-62,3.32-64.81,9.62C518.4,327.48,551,416.69,551,416.69l-52.14,5.62s-45-98.53-28.92-127c8.69-15.38,47-9.25,70.09-12.06,7-.85,10.24-15.22,10.24-15.22h41.29S602,294.2,585.72,312.3Z" style="fill:#37474f"></path><path d="M484.42,286.5,528.2,320c14.54-.31,46.36,4.73,57.51-7.71C602,294.2,591.54,268,591.54,268H550.25S547,282.41,540,283.26C523.79,285.23,500.11,282.8,484.42,286.5Z" style="fill:#263238"></path><path d="M496.85,410.68c1.44-.45,15-2,17.94-2.28,6-.64,24.75-2.4,28.16-2.39a.08.08,0,0,1,0,.16c-3,.62-15,2-17.93,2.33-6,.61-26.51,2.6-28.16,2.44A.13.13,0,0,1,496.85,410.68Z" style="fill:#263238"></path><path d="M514.59,316.7c3.35-1.67,28.76-.84,47-2.55,5.94-.56,11.9-1.83,16.44-5.72a27.15,27.15,0,0,0,8.11-13.36c1.75-6.23,1.57-12.73,1.27-19.11-.07-1.57-.18-3.14-.28-4.71,0-.09.16-.11.17,0,1.39,11.43,2.45,24.2-5,34.11A23.8,23.8,0,0,1,569,314.05c-11,2.9-52.34,2.18-53.8,3.3-1.73,1.33,25,82.7,25.52,84.25.1.29-.41.49-.53.2C537.57,395.55,511.67,318.15,514.59,316.7Z" style="fill:#263238"></path><path d="M468.05,298.07c2.46-6.24,8.07-10.12,16.32-11.61.14,0,.13.18,0,.22-7.19,2.1-12.34,5-15.17,11.07-1.32,2.84-2,6.82-2.35,12.16-1.71,26.65,21.54,87.13,22,88.18a.08.08,0,0,1-.14.08C485.44,392.65,457.91,323.83,468.05,298.07Z" style="fill:#263238"></path><path d="M449.21,389.47l39.47,8.4s-31.14-92.95-16.51-104.95c4.05-3.32,12.89-4.48,23.4.06,15.68,6.77,33.84,20.58,50.95,25.64,16,4.73,35.06.38,41.61-6.83,13.76-15.15,3.41-43.77,3.41-43.77l-54.14-2.13s-.24.69-2.95,3.1c0,0-34.92-7.57-49.42,1.29C458.88,286.26,449.21,389.47,449.21,389.47Z" style="fill:#37474f"></path><path d="M567,271.34a.1.1,0,0,1,.2,0,32.23,32.23,0,0,0,.49,6.36,11,11,0,0,0,2.86,5.29c3.11,3.15,7.57,4.22,11.65,5.51.22.07.18.44-.06.41-4.53-.7-9.29-1.85-12.6-5.24a11,11,0,0,1-2.93-5.7A13.59,13.59,0,0,1,567,271.34Z" style="fill:#263238"></path><path d="M473.14,291.15c6.08-3.81,15.56-.92,20.1.82.1,0,.06.19,0,.16-4.18-1.5-14.58-3.78-20.14.16-12.84,9.1,4.35,71.33,15.62,105.58.18.53-.25.39-.48-.12-1.86-4.06-16.39-47.34-20.18-76C467.43,317.37,464.39,296.64,473.14,291.15Z" style="fill:#263238"></path><path d="M453.71,379c1.19,0,11.42,2.22,13.67,2.73,4.51,1,15,3.72,17.4,4.65.06,0,0,.16,0,.15-2.34-.22-7.79-1.41-10-1.94-4.51-1-19.94-4.75-21.07-5.35C453.53,379.17,453.59,379,453.71,379Z" style="fill:#263238"></path><path d="M475.08,289.53c4.08-2.23,8.94-2.59,13.48-2a47.64,47.64,0,0,1,13.77,4.31c9.23,4.23,18,9.39,27.28,13.59s19,7.44,29.14,7.75c8.66.27,19.62-1.26,25.19-9.05,8.58-12,3.58-32.7,3.48-34,0-.1.13-.09.16,0,6.65,25.44-1.91,35.31-7.69,39.47-4.59,3.3-11.19,4.13-15.54,4.5-10.08.85-20.18-1.62-29.53-5.34-9.57-3.81-18.55-8.95-27.72-13.64-8.8-4.5-18.6-9.14-28.65-6.56a25.29,25.29,0,0,0-3.34,1.14C475.06,289.65,475,289.56,475.08,289.53Z" style="fill:#263238"></path><path d="M514.7,231.83l8,1.73a25.27,25.27,0,0,0,5.38-14.32c.09-1.19,1.57,6-1.31,15.2,8.47,1.82,20,4.29,30.08,6.35,1-3.91,2-7.49,2-7.49a45.5,45.5,0,0,0,.19,7.95c1.38.29,2.73.55,4,.81A157.67,157.67,0,0,1,567,225.39a54.92,54.92,0,0,0,1.8,17.81c6.42,1.24,10.66,1.94,10.45,1.59-7.6-13,.73-18-.17-28.38-1.08-12.38-10.86-16.17-8.88-24.94,1.59-7.14,5-20-3.58-24.51a17.8,17.8,0,0,0-18.28-7.23c-15.38,2.76-13.92,26-15.75,30.31-2.61,6.17-6.11,7.86-9.79,14.76s-1.3,12.56-1.87,17.67S513.1,231.51,514.7,231.83Z" style="fill:#263238"></path><path d="M579.88,243.25a25.45,25.45,0,0,1-1.93-6.88c-.32-2.33.43-4.51,1.31-6.74a70.56,70.56,0,0,0,2.53-6.87,19,19,0,0,0,.7-7.53,16.74,16.74,0,0,0-2.66-7.1,43.66,43.66,0,0,0-4.62-5.73,26.83,26.83,0,0,1-4.21-5.7,13,13,0,0,1-1.35-6.9,12.3,12.3,0,0,0,.54,7.26,24.64,24.64,0,0,0,3.92,6.26,56.87,56.87,0,0,1,4.22,5.73,16,16,0,0,1,2.26,6.41,18.85,18.85,0,0,1-.6,6.82c-.57,2.27-1.44,4.5-2.2,6.83a24.47,24.47,0,0,0-.93,3.61,10.82,10.82,0,0,0,.12,3.81A20.7,20.7,0,0,0,579.88,243.25Z" style="fill:#263238"></path><path d="M538.7,166.42a36.92,36.92,0,0,0-3.57,8.2c-.92,2.85-1.7,5.73-2.44,8.6l-1.14,4.29a21.63,21.63,0,0,1-1.45,4,23.58,23.58,0,0,1-5.32,6.68,32.24,32.24,0,0,0-3.07,3.39,20,20,0,0,0-2.41,4,30.26,30.26,0,0,0-1.48,4.36,19.07,19.07,0,0,0-.62,4.58c0,1.55.13,3,.22,4.5a22.46,22.46,0,0,1-.13,4.34,9.14,9.14,0,0,1-4.93,6.74,9.26,9.26,0,0,0,5.84-6.57,21.74,21.74,0,0,0,.47-4.54c0-1.51-.07-3,0-4.41a23.75,23.75,0,0,1,2.26-8.23,20.61,20.61,0,0,1,2.24-3.6,32.29,32.29,0,0,1,2.94-3.17,44.92,44.92,0,0,0,3.11-3.32,18.49,18.49,0,0,0,2.51-3.95,24.18,24.18,0,0,0,1.43-4.39c.36-1.46.67-2.91,1-4.37.62-2.91,1.19-5.81,1.88-8.69A44,44,0,0,1,538.7,166.42Z" style="fill:#263238"></path><path d="M556.57,214c-7.15,21.5-17.58,41.62-24.13,45.26-5.29,2.93-38.72,12.27-40.17,12.26-3.59,0-9.66-24.19-6.92-26.88.63-.61,35.62-8.82,37-10s13.77-16,24.24-27.53C553.83,199.14,560.54,202.07,556.57,214Z" style="fill:#f7a9a0"></path><path d="M493.78,271.06a85.17,85.17,0,0,1-10.9,3.12c-2.94.51-11.45,1.74-12.33-1.44-.6-2.17,4.32-3.48,7.77-4.49,1.82-.53,4.17-2.11,3.78-3.29-.68-2-5.37-.59-8.51.79-6.06,2.68-14.31,7.78-17.46,4.5-1.19-1.23.55-3.05,3-4.75-3.87,1.87-7.94,3.3-9.32,2a1.92,1.92,0,0,1-.14-2.63,2.56,2.56,0,0,1-2.74-.75c-1-1.37-.27-3.12,1.23-4.84a1.39,1.39,0,0,1-1-.83c-2.07-4.08,11.63-13.6,16.06-14.14,13-1.6,26.43,1,26.43,1C494.2,249.84,493.79,271.06,493.78,271.06Z" style="fill:#f7a9a0"></path><path d="M476.43,257.14a20.78,20.78,0,0,0-8.84,2.31c-3.19,1.7-5.86,4.22-8.85,6.22-.08.05,0,.18.09.12,1.42-1.05,2.95-2,4.42-2.94s2.83-2,4.32-2.85a20.63,20.63,0,0,1,8.86-2.81S476.46,257.13,476.43,257.14Z" style="fill:#263238"></path><path d="M474.66,251.48a51.06,51.06,0,0,0-10.23,2.32c-3.59,1.34-6.56,3.86-9.47,6.28-1.75,1.46-3.46,2.94-5.14,4.48-.07.06,0,.18.08.12q4.44-3.75,9.11-7.24a27.21,27.21,0,0,1,9.62-4.66c2-.52,4-.88,6-1.24C474.71,251.54,474.7,251.48,474.66,251.48Z" style="fill:#263238"></path><path d="M471.62,246.37c-3.31.31-6.21.56-9.27,2a46.75,46.75,0,0,0-9.61,6.57c-1.59,1.36-3.13,2.77-4.66,4.2-.06.06,0,.17.11.11a108.26,108.26,0,0,1,11-8.69,21.78,21.78,0,0,1,5.94-3,39.76,39.76,0,0,1,6.52-1.17S471.64,246.37,471.62,246.37Z" style="fill:#263238"></path><path d="M550.88,235.78,532.05,222.7s9.42-12.95,17.08-18.83,10.18-.63,8.4,8.61S550.88,235.78,550.88,235.78Z" style="fill:#A13242"></path><path d="M550.81,227.22a1.45,1.45,0,0,1-.62.31,1.25,1.25,0,0,1-1.16-.36,1.63,1.63,0,0,0-1.79-.31,1.71,1.71,0,0,0-.66.58c-.15.23-.32.44-.45.68.24-.14.45-.3.67-.45a1.57,1.57,0,0,1,.62-.33,1.22,1.22,0,0,1,1.16.31,1.64,1.64,0,0,0,1.77.36,1.62,1.62,0,0,0,.69-.56c.15-.23.31-.44.45-.68C551.25,226.91,551,227.07,550.81,227.22Zm-13.54-10.05c-.06-.26-.09-.53-.16-.79a7.37,7.37,0,0,0-.16.79,1.6,1.6,0,0,1-.2.67,1.26,1.26,0,0,1-1,.61,1.74,1.74,0,0,0-.45.06h0L534.08,220h0a1.45,1.45,0,0,0,0,.3c.06.26.09.53.16.79a7.37,7.37,0,0,0,.16-.79,1.61,1.61,0,0,1,.22-.66,1.27,1.27,0,0,1,1.07-.57,1.59,1.59,0,0,0,1.55-1.93ZM556,216.4a1.27,1.27,0,0,1-.57-1.07,1.61,1.61,0,0,0-1-1.49,1.59,1.59,0,0,0-.88-.06c-.27.06-.53.09-.8.16a7.55,7.55,0,0,0,.8.16,1.65,1.65,0,0,1,.67.2,1.25,1.25,0,0,1,.6,1,1.63,1.63,0,0,0,1,1.51,1.51,1.51,0,0,0,.72.11l.09-.35A1.48,1.48,0,0,1,556,216.4Z" style="fill:#fff"></path><path d="M535.38,220a144.43,144.43,0,0,1,15.89,11.25s0,.15-.09.13c-4.51-2.81-13.08-9.08-15.93-11.2C535.2,220.13,535.32,219.94,535.38,220Z" style="fill:#263238"></path><path d="M533.6,223.78l17.28,12s4.86-14.07,6.65-23.3c1.15-6,.51-10.26-2.15-11Z" style="fill:#263238"></path><path d="M535.29,252.51l-.7,15.58S551.71,270,594,270c0,0-8.92-45.18-23.25-62-7.16-8.41-16-8.15-21.79-2.68-1.47,1.38-15.12,23.15-17.23,31.62C529.91,244.38,535.29,252.51,535.29,252.51Z" style="fill:#A13242"></path><path d="M556.7,216.62a1.61,1.61,0,0,1-.66-.22,1.27,1.27,0,0,1-.57-1.07,1.61,1.61,0,0,0-1-1.49,1.59,1.59,0,0,0-.88-.06c-.27.06-.53.09-.8.16a7.55,7.55,0,0,0,.8.16,1.65,1.65,0,0,1,.67.2,1.25,1.25,0,0,1,.6,1,1.63,1.63,0,0,0,1,1.51,1.55,1.55,0,0,0,.89.09c.26-.06.53-.09.79-.16A7.37,7.37,0,0,0,556.7,216.62Zm14.66,52.45a1.43,1.43,0,0,1-.65-.22,1.25,1.25,0,0,1-.57-1.07,1.63,1.63,0,0,0-1-1.49,1.67,1.67,0,0,0-.88-.06c-.26.06-.53.09-.79.16a7.37,7.37,0,0,0,.79.16,1.65,1.65,0,0,1,.67.21,1.2,1.2,0,0,1,.6,1,1.62,1.62,0,0,0,1,1.51,1.51,1.51,0,0,0,.88.09c.27-.05.53-.09.8-.16A7.55,7.55,0,0,0,571.36,269.07ZM535.9,238.56a1.39,1.39,0,0,1-.65-.22,1.22,1.22,0,0,1-.57-1.07,1.63,1.63,0,0,0-1-1.48,1.58,1.58,0,0,0-.88-.06c-.23,0-.46.07-.69.13a.11.11,0,0,0,0,0c.24.06.46.09.7.14a1.51,1.51,0,0,1,.67.2,1.22,1.22,0,0,1,.6,1,1.64,1.64,0,0,0,1,1.51,1.54,1.54,0,0,0,.89.08,7.55,7.55,0,0,0,.8-.16C536.43,238.65,536.17,238.62,535.9,238.56Zm15.9,22.24a1.39,1.39,0,0,1-.65-.22,1.25,1.25,0,0,1-.57-1.07,1.63,1.63,0,0,0-1.05-1.49,1.67,1.67,0,0,0-.88-.06c-.27.06-.53.09-.8.16a7.55,7.55,0,0,0,.8.16,1.65,1.65,0,0,1,.67.21,1.2,1.2,0,0,1,.6,1,1.62,1.62,0,0,0,1,1.51,1.55,1.55,0,0,0,.89.09c.27-.05.53-.09.8-.16A7.55,7.55,0,0,0,551.8,260.8Zm13.13-21.61a1.36,1.36,0,0,1-.65-.22,1.22,1.22,0,0,1-.57-1.06,1.63,1.63,0,0,0-1.05-1.49,1.58,1.58,0,0,0-.88-.06c-.26.06-.53.09-.79.16.26.07.53.11.79.16a1.6,1.6,0,0,1,.67.2,1.22,1.22,0,0,1,.6,1,1.64,1.64,0,0,0,1,1.51,1.51,1.51,0,0,0,.88.09c.27-.06.53-.09.8-.16C565.46,239.28,565.2,239.25,564.93,239.19Zm22,13.78a1.47,1.47,0,0,1-.66-.22,1.27,1.27,0,0,1-.57-1.07,1.62,1.62,0,0,0-1-1.49,1.71,1.71,0,0,0-.89-.05c-.26.05-.53.08-.79.15a7.37,7.37,0,0,0,.79.16,1.6,1.6,0,0,1,.67.21,1.21,1.21,0,0,1,.61,1,1.65,1.65,0,0,0,1,1.52,1.62,1.62,0,0,0,.89.08c.26,0,.53-.09.79-.16C587.47,253.06,587.2,253,586.94,253Zm-3.28-16.67a1.71,1.71,0,0,1-.62.33,1.22,1.22,0,0,1-1.15-.31,1.66,1.66,0,0,0-1.78-.37,1.54,1.54,0,0,0-.68.57c-.15.23-.32.44-.45.68.24-.14.45-.3.67-.45a1.51,1.51,0,0,1,.62-.31,1.26,1.26,0,0,1,1.16.35,1.61,1.61,0,0,0,1.79.31,1.54,1.54,0,0,0,.67-.58c.15-.22.31-.43.45-.67C584.1,236,583.89,236.15,583.66,236.3Zm-33.28,6.18a7.37,7.37,0,0,0-.16-.79c-.07.26-.1.53-.16.79a1.47,1.47,0,0,1-.2.67,1.21,1.21,0,0,1-1,.61,1.65,1.65,0,0,0-1.52,1,1.62,1.62,0,0,0-.08.89c0,.26.09.53.16.79.07-.26.11-.53.16-.79a1.47,1.47,0,0,1,.22-.66,1.27,1.27,0,0,1,1.07-.57,1.62,1.62,0,0,0,1.49-1A1.71,1.71,0,0,0,550.38,242.48Zm23.67-19.66c-.06-.26-.09-.53-.16-.79a7.37,7.37,0,0,0-.16.79,1.6,1.6,0,0,1-.21.67,1.23,1.23,0,0,1-1,.61,1.63,1.63,0,0,0-1.51,1,1.54,1.54,0,0,0-.09.89c.05.26.09.53.16.79a7.37,7.37,0,0,0,.16-.79,1.47,1.47,0,0,1,.22-.66,1.27,1.27,0,0,1,1.07-.57,1.62,1.62,0,0,0,1.49-1A1.72,1.72,0,0,0,574.05,222.82ZM570.78,208l0,0h0a1.21,1.21,0,0,1-.26-.2A1.6,1.6,0,0,0,568,208c-.15.23-.31.44-.45.68.24-.14.45-.3.68-.45a1.42,1.42,0,0,1,.61-.33,1.23,1.23,0,0,1,1.16.3,1.61,1.61,0,0,0,1.34.47C571.17,208.44,571,208.2,570.78,208Zm-20,19.25a1.45,1.45,0,0,1-.62.31,1.25,1.25,0,0,1-1.16-.36,1.63,1.63,0,0,0-1.79-.31,1.71,1.71,0,0,0-.66.58c-.15.23-.32.44-.45.68.24-.14.45-.3.67-.45a1.57,1.57,0,0,1,.62-.33,1.22,1.22,0,0,1,1.16.31,1.64,1.64,0,0,0,1.77.36,1.62,1.62,0,0,0,.69-.56c.15-.23.31-.44.45-.68C551.25,226.91,551,227.07,550.81,227.22Zm-14.53,28.63a1.48,1.48,0,0,1-.62.3,1.35,1.35,0,0,1-.53,0l0,.59a1.35,1.35,0,0,0,.72-.11,1.54,1.54,0,0,0,.68-.57,7.83,7.83,0,0,0,.45-.67A7.83,7.83,0,0,0,536.28,255.85Zm34.4-2.95a1.45,1.45,0,0,1-.62.31,1.22,1.22,0,0,1-1.15-.35,1.61,1.61,0,0,0-1.79-.31,1.54,1.54,0,0,0-.67.58c-.15.22-.31.43-.45.67.24-.13.45-.3.68-.45a1.67,1.67,0,0,1,.61-.33,1.24,1.24,0,0,1,1.16.31,1.65,1.65,0,0,0,1.77.37,1.57,1.57,0,0,0,.69-.57c.15-.22.31-.43.45-.67C571.12,252.59,570.91,252.75,570.68,252.9ZM590,264.75a1.45,1.45,0,0,1-.62.31,1.24,1.24,0,0,1-1.15-.35,1.57,1.57,0,0,0-2.46.27,7.83,7.83,0,0,0-.45.67c.24-.13.45-.3.68-.45a1.67,1.67,0,0,1,.61-.33,1.25,1.25,0,0,1,1.16.31,1.64,1.64,0,0,0,1.77.37,1.57,1.57,0,0,0,.69-.57c.15-.23.31-.44.45-.68C590.48,264.44,590.27,264.6,590,264.75Z" style="fill:#fff"></path><path d="M551.79,210l-3.61,10.61q-1.78,5.31-3.36,10.67a53.53,53.53,0,0,0-1.31,5.39,15.31,15.31,0,0,0,0,5.4,28.08,28.08,0,0,0,4,10.16l.09.13v.13c-.12,2.74-.34,5.47-.5,8.21s-.4,5.46-.64,8.19q0-4.11.07-8.22c.07-2.74.09-5.48.2-8.22l.08.27a28.7,28.7,0,0,1-4.31-10.48,15.39,15.39,0,0,1,0-5.74,54.75,54.75,0,0,1,1.4-5.47c1.06-3.6,2.34-7.12,3.65-10.62S550.32,213.48,551.79,210Z" style="fill:#263238"></path><path d="M543.59,223.33a.94.94,0,0,0,.74,1.06.88.88,0,0,0,1-.81.94.94,0,0,0-.75-1.06A.85.85,0,0,0,543.59,223.33Z" style="fill:#263238"></path><path d="M540.22,234A1,1,0,0,0,541,235a.86.86,0,0,0,.95-.81.94.94,0,0,0-.75-1.06A.87.87,0,0,0,540.22,234Z" style="fill:#263238"></path><path d="M540.22,244.64a1,1,0,0,0,.75,1.06.86.86,0,0,0,.95-.81.94.94,0,0,0-.75-1.06A.87.87,0,0,0,540.22,244.64Z" style="fill:#263238"></path><path d="M543.59,253.33a.93.93,0,0,0,.74,1.06.87.87,0,0,0,1-.81,1,1,0,0,0-.75-1.06A.86.86,0,0,0,543.59,253.33Z" style="fill:#263238"></path><path d="M542.87,264.12a1,1,0,0,0,.75,1.06.86.86,0,0,0,1-.81.94.94,0,0,0-.75-1.06A.87.87,0,0,0,542.87,264.12Z" style="fill:#263238"></path><path d="M554.46,251.06a58.27,58.27,0,0,0-8.54-.95c-1.42,0-2.84,0-4.26.07-.71,0-1.42,0-2.13,0a9.1,9.1,0,0,1-2.21-.2c-.06,0-.09.08,0,.1a15.66,15.66,0,0,0,2,.53,15.31,15.31,0,0,0,2,.18c1.45,0,2.89,0,4.34,0,2.91.07,5.83.13,8.73.41C554.56,251.31,554.59,251.08,554.46,251.06Z" style="fill:#263238"></path><path d="M560.57,255.4a63.77,63.77,0,0,0-6.72-2.24c-1.15-.31-2.3-.54-3.47-.75-.55-.1-1.11-.19-1.67-.27s-1.24-.1-1.85-.2c-.07,0-.1.08,0,.1.57.11,1.13.32,1.7.46l1.72.43c1.14.29,2.28.6,3.43.88,2.29.56,4.57,1.14,6.84,1.78C560.65,255.62,560.68,255.44,560.57,255.4Z" style="fill:#263238"></path><path d="M571.21,209.8c11,18.16,24.64,49.25,16,54.15-14.12,8-51.29,7.71-59.76,7.29-3.66-.18-6.83-24.81-3.92-27.43s41.52,1.77,42.19-.53c.38-1.3-3.45-13.88-4.76-28.73C559.5,197.43,568.12,204.68,571.21,209.8Z" style="fill:#f7a9a0"></path><path d="M480.78,241.13S466,234.27,466,225.1s19.27-15,19.29-22.19-8.38-11.39-8.38-11.39,13.25,4.55,13.24,13.61-12.72,15.17-13.94,20.94C474.47,234.07,480.78,241.13,480.78,241.13Z" style="fill:#ebebeb;opacity:0.6000000000000001"></path><path d="M480.05,241.12s14.84-5.35,14.86-12.55-19.23-11.88-19.22-17.51,8.4-8.93,8.4-8.93-13.26,3.54-13.27,10.66,14.55,12.05,15.58,17.83S480.05,241.12,480.05,241.12Z" style="fill:#ebebeb;opacity:0.6000000000000001"></path><rect x="479.48" y="258.21" width="2.2" height="14.12" transform="translate(214.57 745.45) rotate(-89.91)" style="fill:#A13242"></rect><rect x="479.86" y="257.84" width="1.45" height="14.12" transform="translate(214.96 745.08) rotate(-89.91)" style="fill:#263238"></rect><path d="M504.41,258.28a7.83,7.83,0,0,1-9.39,3,10.16,10.16,0,0,1-2-1.06l1.8-2.65a6.41,6.41,0,0,0,1.06.6,4.69,4.69,0,0,0,5.91-1.72c1.94-2.72,2.64-8.93.68-11.32-.13-.18-.69-.46-3,0-.42.1-.89.2-1.43.35a6.2,6.2,0,0,1-1.29.28l-.06-1.6-.15-1.59c.15,0,.37-.1.67-.18a20.49,20.49,0,0,1,3.21-.66c1.68-.17,3.43,0,4.5,1.35C508.14,247,506.84,254.88,504.41,258.28Z" style="fill:#A13242"></path><path d="M494.83,257.55a6.41,6.41,0,0,0,1.06.6l-.87,3.11a10.16,10.16,0,0,1-2-1.06Z" style="fill:#263238"></path><path d="M500.46,241.73l-.95,3.4c-.42.1-.89.2-1.43.35a6.2,6.2,0,0,1-1.29.28l-.06-1.6-.15-1.59c.15,0,.37-.1.67-.18A20.49,20.49,0,0,1,500.46,241.73Z" style="fill:#263238"></path><path d="M461.85,237.51s1.67,14.38,4.59,20.45,7,6.74,9.53,6.74h9.23c2.54,0,6.62-.67,9.55-6.72s4.66-20.43,4.66-20.43Z" style="fill:#A13242"></path><g style="opacity:0.1"><path d="M463.84,249.46c.29,1.32.61,2.63,1,3.87l31.61,0c.35-1.24.67-2.55,1-3.87Z"></path><path d="M465.23,254.8c.21.68.44,1.33.67,1.93l29.39,0c.24-.6.46-1.25.68-1.94Z"></path><path d="M463.12,245.82c.11.63.23,1.28.37,1.93l34.24.06c.14-.66.26-1.3.38-1.94Z"></path></g><path d="M491.27,242.21c.15,3.5,8.75,2.4,8.75,2.4a6.44,6.44,0,0,0-2.46,3.64c-.53,2.61,3.34,4.58,3.34,4.58a7.94,7.94,0,0,0-2,4.26c-.26,2.55,3.36,5.09,3.36,5.09a7.25,7.25,0,0,0,.61,4.84c3.6,6.53,22.93,5.67,28.38,4.27l6-27.94s-16.66-9.68-24.52-9.62C508.41,233.76,491,236.86,491.27,242.21Z" style="fill:#f7a9a0"></path><path d="M500.09,244.51c4.5-1.55,9.37-2,14.08-2.42.1,0,.11.15,0,.16-4.65.67-9.39,1.95-14,2.48A.11.11,0,0,1,500.09,244.51Z" style="fill:#263238"></path><path d="M501,252.68a12.49,12.49,0,0,1,3.23-.34q1.72-.06,3.45-.06c2.31,0,4.61,0,6.92.16.1,0,.12.16,0,.16-2.3,0-4.6.05-6.89.16l-3.45.18A14.13,14.13,0,0,1,501,253,.16.16,0,0,1,501,252.68Z" style="fill:#263238"></path><path d="M502.37,262.18a8.46,8.46,0,0,1,2.93-.15l3.15,0c2.1,0,4.2,0,6.3,0,.11,0,.12.16,0,.16-2.13.07-4.26.17-6.4.22l-3.14.05a8,8,0,0,1-2.85-.2C502.32,262.27,502.33,262.19,502.37,262.18Z" style="fill:#263238"></path><path d="M537.29,243.35c-1.47-.64-2.91-1.33-4.35-2l-4.3-2.07-4.3-2.07c-1.44-.68-2.89-1.34-4.37-2a28.07,28.07,0,0,1,4.59,1.43c1.5.56,3,1.23,4.4,1.92s2.86,1.44,4.25,2.24S536,242.44,537.29,243.35Z" style="fill:#263238"></path><path d="M500.09,244.51a8.33,8.33,0,0,0-1.7,2,4,4,0,0,0-.62,2.42,3.35,3.35,0,0,0,1.15,2.13,6.36,6.36,0,0,0,2.15,1.29l.47.17-.33.38a9.06,9.06,0,0,0-1.46,2.3,5,5,0,0,0-.44,2.58,4.87,4.87,0,0,0,1.12,2.37,8.6,8.6,0,0,0,2.07,1.78l.2.12-.07.21a5.39,5.39,0,0,0-.28,1.52,7.59,7.59,0,0,0,.11,1.58,5.64,5.64,0,0,0,1.36,2.87,5.34,5.34,0,0,1-1.69-2.8,6.52,6.52,0,0,1-.22-1.66,5.62,5.62,0,0,1,.21-1.7l.13.34a7.8,7.8,0,0,1-2.32-1.83,5.45,5.45,0,0,1-1.32-2.7,5.19,5.19,0,0,1,.47-3,9.89,9.89,0,0,1,1.63-2.47l.14.55a6.87,6.87,0,0,1-2.37-1.48A3.9,3.9,0,0,1,497.3,249a4.13,4.13,0,0,1,.85-2.61A7.45,7.45,0,0,1,500.09,244.51Z" style="fill:#263238"></path><path d="M585.16,228.9l-22.09,6.15s-4-15.52-3.59-25.16,6-8.24,12-1S585.16,228.9,585.16,228.9Z" style="fill:#A13242"></path><path d="M570.37,207.64h0l0,0a1.6,1.6,0,0,0-2.3.41c-.15.23-.31.44-.45.68.24-.14.45-.3.68-.45a1.42,1.42,0,0,1,.61-.33,1.23,1.23,0,0,1,1.16.3,1.58,1.58,0,0,0,1.24.48Q570.82,208.14,570.37,207.64Zm3.68,15.18c-.06-.26-.09-.53-.16-.79a7.37,7.37,0,0,0-.16.79,1.6,1.6,0,0,1-.21.67,1.23,1.23,0,0,1-1,.61,1.63,1.63,0,0,0-1.51,1,1.54,1.54,0,0,0-.09.89c.05.26.09.53.16.79a7.37,7.37,0,0,0,.16-.79,1.47,1.47,0,0,1,.22-.66,1.27,1.27,0,0,1,1.07-.57,1.62,1.62,0,0,0,1.49-1A1.72,1.72,0,0,0,574.05,222.82Z" style="fill:#fff"></path><path d="M563.1,230.75a147,147,0,0,1,18.8-5.05s.09.14.05.15c-5,1.68-15.34,4.28-18.79,5.12C563.1,231,563,230.78,563.1,230.75Z" style="fill:#263238"></path><path d="M559.55,222.3a0,0,0,1,1,.05,0c.34.77.62,1.55.89,2.34-.25-1.71-.45-3.42-.62-5.13,0-.06.08-.07.09,0,1.07,5.06,2.27,10.11,3.23,15.2.56,0,1.11,0,1.66,0,.09,0,.11.13,0,.14-.6.1-1.21.25-1.8.4-.13,0-.32,0-.36-.15a72,72,0,0,1-2-8.87c-.2-.46-.38-.93-.54-1.4A16.9,16.9,0,0,1,559.55,222.3Z" style="fill:#263238"></path><path d="M560.08,204.24c-.19,1.12-5,8.58-10.05,8.66-1.64,0-2.15-8.94-2.15-8.94l-.19-.66L545,194.17l10.46-7.66,1.52-1s.55,2.55,1.22,5.73l.09.45c0,.18.09.35.12.52.1.47.21.95.3,1.44s.15.73.21,1.11.14.77.21,1.16A61.08,61.08,0,0,1,560.08,204.24Z" style="fill:#f7a9a0"></path><path d="M558.24,191.22a19,19,0,0,1-10.55,12.08L545,194.17l10.46-7.66,1.52-1S557.57,188,558.24,191.22Z" style="fill:#263238"></path><path d="M540.38,182.2c-.1,3.83-2.93,6.87-6.32,6.78s-6.06-3.26-5.95-7.09,2.93-6.86,6.32-6.78S540.48,178.37,540.38,182.2Z" style="fill:#A13242"></path><path d="M542.37,182.49c-.12,4.26-3.26,7.64-7,7.54s-6.73-3.62-6.62-7.88,3.26-7.64,7-7.54S542.48,178.23,542.37,182.49Z" style="fill:#c7c7c7"></path><path d="M532.1,179.58c-2.75,16.47,6.8,20,10.35,20.57,3.23.53,14.27,1.95,18.71-14.15s-2.34-22.58-9.65-24.2S534.85,163.11,532.1,179.58Z" style="fill:#f7a9a0"></path><path d="M535.68,175.35a11.37,11.37,0,0,0,1.16,0A1.84,1.84,0,0,0,538,175a.61.61,0,0,0,.12-.72,1.48,1.48,0,0,0-1.39-.57,2.13,2.13,0,0,0-1.47.53A.63.63,0,0,0,535.68,175.35Z" style="fill:#263238"></path><path d="M546.59,177.26a10.23,10.23,0,0,1-1.09-.42,1.85,1.85,0,0,1-1-.64.61.61,0,0,1,.12-.72,1.49,1.49,0,0,1,1.5-.1,2.12,2.12,0,0,1,1.22,1A.63.63,0,0,1,546.59,177.26Z" style="fill:#263238"></path><path d="M543.41,181.07s.08.07.07.11c-.25,1.12-.34,2.44.61,3,0,0,0,.07,0,.06C542.86,183.84,543,182.09,543.41,181.07Z" style="fill:#263238"></path><path d="M544.64,180.08c1.83.21,1.29,3.86-.41,3.67S543.1,179.91,544.64,180.08Z" style="fill:#263238"></path><path d="M545.33,180.38c.29.26.54.67.92.76s.83-.22,1.18-.55c0,0,.06,0,.06.06-.1.7-.47,1.38-1.24,1.37s-1.1-.7-1.17-1.43C545.07,180.45,545.21,180.28,545.33,180.38Z" style="fill:#263238"></path><path d="M537.18,179.85s-.09,0-.1.08c-.12,1.14-.45,2.42-1.53,2.66,0,0,0,.06,0,.06C536.82,182.65,537.25,180.94,537.18,179.85Z" style="fill:#263238"></path><path d="M536.34,178.52c-1.8-.39-2.46,3.24-.79,3.61S537.85,178.85,536.34,178.52Z" style="fill:#263238"></path><path d="M535.54,178.62c-.32.14-.67.44-1,.4s-.62-.49-.81-.91c0-.05-.05,0-.06,0-.15.69,0,1.45.59,1.71s1.15-.29,1.44-.95C535.73,178.78,535.67,178.57,535.54,178.62Z" style="fill:#263238"></path><path d="M542,190.1a1.77,1.77,0,0,1-1,.57,3.18,3.18,0,0,1-1.19-.41s-.08,0-.06.05a1.53,1.53,0,0,0,1.38.76,1.19,1.19,0,0,0,1-.91A.06.06,0,0,0,542,190.1Z" style="fill:#263238"></path><path d="M537.9,185.26s-.5,1.65-.63,2.44c0,.08.17.14.44.2h0a3.84,3.84,0,0,0,3.9-.83c.07-.06,0-.16-.1-.13a5.7,5.7,0,0,1-3.61.44c0-.23,1-2.8.83-2.83a7.68,7.68,0,0,0-1.87.12c1-3.46,2.45-6.75,3.34-10.21,0-.13-.15-.19-.2-.09A59,59,0,0,0,536,185.23C535.83,185.68,537.56,185.34,537.9,185.26Z" style="fill:#263238"></path><path d="M538.16,187.83a4.12,4.12,0,0,0,1.45,1.53,1.9,1.9,0,0,0,1.11.25c.85-.09,1-.83.93-1.5a4.59,4.59,0,0,0-.21-1A5.37,5.37,0,0,1,538.16,187.83Z" style="fill:#263238"></path><path d="M539.61,189.36a1.9,1.9,0,0,0,1.11.25c.85-.09,1-.83.93-1.5A2,2,0,0,0,539.61,189.36Z" style="fill:#ff9abb"></path><path d="M560.67,185.08c-3.12.34-3.8-6.82-3.8-6.82s-13.25-2.49-14.19-13.34a18.32,18.32,0,0,1-9.42,9.86s.67-11.86,10.12-14c0,0,11.76-4,18.16,5.34S562.77,184.85,560.67,185.08Z" style="fill:#263238"></path><path d="M542.65,164.12a11.73,11.73,0,0,0,.5,4.95,12.23,12.23,0,0,0,2.44,4.42,9.45,9.45,0,0,0,.88.91l.45.45.5.39c.34.25.67.51,1,.75l1.1.62.55.3.59.23,1.16.47c.8.24,1.61.44,2.41.62-.76-.35-1.54-.61-2.28-1l-1.09-.56-.54-.27-.51-.33-1-.67c-.32-.24-.62-.5-.94-.75l-.47-.38-.42-.43a9.71,9.71,0,0,1-.82-.88,13.75,13.75,0,0,1-2.46-4.12,15.54,15.54,0,0,1-.71-2.32A14.19,14.19,0,0,1,542.65,164.12Z" style="fill:#263238"></path><path d="M558.4,185.32s4-4.91,6.3-3.43-1.08,8.8-3.93,9.61a2.82,2.82,0,0,1-3.65-1.81Z" style="fill:#f7a9a0"></path><path d="M563.69,184s0,.06,0,.07c-2,.63-3.17,2.35-4,4.16A1.56,1.56,0,0,1,562,188s0,.12-.06.1a1.76,1.76,0,0,0-2,.45,8.43,8.43,0,0,0-1,1.47c-.11.17-.41.05-.33-.14l0-.05C558.82,187.31,561,184,563.69,184Z" style="fill:#263238"></path><path d="M560.76,182.73s2.86-7.89,1.77-13c-1.22-5.69-8.44-12.1-16.56-9.55,0,0,9.72,1.31,13.25,9,1.62,3.53-1.24,13-1.24,13Z" style="fill:#c7c7c7"></path><path d="M552,184.64c-1.22,4.08.71,8.26,4.33,9.32s7.54-1.39,8.77-5.47-.71-8.26-4.33-9.32S553.21,180.55,552,184.64Z" style="fill:#c7c7c7"></path><path d="M554,185c-1.1,3.67.64,7.42,3.89,8.38s6.78-1.25,7.88-4.92-.64-7.43-3.89-8.38S555.06,181.3,554,185Z" style="fill:#A13242"></path><path d="M547.75,203.6l3.31,7.34L560,201.1l2.76,2.92s-8.46,15.4-8.54,14.73l-3.35-6.32-4.26,4.67-.11-11.26Z" style="fill:#A13242"></path><path d="M546.19,211.54c0-1.86,0-3.74.17-5.59,0-.07.1-.1.12,0,.45,1.78.24,8.89.32,10.59l0,0c.18-.2,4-4.11,4-4.06.71,1,3.17,5.59,3.34,6,1.33-2.44,7-12.1,8.64-14.43a.07.07,0,0,1,.12.06c-1.17,2.57-8.52,15.31-8.64,15.29a73.56,73.56,0,0,1-3.5-6.68c-.63.85-4.43,5.24-4.45,5A59.34,59.34,0,0,1,546.19,211.54Z" style="fill:#263238"></path></g><g id="freepik--character-1--inject-75"><polygon points="234.13 331.1 236.62 345.98 253.43 436.79 256.14 436.79 243.91 345.98 242.11 331.1 234.13 331.1" style="fill:#dbdbdb"></polygon><polygon points="242.11 331.1 234.13 331.1 236.62 345.98 243.91 345.98 242.11 331.1" style="fill:#c7c7c7"></polygon><polygon points="181.33 436.79 184.04 436.79 200.86 345.98 203.34 331.1 195.37 331.1 193.56 345.98 181.33 436.79" style="fill:#dbdbdb"></polygon><polygon points="195.37 331.1 193.56 345.98 200.86 345.98 203.34 331.1 195.37 331.1" style="fill:#c7c7c7"></polygon><polygon points="130.9 436.79 133.61 436.79 150.42 345.98 152.91 331.1 144.93 331.1 143.13 345.98 130.9 436.79" style="fill:#dbdbdb"></polygon><polygon points="143.13 345.98 150.42 345.98 152.91 331.1 144.93 331.1 143.13 345.98" style="fill:#c7c7c7"></polygon><polygon points="135.2 338.09 258.41 338.09 258.41 325.11 212.28 325.11 196.78 234.92 139.9 234.92 135.2 338.09" style="fill:#dbdbdb"></polygon><polygon points="135.2 338.09 141.91 338.09 146.29 234.92 139.9 234.92 135.2 338.09" style="fill:#c7c7c7"></polygon><path d="M273.3,452.7c-2.45.31-69.32-15.3-71.49-17.4-.27-.23,2.9-13.07,2.9-13.07,1-5.29,18.46-48.41,18.46-48.41l43.72,10.78-18.53,40s8.34,5.65,15.5,11l0,0a97.05,97.05,0,0,1,9.06,7.24C275.06,445.41,275.75,452.41,273.3,452.7Z" style="fill:#c95f50"></path><path d="M273.3,452.7c-2.45.31-69.32-15.29-71.49-17.4-.26-.23,2.9-13.08,2.9-13.08.35-1.73,2.46-7.56,5.15-14.62l41.84,9.76-3.34,7.21s8.33,5.65,15.5,11v0a97.72,97.72,0,0,1,9.07,7.24C275.06,445.41,275.75,452.41,273.3,452.7Z" style="fill:#ebebeb"></path><path d="M273.49,452.89c-2.53.26-69.94-14.84-72.14-17.05-.85-.82,5.13-22.54,5.16-22.66l43.15,9.53-.19.73s21.69,16.62,23.85,19.3S276,452.64,273.49,452.89Z" style="fill:#a6a6a6"></path><path d="M273.32,450.11C262,447.28,216.17,437,204.78,435c-.09,0-.1,0,0,.07,11.14,3,57.07,13,68.5,15.2C273.52,450.34,273.55,450.17,273.32,450.11Z" style="fill:#263238"></path><path d="M252.94,423.23c-4.29-1.84-9.91-2.38-14,0-.16.09,0,.32.13.3a64.61,64.61,0,0,1,13.76.22A.29.29,0,0,0,252.94,423.23Z" style="fill:#263238"></path><path d="M255.73,425.89c-4.28-1.83-9.91-2.37-14,0-.16.1,0,.32.13.31a64.61,64.61,0,0,1,13.76.21A.29.29,0,0,0,255.73,425.89Z" style="fill:#263238"></path><path d="M258.52,428.56c-4.28-1.83-9.91-2.38-14,0-.16.09,0,.32.13.31a64.69,64.69,0,0,1,13.77.21A.29.29,0,0,0,258.52,428.56Z" style="fill:#263238"></path><path d="M260.94,414.79c-1.21-2.81-4.73-2.45-6.95-1.31a24.4,24.4,0,0,0-9.18,8.69.12.12,0,0,0,.07.18.57.57,0,0,0,.57.72c4-.54,8.34-.62,12.06-2.37C259.68,419.68,262.09,417.45,260.94,414.79ZM251.35,421c-2,.32-3.93.53-5.87.92a73.47,73.47,0,0,1,5.47-5,25.64,25.64,0,0,1,3-2c1.6-.92,7.44-2.31,5.55,2.42C258.41,420,253.69,420.64,251.35,421Z" style="fill:#263238"></path><path d="M233.7,418.46c3.34,2.39,7.59,3.26,11.43,4.52.39.13.69-.25.69-.6.08,0,.14-.08.1-.17A24.44,24.44,0,0,0,238.48,412c-2-1.54-5.36-2.52-7.07,0S231.76,417.06,233.7,418.46Zm-1.3-3.64c-1-5,4.5-2.55,5.91-1.37a27.35,27.35,0,0,1,2.52,2.53,72.75,72.75,0,0,1,4.48,5.87c-1.84-.73-3.74-1.3-5.61-2C237.47,419.09,233,417.57,232.4,414.82Z" style="fill:#263238"></path><path d="M251.78,423.07l-46.64-10.44s38.46-89.24,35.06-93.75c-1.7-2.26-44.91-2.92-58.65-14.56-17.85-15.12-5.87-38.23-5.87-38.23l48.25-1.43s-.58,10.08,1.3,11.6c1.24,1,58.73,5.84,65,25.22C298,325.23,251.78,423.07,251.78,423.07Z" style="fill:#263238"></path><path d="M253.11,414.64c-1.23-.52-13.27-3.94-16-4.63-5.43-1.38-10.87-2.75-16.33-4-2.84-.67-8.94-2.12-9.3-2.09a.15.15,0,0,0,0,.29c5.32,1.66,10.7,3.11,16.07,4.58s23.85,6,25.46,6.15C253.16,414.93,253.29,414.71,253.11,414.64Z" style="fill:#37474f"></path><path d="M248.45,314.89c-1-.83-2.42-.93-3.64-1.14l-20.89-3.5c-6.52-1.09-13.07-2.06-19.56-3.31-5.37-1-10.84-2.44-15.48-5.35a22.4,22.4,0,0,1-9.49-12.41,40.06,40.06,0,0,1-1.23-15.9c.13-1.29.36-2.59.61-3.87,0-.09-.14-.13-.16,0-1.76,9.88-1.92,21.35,5.49,29.23,3.61,3.84,8.57,6.09,13.64,7.55,5.71,1.65,11.68,2.43,17.55,3.41l20.89,3.49c3.36.56,6.76,1,10.08,1.69a3.43,3.43,0,0,1,1.82.8,2.57,2.57,0,0,1,.29,2.41c-.33,1.64-.77,3.26-1.25,4.87-3.8,13-29.46,74.88-30.21,76.3-.08.15.16.27.24.12,6.39-11.38,25-59.19,29.2-71.46a77.1,77.1,0,0,0,2.74-9.55C249.33,317.07,249.47,315.76,248.45,314.89Z" style="fill:#37474f"></path><path d="M364.37,453.42c-2.34.78-69.26-.16-71.81-1.79-1-.94-1.78-9.5-2.38-20.15l-11.52-45.65,43.06-.35,12.61,45.33s9.29,3.87,17.38,7.72l0,0c5,2.36,9.33,4.51,10.32,5.3C364.64,445.92,366.71,452.65,364.37,453.42Z" style="fill:#c95f50"></path><path d="M365.75,453.46c-2.42.8-71.51.47-74.13-1.21-1-.62-1.54-10.68-1.84-22.85,0-.12,0-.25,0-.38l44.57-.28,0,.76s26.39,11.93,29.08,14.09S368.16,452.67,365.75,453.46Z" style="fill:#a6a6a6"></path><path d="M365,450.79c-11.65-.35-58.65-.63-70.18-.08-.1,0-.1.07,0,.07,11.53.59,58.53.49,70.18.2C365.22,451,365.22,450.79,365,450.79Z" style="fill:#263238"></path><path d="M339.3,428.89c-4.57-.88-10.18-.2-13.7,3-.14.13,0,.32.19.28a64,64,0,0,1,13.49-2.74A.29.29,0,0,0,339.3,428.89Z" style="fill:#263238"></path><path d="M342.6,430.9c-4.58-.88-10.18-.2-13.7,3-.14.13,0,.32.19.27a64.58,64.58,0,0,1,13.49-2.73A.29.29,0,0,0,342.6,430.9Z" style="fill:#263238"></path><path d="M345.9,432.9c-4.58-.87-10.19-.2-13.7,3.05-.14.12,0,.31.19.27a64.47,64.47,0,0,1,13.49-2.74A.29.29,0,0,0,345.9,432.9Z" style="fill:#263238"></path><path d="M345.31,418.94c-1.79-2.49-5.15-1.39-7.07.21a24.42,24.42,0,0,0-7.11,10.45.12.12,0,0,0,.11.16.57.57,0,0,0,.72.58c3.79-1.39,8-2.39,11.27-4.89C345.13,424,347,421.29,345.31,418.94Zm-8,8.13c-1.85.72-3.72,1.35-5.54,2.15a72.14,72.14,0,0,1,4.28-6,27.31,27.31,0,0,1,2.44-2.61c1.37-1.23,6.78-3.84,6,1.18C344,424.53,339.48,426.2,337.28,427.07Z" style="fill:#263238"></path><path d="M319.49,428.34c3.77,1.63,8.11,1.57,12.13,2a.57.57,0,0,0,.55-.74c.07,0,.12-.1.06-.18a24.47,24.47,0,0,0-9.46-8.39c-2.25-1.07-5.78-1.31-6.9,1.54C314.81,425.24,317.29,427.4,319.49,428.34Zm-2.05-3.27c-2-4.66,3.84-3.46,5.48-2.6a26.37,26.37,0,0,1,3,1.93,71.54,71.54,0,0,1,5.64,4.78c-2-.32-3.93-.48-5.9-.72C323.31,428.16,318.56,427.64,317.44,425.07Z" style="fill:#263238"></path><path d="M338.55,429.22l-50.24,0S266.8,343.86,263,339c-5.08-6.48-76.08-6.33-91.3-27.46-13.68-19-2.14-45.84-2.14-45.84l53.77-1.6a111.07,111.07,0,0,1-5,16.91s64.76,11.94,82.91,31.78C313.5,326.18,338.55,429.22,338.55,429.22Z" style="fill:#263238"></path><path d="M227.72,277.33a26.21,26.21,0,0,0-4.55,1.46c-1.55.59-3.07,1.26-4.55,2a90.16,90.16,0,0,0-8.51,4.81c-.08.05,0,.17.09.12,2.91-1.5,5.91-2.86,8.92-4.16l4.34-1.87a44.17,44.17,0,0,0,4.4-1.94A.22.22,0,0,0,227.72,277.33Z" style="fill:#37474f"></path><path d="M224.5,264.08c-.61,2.45-1.15,4.92-1.85,7.35-.33,1.11-.64,2.25-1.07,3.33-.35.91-.89,1.95-2,2.16-1.22.23-1.57-.81-1.47-1.82s.4-2.24.62-3.34c.26-1.28.52-2.55.75-3.83.11-.64.24-1.27.34-1.91,0-.16.15-1.39.24-1.74,0,0,0,.06.07.05h0s.07,0,.07-.07a.16.16,0,0,0-.06-.18.09.09,0,0,0-.11,0c-.23.13-.25.45-.33.68-.19.63-.4,1.24-.58,1.87-.34,1.17-.67,2.34-1,3.52l-.87,3.55a5.48,5.48,0,0,0-.24,2.72,2.09,2.09,0,0,0,1.93,1.57,1.12,1.12,0,0,0-.13.24c-.11.24-.19.5-.28.74s-.18.51-.25.77a1.59,1.59,0,0,0-.07.38c0,.14,0,.28,0,.42s.27.36.38.14.16-.22.23-.35a1.89,1.89,0,0,0,.18-.41c.08-.24.15-.49.22-.74s.13-.49.18-.74,0-.3.05-.46a2.87,2.87,0,0,0,1.41-.53,4.84,4.84,0,0,0,1.47-2.24c.37-1,.65-2.08.94-3.13a46.11,46.11,0,0,0,1.57-7.89A.23.23,0,0,0,224.5,264.08Z" style="fill:#37474f"></path><path d="M333.35,420.22c-1.32-.19-2.69-.19-4-.25s-2.83-.12-4.24-.16c-2.78-.08-5.57-.14-8.35-.15-5.61,0-11.21,0-16.82.08-2.92,0-9.19.12-9.54.24a.14.14,0,0,0,.05.28c5.56.3,11.13.39,16.7.49s11.14.19,16.7.09c1.54,0,3.08-.08,4.62-.12a46.43,46.43,0,0,0,4.87-.21C333.47,420.49,333.54,420.25,333.35,420.22Z" style="fill:#37474f"></path><path d="M268.85,339.72a14.61,14.61,0,0,0-2.1-4.33,7.76,7.76,0,0,0-4.11-2.12c-13.39-3.66-27.22-5.31-40.84-7.88a167.29,167.29,0,0,1-19.87-4.85,77,77,0,0,1-18.81-8.45,21,21,0,0,1-6.91-7.31,31.45,31.45,0,0,1-3.25-9.12,55.73,55.73,0,0,1,0-22.06,49.15,49.15,0,0,1,1.38-5.37c0-.11-.14-.15-.18-.05a53.61,53.61,0,0,0-3,21.92c.48,6.47,2.05,13.27,6.22,18.39a25.94,25.94,0,0,0,7.73,6.07,80.91,80.91,0,0,0,9.47,4.46,126.24,126.24,0,0,0,19.52,5.83c13.59,3,27.45,4.53,41,7.55q2.52.56,5,1.19a17.52,17.52,0,0,1,4.94,1.59c1.61,1,2.14,3,2.78,4.68.69,1.84,22.54,75.75,23,77.61.08.3.53.16.46-.14C289.47,409.77,270.27,343.34,268.85,339.72Z" style="fill:#37474f"></path><path d="M264.89,341.68c-.51-1.62-1-3.35-2.46-4.33s-23-3.86-25.42-4.23c-.11,0-.16.15,0,.17,2.07.35,21.92,3.91,23.7,4.5a3.92,3.92,0,0,1,1.94,1.25,8.69,8.69,0,0,1,1.13,2.7l1.83,5.76c1.23,3.86,2.45,7.73,3.61,11.61,1.32,4.39,2.83,9,4,13.45.09.34.57.17.51-.16C272.15,364.06,265.52,343.69,264.89,341.68Z" style="fill:#37474f"></path><path d="M218.61,281.15a181.26,181.26,0,0,1,29.33,6,205.92,205.92,0,0,1,28.3,10.23c5.14,2.31,10.12,4.89,15.06,7.61.1.05,0,.19-.09.14a230,230,0,0,0-27.52-12A221.57,221.57,0,0,0,235,284.83c-5.47-1.19-11-2.12-16.52-3C218.14,281.74,218.23,281.11,218.61,281.15Z" style="fill:#37474f"></path><path d="M218.13,218.59c8.5,9.06,39.19,37.09,51.43,35.15,8-1.28,36.11-17.69,40.18-21.06,3.15-2.62-12.05-27.85-15.71-25.44s-26.43,14.91-29.71,15.2-35.27-16.55-46-19.66C199.88,197.42,213.55,213.71,218.13,218.59Z" style="fill:#c95f50"></path><path d="M305.89,235.74c3.24-1.74,20.86-11,24.21-14.42s12.3-14.13,9.91-17-5.26.07-5.26.07,3.06-5.1.4-7.74-7,2-7,2,2.76-5.47-.09-7.91-6.39,3-6.39,3,2.75-4.88-.44-5.9c-3.84-1.24-7.91,8.34-11.9,11.88-.91.81-19.55,15-19.55,15Z" style="fill:#c95f50"></path><path d="M322,193.33c-3,7-5.54,9.59-11.74,13.87-.12.08,0,.28.11.21,6.45-3.64,10.09-6.39,12-13.95C322.44,193.09,322.14,193,322,193.33Z" style="fill:#263238"></path><path d="M328.4,198.15c-3.77,7-6.49,9.83-12.65,14.79-.09.07,0,.22.11.16,6.46-4.35,10-7.18,12.86-14.7C328.85,198.06,328.57,197.83,328.4,198.15Z" style="fill:#263238"></path><path d="M334.43,204.66c-4.13,6.55-7,9.74-13.59,13.78a.15.15,0,0,0,.13.26c7.14-3.47,10.73-7.43,13.65-13.89C334.81,204.37,334.69,204.25,334.43,204.66Z" style="fill:#263238"></path><path d="M283.72,214.62s3.27-9,5.58-12.65,15.92-14,18.33-11.23c3.12,3.62-3.55,11.18-7.3,14.45,0,0,7.21,8.39,3.6,14.84S283.72,214.62,283.72,214.62Z" style="fill:#c95f50"></path><path d="M308.16,192c.46,5.36-4.74,9.34-8.15,12.79a.45.45,0,0,0,.11.72c2.79,3.72,5.64,9.77,4.1,14.43a.11.11,0,0,0,.21.09c2.33-4.77,0-10.95-3.31-14.83,3.54-3.48,8.58-7.7,7.09-13.2C308.2,192,308.16,192,308.16,192Z" style="fill:#263238"></path><path d="M284.37,209.22,298.27,243s-22.74,11.86-34.41,11.89c-14.17,0-46.31-32.7-51.08-38.26-7.84-9.12-8.91-15.92-2.47-16.41,2.49-.2,6.13.55,11,2.52,5,2,34.88,16.31,43.33,18C269.32,221.71,284.37,209.22,284.37,209.22Z" style="fill:#A13242"></path><path d="M291.53,243.73c-2.09-4.69-10-24.16-11.38-28.48-.1-.3.07-.44.21-.14,6.61,13.88,9.53,23.83,11.35,28.53C291.76,243.76,291.58,243.85,291.53,243.73Z" style="fill:#263238"></path><path d="M265.6,254.78a14.94,14.94,0,0,1-1.73.1c-14.18,0-46.31-32.7-51.09-38.26-7.43-8.63-8.79-15.2-3.43-16.28C221.46,212,247.91,237.66,265.6,254.78Z" style="opacity:0.1"></path><path d="M229.13,276.13c-1.52,1.48-66.65,8.26-67,7.82-.87-1.18,11.3-62.3,37.38-83.36,4.6-3.71,12.27-2.15,15.74.08,1.73,1.11,6.53,9.89,7.91,17.69S230.09,275.19,229.13,276.13Z" style="fill:#ebebeb"></path><path d="M201.25,199.07s7.11,36.93,7.34,38.43-.81,42.63-.81,42.63l-48.36,6s5.47-20.42,5.76-21.4,10.53-34.86,21.54-50C196.84,200.69,201.25,199.07,201.25,199.07Z" style="fill:#A13242"></path><path d="M216.28,201.21s4.88,32.76,5,34.83S225.13,278,225.13,278l6-2.23s-3.33-25.94-3.72-28.19-3.17-26.37-4.22-30.88C221.51,209.51,216.28,201.21,216.28,201.21Z" style="fill:#A13242"></path><path d="M199,200.66c-26,10-57.28,35.27-56.6,44.85.75,10.68,38.07-3.32,37.87-4.93-.17-1.37,8.46-11.85,20.8-26.87C213.61,198.43,205.42,198.2,199,200.66Z" style="fill:#A13242"></path><path d="M142.39,245.51c1.4,7.55,11.8,13.6,36.57,31.28,3.42,2.45,27.2-17.09,23.68-19.89-4.44-3.53-22.44-16.26-23.87-17C166.67,233.42,141.44,240.39,142.39,245.51Z" style="fill:#c95f50"></path><path d="M197.76,253.19s10.73,7,15.23,12.39c6,7.24,8.25,16,9,19.69,1.48,7.76-.31,27.55-6.1,28-5.23.43-2.39-19.7-2.39-19.7s.49,21-5.92,20.37-1.77-23.82-1.77-23.82,0,21.59-6.49,19.89c-4.91-1.28-1.9-22.51-1.9-22.51s-.11,18.55-5.22,17.45c-5.65-1.22-4.1-21-4.1-21-12.51-5-16.43-12.49-18.58-18.16C169,264.46,197.76,253.19,197.76,253.19Z" style="fill:#c95f50"></path><path d="M213.76,286.33c.14,2.46.31,5,.24,7.43s-.24,4.93-.54,7.39a41.47,41.47,0,0,1-2.09,9.42c1.48-5.55,1.88-14.39,1.95-16.86s.27-4.92.34-7.39C213.67,286.26,213.75,286.27,213.76,286.33Z" style="fill:#263238"></path><path d="M204.84,285.9c.06,3.16.22,6.29.13,9.45s-.44,6.11-.75,9.24c0,.24-.14.15-.13-.09.18-3.14.1-6.06.25-9.2s.4-6.27.43-9.4A0,0,0,1,1,204.84,285.9Z" style="fill:#263238"></path><path d="M197.26,284.16a70.08,70.08,0,0,1-.91,14.46c0,.23-.18.1-.16-.15.4-4.8.74-8.56.9-14.3C197.1,284.08,197.25,284.06,197.26,284.16Z" style="fill:#263238"></path><path d="M203.35,254.41s-32.74,19.91-33,19.76S142,253.42,142.39,245.51s25.62-11.2,36.36-5.69S203.35,254.41,203.35,254.41Z" style="fill:#A13242"></path><path d="M193.43,250c-1.27.59-11.64,7.3-13.87,8.8s-11.37,7.58-13.53,9.32a.09.09,0,1,0,.1.16c2.45-1.3,11.69-7.4,14-8.89s12.42-8.35,13.42-9.25C193.63,250.05,193.51,250,193.43,250Z" style="fill:#263238"></path><path d="M165.39,237.24c2.64-.14,9.87,0,15.37,3.53.06,0,0,.12,0,.09-4.82-2.31-12.72-3.47-15.32-3.53C165.33,237.33,165.32,237.24,165.39,237.24Z" style="fill:#263238"></path><path d="M201.33,255.63l2-1.3v.15c-1.88-1.22-3.81-2.39-5.7-3.6s-3.83-2.37-5.76-3.52S188,245,186,243.92s-3.92-2.19-5.9-3.24l-.49-.27L180,240c2.75-4,5.57-7.87,8.57-11.64q2.25-2.83,4.6-5.58c1.59-1.82,3.2-3.61,4.89-5.33-3.08,3.71-6,7.5-8.89,11.36s-5.68,7.76-8.34,11.75l-.18-.72c4,2.13,7.85,4.45,11.66,6.86,1.89,1.23,3.76,2.48,5.63,3.75s3.68,2.59,5.5,3.92l.12.09-.13.07Z" style="fill:#263238"></path><path d="M191,225.74c.43-.41.86-.84,1.3-1.23s.9-.79,1.36-1.17a23.33,23.33,0,0,1,2.93-2.06,22.43,22.43,0,0,1-2.62,2.45c-.47.37-.93.74-1.43,1.08A10.33,10.33,0,0,1,191,225.74Z" style="fill:#263238"></path><path d="M161.37,267.25a56.39,56.39,0,0,1,4.66,3.2q1.13.85,2.22,1.74l2.21,1.77-.29,0c.92-.44,1.85-.86,2.8-1.25-.83.61-1.68,1.17-2.54,1.72l-.13.08-.16-.1c-.78-.53-1.58-1-2.32-1.62s-1.49-1.15-2.22-1.74A56,56,0,0,1,161.37,267.25Z" style="fill:#263238"></path><path d="M213.66,210.93c-3.78.67-9.86-5.41-12.12-10.18-.15-.33,1.92-12.92,2.07-15.46,0-.52,15.71,4.81,15.71,4.81a40.19,40.19,0,0,0-2.12,9.65C217.18,200.12,217.33,210.29,213.66,210.93Z" style="fill:#c95f50"></path><path d="M219.32,190.1h0L219,191c-.27.84-.69,2.21-1.05,3.77a30.46,30.46,0,0,0-.77,5c0,.12,0,.24,0,.35v.06c0,.21,0,.48,0,.81a10.14,10.14,0,0,1-1.56,0c-8.66-.71-11-11.53-11.52-15.66l.28.07c.41.09,1,.24,1.62.42l.5.15c1.05.31,2.29.7,3.59,1.1.43.14.86.27,1.29.42l2.74.89,1.1.36,1.11.37.51.17.24.08,1.3.44.62.21.27.09,0,0Z" style="fill:#263238"></path><path d="M221.21,178.3c.1,3.83,2.93,6.87,6.32,6.78s6.06-3.26,6-7.09-2.94-6.86-6.33-6.78S221.11,174.47,221.21,178.3Z" style="fill:#A13242"></path><ellipse cx="226.05" cy="178.42" rx="6.83" ry="7.72" transform="translate(-5.39 7.05) rotate(-1.77)" style="fill:#c7c7c7"></ellipse><path d="M201.67,169.44c-1.24,5.78,3.11,21.8,7.42,25.09,6.26,4.77,15.83,4.46,19.71-2.9,3.77-7.13-2.27-27.91-7-30.83C214.76,156.51,203.51,160.91,201.67,169.44Z" style="fill:#c95f50"></path><path d="M218.39,177.63s-.06.07,0,.12c.35,1.06.58,2.34-.29,3,0,0,0,.07,0,.06C219.22,180.27,218.9,178.58,218.39,177.63Z" style="fill:#263238"></path><path d="M217.1,176.79c-1.76.38-.87,3.88.77,3.53S218.58,176.47,217.1,176.79Z" style="fill:#263238"></path><path d="M224.72,176.2s.09,0,.1.08c.25,1.09.71,2.3,1.78,2.41,0,0,0,.06,0,.06C225.37,178.89,224.77,177.28,224.72,176.2Z" style="fill:#263238"></path><path d="M225.39,174.82c1.71-.57,2.74,2.89,1.16,3.42S224,175.31,225.39,174.82Z" style="fill:#263238"></path><path d="M215.43,175.49a14.73,14.73,0,0,0,1.31-.68,2.4,2.4,0,0,0,1.21-1,.77.77,0,0,0-.25-.9,1.92,1.92,0,0,0-1.92.08,2.77,2.77,0,0,0-1.42,1.42A.82.82,0,0,0,215.43,175.49Z" style="fill:#263238"></path><path d="M226.31,172.56a14.81,14.81,0,0,1-1.49,0,2.39,2.39,0,0,1-1.51-.3.76.76,0,0,1-.19-.91,1.91,1.91,0,0,1,1.74-.81,2.74,2.74,0,0,1,1.91.61A.81.81,0,0,1,226.31,172.56Z" style="fill:#263238"></path><path d="M220,188c.32.18.67.47,1.07.4a3,3,0,0,0,1.1-.57s.08,0,.06,0a1.49,1.49,0,0,1-1.22.94,1.18,1.18,0,0,1-1.1-.74C219.84,188,219.91,187.92,220,188Z" style="fill:#263238"></path><path d="M220.27,184.41a3.83,3.83,0,0,0,2.88,1,4.52,4.52,0,0,0,1.35-.28,1,1,0,0,0,.24-.09l.23-.1a.28.28,0,0,0,.16-.3h0s0-.07,0-.11h0l0-.09c-.19-.84-.6-2.09-.6-2.09.35.07,2.08.37,1.95-.06a57.86,57.86,0,0,0-4.29-10.8.1.1,0,0,0-.19.08c1,3.46,2.52,6.72,3.54,10.19a6.43,6.43,0,0,0-1.88-.09c-.11.07.82,2.4.88,2.78v.05a5.32,5.32,0,0,1-4.12-.21C220.25,184.24,220.18,184.34,220.27,184.41Z" style="fill:#263238"></path><path d="M223.9,184.85a4.57,4.57,0,0,1-1.41,1.8,2,2,0,0,1-1.18.38c-.92,0-1.15-.79-1.16-1.51a5.23,5.23,0,0,1,.12-1.14A5.88,5.88,0,0,0,223.9,184.85Z" style="fill:#263238"></path><path d="M222.49,186.65a2,2,0,0,1-1.18.38c-.92,0-1.15-.79-1.16-1.51A2.1,2.1,0,0,1,222.49,186.65Z" style="fill:#ff9abb"></path><path d="M203.7,182.53c4.13-.62,3.83-8.24,3.83-8.24s6.93-2.2,7.18-7.69c0,0,7.36,3.32,12.38.62s3-8.52,2.25-9.71-3.36,1.61-3.36,1.61-.83-3.34-1.78-3.55-1.64,2-1.64,2a44.41,44.41,0,0,0-13.33-.22c-6.16,1.08-8.31,7.77-8.31,7.77s-3.21,1.19-3.95,3.66S201.06,182.92,203.7,182.53Z" style="fill:#263238"></path><path d="M205.87,174.59c5.59-.08,8.7-4.25,8.73-9.63a.06.06,0,0,1,.11,0c.55,4.92-3.22,11.05-8.86,9.89C205.72,174.81,205.72,174.59,205.87,174.59Z" style="fill:#263238"></path><path d="M201.05,165c.06,0,.11.07,0,.1-1.43.94-3.11,1.73-4,3.29-1.06,1.88-.45,4.06.32,5.91,1.19,2.87,3.29,6.51,6.2,7.87.17.08,0,.33-.12.26-3.47-1.42-6.06-6.17-7-9.61C195.43,169,197.54,166.36,201.05,165Z" style="fill:#263238"></path><path d="M221,167.25a8.14,8.14,0,0,0,8.35-1.36c2.59-2.44,1.49-5.67-.16-8.26-.08-.13.09-.31.21-.19,2.06,2.19,2.74,5.88.69,8.32s-6.38,3.07-9.28,1.86C220.52,167.52,220.71,167.15,221,167.25Z" style="fill:#263238"></path><path d="M206.43,182.38s-4.23-4.87-6.48-3.31,1.31,8.89,4.22,9.63a2.87,2.87,0,0,0,3.66-1.93Z" style="fill:#c95f50"></path><path d="M201,181.15s0,.06,0,.07c2,.59,3.27,2.3,4.19,4.11a1.58,1.58,0,0,0-2.4-.18c-.05,0,0,.12.07.1a1.75,1.75,0,0,1,2,.41,8.81,8.81,0,0,1,1.09,1.46c.11.17.41,0,.32-.16l0,0C206.05,184.41,203.74,181.12,201,181.15Z" style="fill:#263238"></path><path d="M202.68,179.54s-2.86-7.89-1.77-13c1.22-5.68,8.44-12.1,16.56-9.55,0,0-9.72,1.31-13.25,9-1.62,3.54,1.24,13,1.24,13Z" style="fill:#c7c7c7"></path><path d="M211.46,181.45c1.23,4.09-.71,8.26-4.33,9.32s-7.54-1.38-8.77-5.47.71-8.26,4.33-9.32S210.23,177.37,211.46,181.45Z" style="fill:#c7c7c7"></path><path d="M209.48,181.78c1.1,3.67-.64,7.42-3.89,8.38s-6.78-1.25-7.88-4.92.64-7.42,3.89-8.38S208.38,178.11,209.48,181.78Z" style="fill:#A13242"></path><path d="M217.23,201.09,213,210.41l-11.27-12.5-3.51,3.71s10.72,19.55,10.83,18.69l4.25-8,5.4,5.92.15-14.29Z" style="fill:#ebebeb"></path><path d="M219.19,211.17c-.05-2.36,0-4.74-.2-7.1,0-.08-.14-.12-.16,0-.57,2.25-.31,11.28-.42,13.43l0,0c-.22-.26-5-5.23-5.07-5.15-.9,1.26-4,7.09-4.24,7.62-1.69-3.11-8.21-14.41-10.25-17.36a.08.08,0,0,0-.14.07c1.47,3.27,10.09,18.48,10.23,18.45a92.87,92.87,0,0,0,4.45-8.47c.8,1.07,5.62,6.65,5.65,6.3A74.2,74.2,0,0,0,219.19,211.17Z" style="fill:#263238"></path></g><g id="freepik--Sign--inject-75"><rect x="329.85" y="37.16" width="90.31" height="35.32" style="fill:#455a64"></rect><rect x="333.98" y="41.3" width="82.03" height="27.04" style="fill:#A13242"></rect><rect x="333.98" y="41.3" width="82.03" height="27.04" style="fill:#020100;opacity:0.2"></rect><rect x="336.31" y="43.68" width="77.37" height="22.28" style="fill:#A13242"></rect><path d="M350.83,61.48a5.92,5.92,0,0,1-2.62-.56,6.7,6.7,0,0,1-2-1.5,6.86,6.86,0,0,1-1.3-2.14,6.75,6.75,0,0,1-.46-2.46,6.54,6.54,0,0,1,.49-2.52,6.77,6.77,0,0,1,1.35-2.13,6.58,6.58,0,0,1,2-1.47,6.15,6.15,0,0,1,2.58-.54,5.77,5.77,0,0,1,2.6.58,6.62,6.62,0,0,1,2,1.53,7.15,7.15,0,0,1,1.29,2.14,6.79,6.79,0,0,1,.47,2.45,6.72,6.72,0,0,1-.49,2.51,6.8,6.8,0,0,1-1.33,2.11,6.55,6.55,0,0,1-2,1.46A6.1,6.1,0,0,1,350.83,61.48ZM347,54.82a5.09,5.09,0,0,0,.26,1.65,4.19,4.19,0,0,0,.75,1.4,3.62,3.62,0,0,0,1.2,1,3.52,3.52,0,0,0,1.62.37,3.48,3.48,0,0,0,1.64-.38,3.9,3.9,0,0,0,1.2-1,4.28,4.28,0,0,0,.74-1.42,5.21,5.21,0,0,0,0-3.25,4.4,4.4,0,0,0-.76-1.4,3.47,3.47,0,0,0-2.8-1.34,3.52,3.52,0,0,0-1.65.38,3.65,3.65,0,0,0-1.2,1,4.4,4.4,0,0,0-.73,1.41A5.14,5.14,0,0,0,347,54.82Z" style="fill:#fff"></path><path d="M361.77,53v8.42h-2.55V48.25h2l6.85,8.63V48.27h2.55V61.39h-2.07Z" style="fill:#fff"></path><path d="M381,48.25h2.26l5,13.14h-2.63l-1.22-3.27h-4.59l-1.21,3.27h-2.63Zm2.95,8.07-1.82-5.17-1.89,5.17Z" style="fill:#fff"></path><path d="M389.65,61.39V48.25h2.56V61.39Z" style="fill:#fff"></path><path d="M395,61.39V48.25h5.81a3.67,3.67,0,0,1,1.68.38,4.2,4.2,0,0,1,1.32,1,4.71,4.71,0,0,1,.87,1.4,4.3,4.3,0,0,1,.32,1.59,4.42,4.42,0,0,1-.64,2.32,3.72,3.72,0,0,1-1.73,1.51l3,4.94H402.7L400,57H397.5v4.4Zm2.55-6.64h3.21a1.34,1.34,0,0,0,.65-.17,1.63,1.63,0,0,0,.53-.45,2.19,2.19,0,0,0,.35-.68,2.53,2.53,0,0,0,.13-.83,2.3,2.3,0,0,0-.15-.85,2.37,2.37,0,0,0-.39-.68,1.75,1.75,0,0,0-.58-.44,1.4,1.4,0,0,0-.66-.16H397.5Z" style="fill:#fff"></path></g><g id="freepik--Table--inject-75"><rect x="207.9" y="393.33" width="25.95" height="4.56" style="fill:#455a64"></rect><polygon points="247.92 460.09 245.12 460.09 222.27 353.39 220.96 347.31 216.86 328.16 215.33 321.01 209.58 294.21 207.57 284.83 217.55 284.83 219.18 294.21 220.25 300.37 220.96 304.48 225.06 328.16 226.38 335.78 247.92 460.09" style="fill:#455a64"></polygon><polygon points="217.55 284.83 219.18 294.21 209.58 294.21 207.57 284.83 217.55 284.83" style="fill:#263238"></polygon><polygon points="226.38 335.78 222.27 353.39 220.96 347.31 216.86 328.16 215.33 321.01 220.25 300.37 220.96 304.48 225.06 328.16 226.38 335.78" style="fill:#263238"></polygon><polygon points="234.34 284.83 232.34 294.21 225.06 328.16 220.96 347.31 196.79 460.09 194 460.09 216.86 328.16 220.96 304.48 222.74 294.21 224.36 284.83 234.34 284.83" style="fill:#455a64"></polygon><polygon points="234.34 284.83 232.34 294.21 222.74 294.21 224.36 284.83 234.34 284.83" style="fill:#263238"></polygon><rect x="472.47" y="393.33" width="25.95" height="4.56" style="fill:#455a64"></rect><polygon points="512.49 460.09 509.69 460.09 486.83 353.39 485.53 347.31 481.42 328.16 479.9 321.01 474.14 294.21 472.14 284.83 482.12 284.83 483.75 294.21 484.81 300.37 485.53 304.48 489.62 328.16 490.95 335.78 512.49 460.09" style="fill:#455a64"></polygon><polygon points="482.12 284.83 483.75 294.21 474.14 294.21 472.14 284.83 482.12 284.83" style="fill:#263238"></polygon><polygon points="490.95 335.78 486.83 353.39 485.53 347.31 481.42 328.16 479.9 321.01 484.81 300.37 485.53 304.48 489.62 328.16 490.95 335.78" style="fill:#263238"></polygon><polygon points="498.91 284.83 496.9 294.21 489.62 328.16 485.53 347.31 461.36 460.09 458.57 460.09 481.42 328.16 485.53 304.48 487.3 294.21 488.93 284.83 498.91 284.83" style="fill:#455a64"></polygon><polygon points="498.91 284.83 496.9 294.21 487.3 294.21 488.93 284.83 498.91 284.83" style="fill:#263238"></polygon><rect x="187.42" y="272.51" width="331.65" height="12.32" style="fill:#455a64"></rect><rect x="329.8" y="254.42" width="75.76" height="18.09" style="fill:#37474f"></rect><rect x="312.67" y="254.42" width="17.13" height="18.09" style="fill:#263238"></rect><circle cx="333.63" cy="258.12" r="1.38" style="fill:#A13242"></circle><circle cx="333.63" cy="263.46" r="1.38" style="fill:#dbdbdb"></circle><circle cx="333.63" cy="268.8" r="1.38" style="fill:#A13242"></circle><circle cx="337.61" cy="258.12" r="1.38" style="fill:#263238"></circle><circle cx="337.61" cy="263.46" r="1.38" style="fill:#A13242"></circle><circle cx="337.61" cy="268.8" r="1.38" style="fill:#263238"></circle><circle cx="341.59" cy="258.12" r="1.38" style="fill:#dbdbdb"></circle><circle cx="341.59" cy="263.46" r="1.38" style="fill:#dbdbdb"></circle><circle cx="341.59" cy="268.8" r="1.38" style="fill:#A13242"></circle><circle cx="345.57" cy="258.12" r="1.38" style="fill:#A13242"></circle><circle cx="345.57" cy="263.46" r="1.38" style="fill:#263238"></circle><circle cx="345.57" cy="268.8" r="1.38" style="fill:#dbdbdb"></circle><path d="M350.92,258.12a1.38,1.38,0,1,1-1.38-1.38A1.37,1.37,0,0,1,350.92,258.12Z" style="fill:#dbdbdb"></path><path d="M350.92,263.46a1.38,1.38,0,1,1-1.38-1.38A1.38,1.38,0,0,1,350.92,263.46Z" style="fill:#A13242"></path><path d="M350.92,268.8a1.38,1.38,0,1,1-2.75,0,1.38,1.38,0,0,1,2.75,0Z" style="fill:#A13242"></path><circle cx="353.52" cy="258.12" r="1.38" style="fill:#263238"></circle><circle cx="353.52" cy="263.46" r="1.38" style="fill:#dbdbdb"></circle><circle cx="353.52" cy="268.8" r="1.38" style="fill:#A13242"></circle><circle cx="357.5" cy="258.12" r="1.38" style="fill:#A13242"></circle><circle cx="357.5" cy="263.46" r="1.38" style="fill:#A13242"></circle><circle cx="357.5" cy="268.8" r="1.38" style="fill:#263238"></circle><circle cx="393.13" cy="258.12" r="1.38" style="fill:#A13242"></circle><circle cx="393.13" cy="263.46" r="1.38" style="fill:#dbdbdb"></circle><circle cx="393.13" cy="268.8" r="1.38" style="fill:#A13242"></circle><circle cx="397.11" cy="258.12" r="1.38" style="fill:#263238"></circle><circle cx="397.11" cy="263.46" r="1.38" style="fill:#A13242"></circle><circle cx="397.11" cy="268.8" r="1.38" style="fill:#263238"></circle><circle cx="401.09" cy="258.12" r="1.38" style="fill:#dbdbdb"></circle><circle cx="401.09" cy="263.46" r="1.38" style="fill:#dbdbdb"></circle><circle cx="401.09" cy="268.8" r="1.38" style="fill:#A13242"></circle><rect x="363.45" y="256.74" width="6.96" height="2.98" style="fill:#a6a6a6"></rect><rect x="363.45" y="262.02" width="6.96" height="2.98" style="fill:#a6a6a6"></rect><rect x="363.45" y="267.31" width="6.96" height="2.98" style="fill:#a6a6a6"></rect><rect x="372.6" y="256.74" width="6.96" height="2.98" style="fill:#a6a6a6"></rect><rect x="372.6" y="262.02" width="6.96" height="2.98" style="fill:#a6a6a6"></rect><rect x="372.6" y="267.31" width="6.96" height="2.98" style="fill:#a6a6a6"></rect><rect x="381.74" y="256.74" width="6.96" height="2.98" style="fill:#a6a6a6"></rect><rect x="381.74" y="262.02" width="6.96" height="2.98" style="fill:#a6a6a6"></rect><rect x="381.74" y="267.31" width="6.96" height="2.98" style="fill:#a6a6a6"></rect><rect x="205.57" y="269.2" width="73.79" height="3.31" style="fill:#37474f"></rect><rect x="242.22" y="269.2" width="37.14" height="3.31" style="fill:#263238"></rect><polygon points="246.21 272.5 318.13 272.5 327.53 223.66 255.62 223.66 246.21 272.5" style="fill:#37474f"></polygon><path d="M282.49,248.08a4,4,0,0,0,4,4.38,4.87,4.87,0,0,0,4.76-4.38,4,4,0,0,0-4-4.37A4.89,4.89,0,0,0,282.49,248.08Z" style="fill:#ebebeb"></path><rect x="251.16" y="190.77" width="22.64" height="0.88" transform="translate(3.1 386.6) rotate(-73.06)" style="fill:#263238"></rect><path d="M266.64,203.07a5.25,5.25,0,0,1-1.61-.25l-7.6-2.31.87-2.87,7.61,2.31a2.49,2.49,0,0,0,3.11-1.66l2.84-9.31a2.52,2.52,0,0,0-1.66-3.12l-7.61-2.31.88-2.87,7.6,2.31a5.51,5.51,0,0,1,3.66,6.86l-2.84,9.32a5.43,5.43,0,0,1-2.67,3.25A5.49,5.49,0,0,1,266.64,203.07Z" style="fill:#263238"></path><rect x="258.04" y="200.83" width="1.76" height="4.1" transform="translate(-10.59 391.47) rotate(-73.06)" style="fill:#263238"></rect><rect x="265.12" y="177.6" width="1.76" height="4.1" transform="translate(16.65 381.77) rotate(-73.06)" style="fill:#263238"></rect><rect x="270.26" y="192.12" width="3" height="3.82" transform="translate(6.98 397.5) rotate(-73.07)" style="fill:#263238"></rect><path d="M260.44,184.59l-3.34,11L242,191a5.76,5.76,0,0,1-3.82-7.17h0a5.75,5.75,0,0,1,7.17-3.82Z" style="fill:#263238"></path><path d="M256.87,185h13.54a0,0,0,0,1,0,0v8.61a4.54,4.54,0,0,1-4.54,4.54h-4.46a4.54,4.54,0,0,1-4.54-4.54V185A0,0,0,0,1,256.87,185Z" transform="translate(3.58 387.96) rotate(-73.06)" style="fill:#dbdbdb"></path><rect x="252" y="189.7" width="13.54" height="0.77" transform="translate(1.55 382.25) rotate(-73.06)" style="fill:#263238"></rect><rect x="253.31" y="190.1" width="13.54" height="0.77" transform="translate(2.09 383.79) rotate(-73.06)" style="fill:#263238"></rect><rect x="263.05" y="192.36" width="1.27" height="6.26" transform="translate(-0.14 390.78) rotate(-73.06)" style="fill:#263238"></rect><rect x="263.77" y="189.98" width="1.27" height="6.26" transform="translate(2.65 389.79) rotate(-73.06)" style="fill:#263238"></rect><rect x="264.5" y="187.59" width="1.27" height="6.26" transform="translate(5.45 388.79) rotate(-73.06)" style="fill:#263238"></rect><rect x="265.23" y="185.21" width="1.27" height="6.26" transform="translate(8.24 387.8) rotate(-73.06)" style="fill:#263238"></rect><polygon points="339.42 272.07 338.43 271.92 347.64 213.23 307.15 180.17 274.49 197.76 274.02 196.88 307.26 178.97 348.72 212.82 339.42 272.07" style="fill:#c7c7c7"></polygon><polygon points="341.76 272.07 340.77 271.92 350.14 212.24 307.15 177.56 275.82 194.37 275.35 193.49 307.26 176.37 351.22 211.82 351.17 212.1 341.76 272.07" style="fill:#c7c7c7"></polygon><path d="M276.83,195.56a2.19,2.19,0,1,1-2.19-2.19A2.19,2.19,0,0,1,276.83,195.56Z" style="fill:#a6a6a6"></path><polygon points="351.29 272.51 330.78 272.51 332.34 267.5 349.73 267.5 351.29 272.51" style="fill:#a6a6a6"></polygon><path d="M307.08,182.8h0a1.54,1.54,0,0,1-1.55-1.55v-5.62a1.54,1.54,0,0,1,1.55-1.55h0a1.55,1.55,0,0,1,1.55,1.55v5.62A1.55,1.55,0,0,1,307.08,182.8Z" style="fill:#37474f"></path><path d="M344.94,213.86h0a1.55,1.55,0,0,1,1-1.94l5.39-1.63a1.55,1.55,0,0,1,1.93,1h0a1.55,1.55,0,0,1-1,1.94l-5.39,1.63A1.55,1.55,0,0,1,344.94,213.86Z" style="fill:#37474f"></path><path d="M309.27,178.44a2.19,2.19,0,1,1-2.19-2.19A2.19,2.19,0,0,1,309.27,178.44Z" style="fill:#a6a6a6"></path><path d="M351.3,212.59a2.19,2.19,0,1,1-2.19-2.19A2.19,2.19,0,0,1,351.3,212.59Z" style="fill:#a6a6a6"></path><rect x="481.89" y="190.77" width="22.64" height="0.88" transform="translate(453.97 718.73) rotate(-106.94)" style="fill:#263238"></rect><path d="M489.06,203.06a5.5,5.5,0,0,1-5.27-3.89L481,189.85a5.49,5.49,0,0,1,3.65-6.86l7.61-2.31.87,2.87-7.6,2.31a2.49,2.49,0,0,0-1.66,3.12l2.83,9.31a2.49,2.49,0,0,0,3.12,1.66l7.6-2.31.88,2.87-7.61,2.31A5.2,5.2,0,0,1,489.06,203.06Z" style="fill:#263238"></path><rect x="495.88" y="200.83" width="1.76" height="4.1" transform="matrix(-0.29, -0.96, 0.96, -0.29, 447.4, 737.2)" style="fill:#263238"></rect><rect x="488.81" y="177.6" width="1.76" height="4.1" transform="translate(460.46 700.43) rotate(-106.93)" style="fill:#263238"></rect><rect x="482.02" y="192.54" width="3.82" height="3" transform="translate(-35.52 149.23) rotate(-16.92)" style="fill:#263238"></rect><path d="M495.24,184.59l3.35,11,15.1-4.6a5.74,5.74,0,0,0,3.82-7.17h0a5.73,5.73,0,0,0-7.16-3.82Z" style="fill:#263238"></path><path d="M489.82,185h4.46a4.54,4.54,0,0,1,4.54,4.54v8.61a0,0,0,0,1,0,0H485.28a0,0,0,0,1,0,0v-8.61A4.54,4.54,0,0,1,489.82,185Z" transform="translate(452.13 718.08) rotate(-106.94)" style="fill:#dbdbdb"></path><rect x="490.14" y="189.7" width="13.54" height="0.77" transform="translate(459.83 720.82) rotate(-106.94)" style="fill:#263238"></rect><rect x="488.84" y="190.1" width="13.54" height="0.77" transform="translate(457.77 720.08) rotate(-106.94)" style="fill:#263238"></rect><rect x="491.36" y="192.36" width="1.27" height="6.26" transform="translate(448.33 723.1) rotate(-106.94)" style="fill:#263238"></rect><rect x="490.64" y="189.98" width="1.27" height="6.25" transform="translate(449.67 719.32) rotate(-106.94)" style="fill:#263238"></rect><rect x="489.91" y="187.59" width="1.27" height="6.26" transform="translate(451.02 715.55) rotate(-106.94)" style="fill:#263238"></rect><rect x="489.18" y="185.21" width="1.27" height="6.26" transform="translate(452.36 711.77) rotate(-106.94)" style="fill:#263238"></rect><polygon points="416.27 272.07 406.97 212.82 448.42 178.97 481.67 196.88 481.19 197.76 448.54 180.17 408.05 213.23 417.26 271.92 416.27 272.07" style="fill:#c7c7c7"></polygon><polygon points="413.93 272.07 404.47 211.82 404.69 211.64 448.43 176.37 480.34 193.49 479.87 194.37 448.54 177.56 405.55 212.24 414.91 271.92 413.93 272.07" style="fill:#c7c7c7"></polygon><path d="M478.86,195.56a2.19,2.19,0,1,0,2.19-2.19A2.19,2.19,0,0,0,478.86,195.56Z" style="fill:#a6a6a6"></path><polygon points="404.4 272.51 424.91 272.51 423.35 267.5 405.96 267.5 404.4 272.51" style="fill:#a6a6a6"></polygon><path d="M448.61,182.8h0a1.55,1.55,0,0,0,1.55-1.55v-5.62a1.55,1.55,0,0,0-1.55-1.55h0a1.54,1.54,0,0,0-1.55,1.55v5.62A1.54,1.54,0,0,0,448.61,182.8Z" style="fill:#37474f"></path><path d="M410.75,213.86h0a1.57,1.57,0,0,0-1-1.94l-5.38-1.63a1.55,1.55,0,0,0-1.93,1h0a1.55,1.55,0,0,0,1,1.94l5.38,1.63A1.56,1.56,0,0,0,410.75,213.86Z" style="fill:#37474f"></path><path d="M446.42,178.44a2.19,2.19,0,1,0,2.19-2.19A2.19,2.19,0,0,0,446.42,178.44Z" style="fill:#a6a6a6"></path><path d="M404.38,212.59a2.19,2.19,0,1,0,2.19-2.19A2.19,2.19,0,0,0,404.38,212.59Z" style="fill:#a6a6a6"></path></g><g id="freepik--speech-bubble--inject-75"><path d="M240.26,162.7a11.93,11.93,0,0,1-2-6.6c0-8.36,9.19-15.14,20.51-15.14s20.5,6.78,20.5,15.14-9.18,15.14-20.5,15.14a24.59,24.59,0,0,1-14.14-4.19l-7.07,1.8Z" style="fill:#fffefd"></path><path d="M240.26,162.7a11.67,11.67,0,0,1-.56-12.7,16.24,16.24,0,0,1,4.52-5,21.45,21.45,0,0,1,6-3.07,26.89,26.89,0,0,1,13.32-1,22.29,22.29,0,0,1,12,5.84,14.3,14.3,0,0,1,3.61,5.78,11.72,11.72,0,0,1,.06,6.84,14.14,14.14,0,0,1-3.52,5.83,20,20,0,0,1-5.53,3.91,26.51,26.51,0,0,1-13.15,2.4,24.45,24.45,0,0,1-12.58-4.31l.19,0L237.54,169l-.24.06.1-.23Zm0,0-2.64,6.2-.14-.17,7-1.9.1,0,.09.06a24.05,24.05,0,0,0,12.35,4,26.94,26.94,0,0,0,6.53-.46,23.15,23.15,0,0,0,6.19-2,18.74,18.74,0,0,0,5.25-3.76,13.11,13.11,0,0,0,3.27-5.45,10.84,10.84,0,0,0-.09-6.28,13.37,13.37,0,0,0-3.34-5.39,21.46,21.46,0,0,0-11.5-5.66,27.33,27.33,0,0,0-13,.82,18.53,18.53,0,0,0-10.34,7.59,11.69,11.69,0,0,0-1.74,6.24A12.13,12.13,0,0,0,240.26,162.7Z" style="fill:#263238"></path><path d="M266.09,156.1a2.13,2.13,0,1,0,2.13-2.13A2.13,2.13,0,0,0,266.09,156.1Z" style="fill:#263238"></path><path d="M256.59,156.1a2.13,2.13,0,1,0,2.13-2.13A2.13,2.13,0,0,0,256.59,156.1Z" style="fill:#263238"></path><path d="M247.09,156.1a2.13,2.13,0,1,0,2.13-2.13A2.13,2.13,0,0,0,247.09,156.1Z" style="fill:#263238"></path><path d="M517,165.53a11.92,11.92,0,0,0,2-6.6c0-8.36-9.18-15.14-20.5-15.14s-20.5,6.78-20.5,15.14,9.17,15.15,20.5,15.15a24.61,24.61,0,0,0,14.14-4.19l7.06,1.79Z" style="fill:#fffefd"></path><path d="M517,165.53a12.22,12.22,0,0,0,1.92-6.24,11.77,11.77,0,0,0-1.74-6.24,18.59,18.59,0,0,0-10.35-7.59,27.28,27.28,0,0,0-12.94-.82,21.43,21.43,0,0,0-11.5,5.66,13.13,13.13,0,0,0-3.34,5.4A10.8,10.8,0,0,0,479,162a13.19,13.19,0,0,0,3.26,5.45,19,19,0,0,0,5.25,3.76,23.34,23.34,0,0,0,6.2,2,26.86,26.86,0,0,0,6.52.46,24.09,24.09,0,0,0,12.36-4l.09-.06.1,0,7,1.9-.14.17Zm0,0,2.85,6.1.11.23-.25-.06-7.09-1.69.19,0a24.33,24.33,0,0,1-12.58,4.31,26.47,26.47,0,0,1-13.14-2.4,19.83,19.83,0,0,1-5.53-3.91,14.27,14.27,0,0,1-3.53-5.83,11.8,11.8,0,0,1,.06-6.84,14.43,14.43,0,0,1,3.62-5.78,22.29,22.29,0,0,1,12-5.84,27.52,27.52,0,0,1,6.72-.33,28,28,0,0,1,6.6,1.35,21.66,21.66,0,0,1,6,3.07,16.12,16.12,0,0,1,4.52,5,12,12,0,0,1,1.6,6.46A11.88,11.88,0,0,1,517,165.53Z" style="fill:#263238"></path><path d="M491.18,158.93a2.13,2.13,0,1,1-2.12-2.12A2.12,2.12,0,0,1,491.18,158.93Z" style="fill:#263238"></path><path d="M500.68,158.93a2.13,2.13,0,1,1-2.12-2.12A2.12,2.12,0,0,1,500.68,158.93Z" style="fill:#263238"></path><path d="M510.19,158.93a2.13,2.13,0,1,1-2.13-2.12A2.13,2.13,0,0,1,510.19,158.93Z" style="fill:#263238"></path></g></svg>